<svg width="337" height="404" viewBox="0 0 337 404" fill="none" xmlns="http://www.w3.org/2000/svg">
<g filter="url(#filter0_d_5193_27312)">
<rect x="14" y="14" width="309" height="376" rx="22" fill="white"/>
<rect x="22" y="22" width="293" height="220" rx="14" fill="#FF6161"/>
<path d="M144.192 76.5912C144.912 75.7284 146.229 75.7575 146.909 76.6524C148.628 78.9169 151.619 83.003 153.35 86.2199C154.95 89.1922 156.597 93.5063 157.549 96.1447C157.963 97.2939 157.115 98.4878 155.893 98.4938C153.296 98.5064 149.107 98.5166 145.589 98.4784C142.005 98.4395 136.954 98.2281 133.958 98.0902C132.725 98.0334 131.928 96.7826 132.414 95.6481C133.503 93.11 135.339 89.03 137.032 86.2199C138.997 82.9572 142.317 78.8374 144.192 76.5912Z" fill="white"/>
<path d="M192.699 76.5912C191.979 75.7284 190.662 75.7575 189.982 76.6524C188.262 78.9169 185.272 83.003 183.54 86.2199C181.94 89.1922 180.293 93.5063 179.342 96.1447C178.928 97.2939 179.776 98.4878 180.998 98.4938C183.594 98.5064 187.783 98.5166 191.302 98.4784C194.885 98.4395 199.937 98.2281 202.933 98.0902C204.166 98.0334 204.963 96.7826 204.476 95.6481C203.388 93.11 201.552 89.03 199.859 86.2199C197.894 82.9572 194.573 78.8374 192.699 76.5912Z" fill="white"/>
<rect x="132.265" y="96.2498" width="72.3637" height="21.9352" fill="white"/>
<rect x="132.265" y="144.492" width="26.3071" height="21.9352" transform="rotate(-90 132.265 144.492)" fill="white"/>
<rect width="72.3637" height="21.9352" transform="matrix(1 0 0 -1 132.265 185.054)" fill="white"/>
<rect width="26.3071" height="21.9352" transform="matrix(0 1 1 0 182.69 136.812)" fill="white"/>
<path d="M34.464 256.78H36.444V258.184C36.444 259.276 36.276 260.314 35.94 261.298C35.604 262.27 35.088 263.122 34.392 263.854C33.708 264.574 32.832 265.12 31.764 265.492L30.504 263.602C31.44 263.29 32.196 262.852 32.772 262.288C33.36 261.724 33.786 261.088 34.05 260.38C34.326 259.66 34.464 258.928 34.464 258.184V256.78ZM34.968 256.78H36.894V258.13C36.894 258.646 36.966 259.162 37.11 259.678C37.254 260.182 37.476 260.662 37.776 261.118C38.076 261.562 38.46 261.958 38.928 262.306C39.408 262.654 39.978 262.942 40.638 263.17L39.378 265.024C38.382 264.664 37.554 264.142 36.894 263.458C36.234 262.774 35.748 261.976 35.436 261.064C35.124 260.152 34.968 259.174 34.968 258.13V256.78ZM41.448 255.934H43.842V265.564H41.448V255.934ZM43.194 259.696H46.056V261.658H43.194V259.696ZM33.006 266.212H43.842V272.422H33.006V266.212ZM41.502 268.084H35.364V270.532H41.502V268.084ZM59.3566 258.022H62.2186V259.984H59.3566V258.022ZM59.3566 261.586H62.2186V263.548H59.3566V261.586ZM57.6646 255.916H60.0586V265.654H57.6646V255.916ZM54.5866 265.87C55.7266 265.87 56.7166 266.008 57.5566 266.284C58.4086 266.548 59.0686 266.932 59.5366 267.436C60.0046 267.94 60.2386 268.546 60.2386 269.254C60.2386 269.938 60.0046 270.532 59.5366 271.036C59.0686 271.54 58.4086 271.93 57.5566 272.206C56.7166 272.482 55.7266 272.62 54.5866 272.62C53.4466 272.62 52.4446 272.482 51.5806 272.206C50.7286 271.93 50.0686 271.54 49.6006 271.036C49.1326 270.532 48.8986 269.938 48.8986 269.254C48.8986 268.546 49.1326 267.94 49.6006 267.436C50.0686 266.932 50.7286 266.548 51.5806 266.284C52.4446 266.008 53.4466 265.87 54.5866 265.87ZM54.5866 267.76C53.8906 267.76 53.2906 267.814 52.7866 267.922C52.2946 268.03 51.9226 268.198 51.6706 268.426C51.4186 268.642 51.2926 268.918 51.2926 269.254C51.2926 269.566 51.4186 269.836 51.6706 270.064C51.9226 270.28 52.2946 270.448 52.7866 270.568C53.2906 270.676 53.8906 270.73 54.5866 270.73C55.2826 270.73 55.8706 270.676 56.3506 270.568C56.8426 270.448 57.2146 270.28 57.4666 270.064C57.7306 269.836 57.8626 269.566 57.8626 269.254C57.8626 268.918 57.7306 268.642 57.4666 268.426C57.2146 268.198 56.8426 268.03 56.3506 267.922C55.8706 267.814 55.2826 267.76 54.5866 267.76ZM47.6026 256.87H49.9966V263.692H47.6026V256.87ZM47.6026 262.702H48.9886C50.1286 262.702 51.3106 262.654 52.5346 262.558C53.7706 262.462 55.0426 262.288 56.3506 262.036L56.6206 263.944C55.2766 264.232 53.9626 264.424 52.6786 264.52C51.4066 264.616 50.1766 264.664 48.9886 264.664H47.6026V262.702ZM74.5652 255.898H76.9592V272.62H74.5652V255.898ZM67.9772 257.068C68.8292 257.068 69.5852 257.314 70.2452 257.806C70.9052 258.286 71.4212 258.976 71.7932 259.876C72.1772 260.764 72.3692 261.814 72.3692 263.026C72.3692 264.25 72.1772 265.312 71.7932 266.212C71.4212 267.1 70.9052 267.79 70.2452 268.282C69.5852 268.762 68.8292 269.002 67.9772 269.002C67.1372 269.002 66.3872 268.762 65.7272 268.282C65.0672 267.79 64.5452 267.1 64.1612 266.212C63.7892 265.312 63.6032 264.25 63.6032 263.026C63.6032 261.814 63.7892 260.764 64.1612 259.876C64.5452 258.976 65.0672 258.286 65.7272 257.806C66.3872 257.314 67.1372 257.068 67.9772 257.068ZM67.9772 259.246C67.5692 259.246 67.2092 259.39 66.8972 259.678C66.5852 259.966 66.3392 260.392 66.1592 260.956C65.9912 261.508 65.9072 262.198 65.9072 263.026C65.9072 263.842 65.9912 264.538 66.1592 265.114C66.3392 265.678 66.5852 266.104 66.8972 266.392C67.2092 266.68 67.5692 266.824 67.9772 266.824C68.3972 266.824 68.7632 266.68 69.0752 266.392C69.3872 266.104 69.6272 265.678 69.7952 265.114C69.9752 264.538 70.0652 263.842 70.0652 263.026C70.0652 262.198 69.9752 261.508 69.7952 260.956C69.6272 260.392 69.3872 259.966 69.0752 259.678C68.7632 259.39 68.3972 259.246 67.9772 259.246ZM79.3338 268.66H94.4358V270.604H79.3338V268.66ZM85.5978 258.238H87.6318V259.174C87.6318 259.882 87.5298 260.554 87.3258 261.19C87.1338 261.826 86.8458 262.42 86.4618 262.972C86.0898 263.512 85.6278 264.004 85.0758 264.448C84.5238 264.88 83.8938 265.252 83.1858 265.564C82.4778 265.876 81.7038 266.11 80.8638 266.266L79.9098 264.34C80.6538 264.22 81.3258 264.04 81.9258 263.8C82.5378 263.56 83.0718 263.272 83.5278 262.936C83.9838 262.6 84.3618 262.234 84.6618 261.838C84.9738 261.43 85.2078 261.004 85.3638 260.56C85.5198 260.104 85.5978 259.642 85.5978 259.174V258.238ZM86.1018 258.238H88.1178V259.174C88.1178 259.642 88.1958 260.098 88.3518 260.542C88.5078 260.986 88.7418 261.412 89.0538 261.82C89.3658 262.216 89.7498 262.582 90.2058 262.918C90.6738 263.242 91.2138 263.524 91.8258 263.764C92.4498 263.992 93.1398 264.16 93.8958 264.268L92.9598 266.176C92.0958 266.02 91.3038 265.792 90.5838 265.492C89.8758 265.192 89.2398 264.826 88.6758 264.394C88.1238 263.962 87.6558 263.476 87.2718 262.936C86.8878 262.396 86.5938 261.814 86.3898 261.19C86.1978 260.554 86.1018 259.882 86.1018 259.174V258.238ZM80.5758 257.32H93.1398V259.228H80.5758V257.32Z" fill="#3F404D"/>
<path d="M33.85 293.126C33.2433 293.126 32.6973 293.019 32.212 292.804C31.736 292.58 31.358 292.281 31.078 291.908C30.798 291.525 30.6487 291.101 30.63 290.634H32.282C32.31 290.961 32.464 291.236 32.744 291.46C33.0333 291.675 33.3927 291.782 33.822 291.782C34.27 291.782 34.6153 291.698 34.858 291.53C35.11 291.353 35.236 291.129 35.236 290.858C35.236 290.569 35.096 290.354 34.816 290.214C34.5453 290.074 34.1113 289.92 33.514 289.752C32.9353 289.593 32.464 289.439 32.1 289.29C31.736 289.141 31.4187 288.912 31.148 288.604C30.8867 288.296 30.756 287.89 30.756 287.386C30.756 286.975 30.8773 286.602 31.12 286.266C31.3627 285.921 31.708 285.65 32.156 285.454C32.6133 285.258 33.136 285.16 33.724 285.16C34.6013 285.16 35.306 285.384 35.838 285.832C36.3793 286.271 36.6687 286.873 36.706 287.638H35.11C35.082 287.293 34.942 287.017 34.69 286.812C34.438 286.607 34.0973 286.504 33.668 286.504C33.248 286.504 32.926 286.583 32.702 286.742C32.478 286.901 32.366 287.111 32.366 287.372C32.366 287.577 32.4407 287.75 32.59 287.89C32.7393 288.03 32.9213 288.142 33.136 288.226C33.3507 288.301 33.668 288.399 34.088 288.52C34.648 288.669 35.1053 288.823 35.46 288.982C35.824 289.131 36.1367 289.355 36.398 289.654C36.6593 289.953 36.7947 290.349 36.804 290.844C36.804 291.283 36.6827 291.675 36.44 292.02C36.1973 292.365 35.852 292.636 35.404 292.832C34.9653 293.028 34.4473 293.126 33.85 293.126ZM37.7165 289.108C37.7165 288.333 37.8752 287.647 38.1925 287.05C38.5192 286.453 38.9578 285.991 39.5085 285.664C40.0685 285.328 40.6845 285.16 41.3565 285.16C41.9632 285.16 42.4905 285.281 42.9385 285.524C43.3958 285.757 43.7598 286.051 44.0305 286.406V285.286H45.6405V293H44.0305V291.852C43.7598 292.216 43.3912 292.519 42.9245 292.762C42.4578 293.005 41.9258 293.126 41.3285 293.126C40.6658 293.126 40.0592 292.958 39.5085 292.622C38.9578 292.277 38.5192 291.801 38.1925 291.194C37.8752 290.578 37.7165 289.883 37.7165 289.108ZM44.0305 289.136C44.0305 288.604 43.9185 288.142 43.6945 287.75C43.4798 287.358 43.1952 287.059 42.8405 286.854C42.4858 286.649 42.1032 286.546 41.6925 286.546C41.2818 286.546 40.8992 286.649 40.5445 286.854C40.1898 287.05 39.9005 287.344 39.6765 287.736C39.4618 288.119 39.3545 288.576 39.3545 289.108C39.3545 289.64 39.4618 290.107 39.6765 290.508C39.9005 290.909 40.1898 291.217 40.5445 291.432C40.9085 291.637 41.2912 291.74 41.6925 291.74C42.1032 291.74 42.4858 291.637 42.8405 291.432C43.1952 291.227 43.4798 290.928 43.6945 290.536C43.9185 290.135 44.0305 289.668 44.0305 289.136ZM56.7948 285.16C57.4015 285.16 57.9428 285.286 58.4188 285.538C58.9041 285.79 59.2821 286.163 59.5528 286.658C59.8328 287.153 59.9728 287.75 59.9728 288.45V293H58.3908V288.688C58.3908 287.997 58.2181 287.47 57.8728 287.106C57.5275 286.733 57.0561 286.546 56.4588 286.546C55.8615 286.546 55.3855 286.733 55.0308 287.106C54.6855 287.47 54.5128 287.997 54.5128 288.688V293H52.9308V288.688C52.9308 287.997 52.7581 287.47 52.4128 287.106C52.0675 286.733 51.5961 286.546 50.9988 286.546C50.4015 286.546 49.9255 286.733 49.5708 287.106C49.2255 287.47 49.0528 287.997 49.0528 288.688V293H47.4568V285.286H49.0528V286.168C49.3141 285.851 49.6455 285.603 50.0468 285.426C50.4481 285.249 50.8775 285.16 51.3348 285.16C51.9508 285.16 52.5015 285.291 52.9868 285.552C53.4721 285.813 53.8455 286.191 54.1068 286.686C54.3401 286.219 54.7041 285.851 55.1988 285.58C55.6935 285.3 56.2255 285.16 56.7948 285.16ZM67.6457 287.26V288.604H61.8917V287.26H67.6457ZM78.9711 285.16C79.5778 285.16 80.1191 285.286 80.5951 285.538C81.0805 285.79 81.4585 286.163 81.7291 286.658C82.0091 287.153 82.1491 287.75 82.1491 288.45V293H80.5671V288.688C80.5671 287.997 80.3945 287.47 80.0491 287.106C79.7038 286.733 79.2325 286.546 78.6351 286.546C78.0378 286.546 77.5618 286.733 77.2071 287.106C76.8618 287.47 76.6891 287.997 76.6891 288.688V293H75.1071V288.688C75.1071 287.997 74.9345 287.47 74.5891 287.106C74.2438 286.733 73.7725 286.546 73.1751 286.546C72.5778 286.546 72.1018 286.733 71.7471 287.106C71.4018 287.47 71.2291 287.997 71.2291 288.688V293H69.6331V285.286H71.2291V286.168C71.4905 285.851 71.8218 285.603 72.2231 285.426C72.6245 285.249 73.0538 285.16 73.5111 285.16C74.1271 285.16 74.6778 285.291 75.1631 285.552C75.6485 285.813 76.0218 286.191 76.2831 286.686C76.5165 286.219 76.8805 285.851 77.3751 285.58C77.8698 285.3 78.4018 285.16 78.9711 285.16ZM90.97 288.954C90.97 289.243 90.9513 289.505 90.914 289.738H85.02C85.0667 290.354 85.2953 290.849 85.706 291.222C86.1167 291.595 86.6207 291.782 87.218 291.782C88.0767 291.782 88.6833 291.423 89.038 290.704H90.76C90.5267 291.413 90.102 291.997 89.486 292.454C88.8793 292.902 88.1233 293.126 87.218 293.126C86.4807 293.126 85.818 292.963 85.23 292.636C84.6513 292.3 84.194 291.833 83.858 291.236C83.5313 290.629 83.368 289.929 83.368 289.136C83.368 288.343 83.5267 287.647 83.844 287.05C84.1707 286.443 84.6233 285.977 85.202 285.65C85.79 285.323 86.462 285.16 87.218 285.16C87.946 285.16 88.5947 285.319 89.164 285.636C89.7333 285.953 90.1767 286.401 90.494 286.98C90.8113 287.549 90.97 288.207 90.97 288.954ZM89.304 288.45C89.2947 287.862 89.0847 287.391 88.674 287.036C88.2633 286.681 87.7547 286.504 87.148 286.504C86.5973 286.504 86.126 286.681 85.734 287.036C85.342 287.381 85.1087 287.853 85.034 288.45H89.304ZM95.6066 293.126C94.8786 293.126 94.2206 292.963 93.6326 292.636C93.0446 292.3 92.5826 291.833 92.2466 291.236C91.9106 290.629 91.7426 289.929 91.7426 289.136C91.7426 288.352 91.9153 287.657 92.2606 287.05C92.606 286.443 93.0773 285.977 93.6746 285.65C94.272 285.323 94.9393 285.16 95.6766 285.16C96.414 285.16 97.0813 285.323 97.6786 285.65C98.276 285.977 98.7473 286.443 99.0926 287.05C99.438 287.657 99.6106 288.352 99.6106 289.136C99.6106 289.92 99.4333 290.615 99.0786 291.222C98.724 291.829 98.2386 292.3 97.6226 292.636C97.016 292.963 96.344 293.126 95.6066 293.126ZM95.6066 291.74C96.0173 291.74 96.4 291.642 96.7546 291.446C97.1186 291.25 97.4126 290.956 97.6366 290.564C97.8606 290.172 97.9726 289.696 97.9726 289.136C97.9726 288.576 97.8653 288.105 97.6506 287.722C97.436 287.33 97.1513 287.036 96.7966 286.84C96.442 286.644 96.0593 286.546 95.6486 286.546C95.238 286.546 94.8553 286.644 94.5006 286.84C94.1553 287.036 93.88 287.33 93.6746 287.722C93.4693 288.105 93.3666 288.576 93.3666 289.136C93.3666 289.967 93.5766 290.611 93.9966 291.068C94.426 291.516 94.9626 291.74 95.6066 291.74ZM111.268 285.286L108.874 293H107.194L105.64 287.302L104.086 293H102.406L99.9984 285.286H101.622L103.232 291.488L104.87 285.286H106.536L108.104 291.46L109.7 285.286H111.268ZM114.981 293.126C114.374 293.126 113.828 293.019 113.343 292.804C112.867 292.58 112.489 292.281 112.209 291.908C111.929 291.525 111.78 291.101 111.761 290.634H113.413C113.441 290.961 113.595 291.236 113.875 291.46C114.164 291.675 114.524 291.782 114.953 291.782C115.401 291.782 115.746 291.698 115.989 291.53C116.241 291.353 116.367 291.129 116.367 290.858C116.367 290.569 116.227 290.354 115.947 290.214C115.676 290.074 115.242 289.92 114.645 289.752C114.066 289.593 113.595 289.439 113.231 289.29C112.867 289.141 112.55 288.912 112.279 288.604C112.018 288.296 111.887 287.89 111.887 287.386C111.887 286.975 112.008 286.602 112.251 286.266C112.494 285.921 112.839 285.65 113.287 285.454C113.744 285.258 114.267 285.16 114.855 285.16C115.732 285.16 116.437 285.384 116.969 285.832C117.51 286.271 117.8 286.873 117.837 287.638H116.241C116.213 287.293 116.073 287.017 115.821 286.812C115.569 286.607 115.228 286.504 114.799 286.504C114.379 286.504 114.057 286.583 113.833 286.742C113.609 286.901 113.497 287.111 113.497 287.372C113.497 287.577 113.572 287.75 113.721 287.89C113.87 288.03 114.052 288.142 114.267 288.226C114.482 288.301 114.799 288.399 115.219 288.52C115.779 288.669 116.236 288.823 116.591 288.982C116.955 289.131 117.268 289.355 117.529 289.654C117.79 289.953 117.926 290.349 117.935 290.844C117.935 291.283 117.814 291.675 117.571 292.02C117.328 292.365 116.983 292.636 116.535 292.832C116.096 293.028 115.578 293.126 114.981 293.126Z" fill="#FF6161"/>
</g>
<defs>
<filter id="filter0_d_5193_27312" x="0" y="0" width="337" height="404" filterUnits="userSpaceOnUse" color-interpolation-filters="sRGB">
<feFlood flood-opacity="0" result="BackgroundImageFix"/>
<feColorMatrix in="SourceAlpha" type="matrix" values="0 0 0 0 0 0 0 0 0 0 0 0 0 0 0 0 0 0 127 0" result="hardAlpha"/>
<feOffset/>
<feGaussianBlur stdDeviation="7"/>
<feComposite in2="hardAlpha" operator="out"/>
<feColorMatrix type="matrix" values="0 0 0 0 0.172549 0 0 0 0 0.176471 0 0 0 0 0.219608 0 0 0 0.14 0"/>
<feBlend mode="normal" in2="BackgroundImageFix" result="effect1_dropShadow_5193_27312"/>
<feBlend mode="normal" in="SourceGraphic" in2="effect1_dropShadow_5193_27312" result="shape"/>
</filter>
</defs>
</svg>
