<svg width="10" height="8" viewBox="0 0 10 8" fill="none" xmlns="http://www.w3.org/2000/svg">
<path d="M1 8C0.725 8 0.489667 7.90217 0.294 7.7065C0.0983334 7.51083 0.000333333 7.27533 0 7V1C0 0.725 0.098 0.489667 0.294 0.294C0.49 0.0983332 0.725333 0.000333333 1 0H9C9.275 0 9.5105 0.0979999 9.7065 0.294C9.9025 0.49 10.0003 0.725333 10 1V7C10 7.275 9.90217 7.5105 9.7065 7.7065C9.51083 7.9025 9.27533 8.00033 9 8H1ZM9 2L5.2625 4.3375C5.22083 4.3625 5.17717 4.38133 5.1315 4.394C5.08583 4.40667 5.042 4.41283 5 4.4125C4.958 4.41217 4.91433 4.406 4.869 4.394C4.82367 4.382 4.77983 4.36317 4.7375 4.3375L1 2V7H9V2ZM5 3.5L9 1H1L5 3.5ZM1 2.125V1.3875V1.4V1.394V2.125Z" fill="white"/>
</svg>
