<svg width="280" height="190" viewBox="0 0 280 190" fill="none" xmlns="http://www.w3.org/2000/svg">
<path d="M58.9582 2.484L53.3022 22H50.4462L45.9102 6.292L41.2062 22L38.3782 22.028L32.9182 2.484H35.6342L39.8902 19.032L44.5942 2.484H47.4502L51.9302 18.976L56.2142 2.484H58.9582ZM75.1866 13.74C75.1866 14.2253 75.1586 14.7387 75.1026 15.28H62.8386C62.932 16.792 63.4453 17.9773 64.3786 18.836C65.3306 19.676 66.4786 20.096 67.8226 20.096C68.924 20.096 69.8386 19.844 70.5666 19.34C71.3133 18.8173 71.836 18.1267 72.1346 17.268H74.8786C74.468 18.7427 73.6466 19.9467 72.4146 20.88C71.1826 21.7947 69.652 22.252 67.8226 22.252C66.3666 22.252 65.06 21.9253 63.9026 21.272C62.764 20.6187 61.868 19.6947 61.2146 18.5C60.5613 17.2867 60.2346 15.8867 60.2346 14.3C60.2346 12.7133 60.552 11.3227 61.1866 10.128C61.8213 8.93333 62.708 8.01867 63.8466 7.384C65.004 6.73067 66.3293 6.404 67.8226 6.404C69.2786 6.404 70.5666 6.72133 71.6866 7.356C72.8066 7.99067 73.6653 8.868 74.2626 9.988C74.8786 11.0893 75.1866 12.34 75.1866 13.74ZM72.5546 13.208C72.5546 12.2373 72.34 11.4067 71.9106 10.716C71.4813 10.0067 70.8933 9.47467 70.1466 9.12C69.4186 8.74667 68.6066 8.56 67.7106 8.56C66.4226 8.56 65.3213 8.97067 64.4066 9.792C63.5106 10.6133 62.9973 11.752 62.8666 13.208H72.5546ZM78.3819 2.484H81.2099L78.5219 8.84H76.7299L78.3819 2.484ZM86.1029 9.148C86.5509 8.27067 87.1856 7.58933 88.0069 7.104C88.8469 6.61867 89.8642 6.376 91.0589 6.376V9.008H90.3869C87.5309 9.008 86.1029 10.5573 86.1029 13.656V22H83.5549V6.656H86.1029V9.148ZM107.44 13.74C107.44 14.2253 107.412 14.7387 107.356 15.28H95.0922C95.1855 16.792 95.6989 17.9773 96.6322 18.836C97.5842 19.676 98.7322 20.096 100.076 20.096C101.178 20.096 102.092 19.844 102.82 19.34C103.567 18.8173 104.09 18.1267 104.388 17.268H107.132C106.722 18.7427 105.9 19.9467 104.668 20.88C103.436 21.7947 101.906 22.252 100.076 22.252C98.6202 22.252 97.3135 21.9253 96.1562 21.272C95.0175 20.6187 94.1215 19.6947 93.4682 18.5C92.8149 17.2867 92.4882 15.8867 92.4882 14.3C92.4882 12.7133 92.8055 11.3227 93.4402 10.128C94.0749 8.93333 94.9615 8.01867 96.1002 7.384C97.2575 6.73067 98.5829 6.404 100.076 6.404C101.532 6.404 102.82 6.72133 103.94 7.356C105.06 7.99067 105.919 8.868 106.516 9.988C107.132 11.0893 107.44 12.34 107.44 13.74ZM104.808 13.208C104.808 12.2373 104.594 11.4067 104.164 10.716C103.735 10.0067 103.147 9.47467 102.4 9.12C101.672 8.74667 100.86 8.56 99.9642 8.56C98.6762 8.56 97.5749 8.97067 96.6602 9.792C95.7642 10.6133 95.2509 11.752 95.1202 13.208H104.808ZM116.196 14.272C116.196 12.704 116.514 11.332 117.148 10.156C117.783 8.96133 118.651 8.03733 119.752 7.384C120.872 6.73067 122.114 6.404 123.476 6.404C124.82 6.404 125.987 6.69333 126.976 7.272C127.966 7.85067 128.703 8.57867 129.188 9.456V6.656H131.764V22H129.188V19.144C128.684 20.04 127.928 20.7867 126.92 21.384C125.931 21.9627 124.774 22.252 123.448 22.252C122.086 22.252 120.854 21.916 119.752 21.244C118.651 20.572 117.783 19.6293 117.148 18.416C116.514 17.2027 116.196 15.8213 116.196 14.272ZM129.188 14.3C129.188 13.1427 128.955 12.1347 128.488 11.276C128.022 10.4173 127.387 9.764 126.584 9.316C125.8 8.84933 124.932 8.616 123.98 8.616C123.028 8.616 122.16 8.84 121.376 9.288C120.592 9.736 119.967 10.3893 119.5 11.248C119.034 12.1067 118.8 13.1147 118.8 14.272C118.8 15.448 119.034 16.4747 119.5 17.352C119.967 18.2107 120.592 18.8733 121.376 19.34C122.16 19.788 123.028 20.012 123.98 20.012C124.932 20.012 125.8 19.788 126.584 19.34C127.387 18.8733 128.022 18.2107 128.488 17.352C128.955 16.4747 129.188 15.4573 129.188 14.3ZM145.523 8.756V17.8C145.523 18.5467 145.682 19.0787 145.999 19.396C146.316 19.6947 146.867 19.844 147.651 19.844H149.527V22H147.231C145.812 22 144.748 21.6733 144.039 21.02C143.33 20.3667 142.975 19.2933 142.975 17.8V8.756H140.987V6.656H142.975V2.792H145.523V6.656H149.527V8.756H145.523ZM166.054 13.74C166.054 14.2253 166.026 14.7387 165.97 15.28H153.706C153.8 16.792 154.313 17.9773 155.246 18.836C156.198 19.676 157.346 20.096 158.69 20.096C159.792 20.096 160.706 19.844 161.434 19.34C162.181 18.8173 162.704 18.1267 163.002 17.268H165.746C165.336 18.7427 164.514 19.9467 163.282 20.88C162.05 21.7947 160.52 22.252 158.69 22.252C157.234 22.252 155.928 21.9253 154.77 21.272C153.632 20.6187 152.736 19.6947 152.082 18.5C151.429 17.2867 151.102 15.8867 151.102 14.3C151.102 12.7133 151.42 11.3227 152.054 10.128C152.689 8.93333 153.576 8.01867 154.714 7.384C155.872 6.73067 157.197 6.404 158.69 6.404C160.146 6.404 161.434 6.72133 162.554 7.356C163.674 7.99067 164.533 8.868 165.13 9.988C165.746 11.0893 166.054 12.34 166.054 13.74ZM163.422 13.208C163.422 12.2373 163.208 11.4067 162.778 10.716C162.349 10.0067 161.761 9.47467 161.014 9.12C160.286 8.74667 159.474 8.56 158.578 8.56C157.29 8.56 156.189 8.97067 155.274 9.792C154.378 10.6133 153.865 11.752 153.734 13.208H163.422ZM167.906 14.272C167.906 12.704 168.223 11.332 168.858 10.156C169.492 8.96133 170.36 8.03733 171.462 7.384C172.582 6.73067 173.823 6.404 175.186 6.404C176.53 6.404 177.696 6.69333 178.686 7.272C179.675 7.85067 180.412 8.57867 180.898 9.456V6.656H183.474V22H180.898V19.144C180.394 20.04 179.638 20.7867 178.63 21.384C177.64 21.9627 176.483 22.252 175.158 22.252C173.795 22.252 172.563 21.916 171.462 21.244C170.36 20.572 169.492 19.6293 168.858 18.416C168.223 17.2027 167.906 15.8213 167.906 14.272ZM180.898 14.3C180.898 13.1427 180.664 12.1347 180.198 11.276C179.731 10.4173 179.096 9.764 178.294 9.316C177.51 8.84933 176.642 8.616 175.69 8.616C174.738 8.616 173.87 8.84 173.086 9.288C172.302 9.736 171.676 10.3893 171.21 11.248C170.743 12.1067 170.51 13.1147 170.51 14.272C170.51 15.448 170.743 16.4747 171.21 17.352C171.676 18.2107 172.302 18.8733 173.086 19.34C173.87 19.788 174.738 20.012 175.69 20.012C176.642 20.012 177.51 19.788 178.294 19.34C179.096 18.8733 179.731 18.2107 180.198 17.352C180.664 16.4747 180.898 15.4573 180.898 14.3ZM205.671 6.376C206.866 6.376 207.93 6.628 208.863 7.132C209.797 7.61733 210.534 8.35467 211.075 9.344C211.617 10.3333 211.887 11.5373 211.887 12.956V22H209.367V13.32C209.367 11.7893 208.985 10.6227 208.219 9.82C207.473 8.99867 206.455 8.588 205.167 8.588C203.842 8.588 202.787 9.01733 202.003 9.876C201.219 10.716 200.827 11.9387 200.827 13.544V22H198.307V13.32C198.307 11.7893 197.925 10.6227 197.159 9.82C196.413 8.99867 195.395 8.588 194.107 8.588C192.782 8.588 191.727 9.01733 190.943 9.876C190.159 10.716 189.767 11.9387 189.767 13.544V22H187.219V6.656H189.767V8.868C190.271 8.06533 190.943 7.44933 191.783 7.02C192.642 6.59067 193.585 6.376 194.611 6.376C195.899 6.376 197.038 6.66533 198.027 7.244C199.017 7.82267 199.754 8.672 200.239 9.792C200.669 8.70933 201.378 7.86933 202.367 7.272C203.357 6.67467 204.458 6.376 205.671 6.376ZM229.104 22.252C227.667 22.252 226.36 21.9253 225.184 21.272C224.027 20.6187 223.112 19.6947 222.44 18.5C221.787 17.2867 221.46 15.8867 221.46 14.3C221.46 12.732 221.796 11.3507 222.468 10.156C223.159 8.94267 224.092 8.01867 225.268 7.384C226.444 6.73067 227.76 6.404 229.216 6.404C230.672 6.404 231.988 6.73067 233.164 7.384C234.34 8.01867 235.264 8.93333 235.936 10.128C236.627 11.3227 236.972 12.7133 236.972 14.3C236.972 15.8867 236.617 17.2867 235.908 18.5C235.217 19.6947 234.275 20.6187 233.08 21.272C231.885 21.9253 230.56 22.252 229.104 22.252ZM229.104 20.012C230.019 20.012 230.877 19.7973 231.68 19.368C232.483 18.9387 233.127 18.2947 233.612 17.436C234.116 16.5773 234.368 15.532 234.368 14.3C234.368 13.068 234.125 12.0227 233.64 11.164C233.155 10.3053 232.52 9.67067 231.736 9.26C230.952 8.83067 230.103 8.616 229.188 8.616C228.255 8.616 227.396 8.83067 226.612 9.26C225.847 9.67067 225.231 10.3053 224.764 11.164C224.297 12.0227 224.064 13.068 224.064 14.3C224.064 15.5507 224.288 16.6053 224.736 17.464C225.203 18.3227 225.819 18.9667 226.584 19.396C227.349 19.8067 228.189 20.012 229.104 20.012ZM246.006 8.756H242.786V22H240.238V8.756H238.25V6.656H240.238V5.564C240.238 3.84667 240.677 2.596 241.554 1.812C242.45 1.00933 243.878 0.607998 245.838 0.607998V2.736C244.718 2.736 243.925 2.96 243.458 3.408C243.01 3.83733 242.786 4.556 242.786 5.564V6.656H246.006V8.756ZM15.5533 49.512C16.076 48.5973 16.8413 47.8507 17.8493 47.272C18.8573 46.6933 20.0053 46.404 21.2933 46.404C22.6746 46.404 23.916 46.7307 25.0173 47.384C26.1186 48.0373 26.9866 48.9613 27.6213 50.156C28.256 51.332 28.5733 52.704 28.5733 54.272C28.5733 55.8213 28.256 57.2027 27.6213 58.416C26.9866 59.6293 26.1093 60.572 24.9893 61.244C23.888 61.916 22.656 62.252 21.2933 62.252C19.968 62.252 18.8013 61.9627 17.7933 61.384C16.804 60.8053 16.0573 60.068 15.5533 59.172V62H13.0053V41.28H15.5533V49.512ZM25.9693 54.272C25.9693 53.1147 25.736 52.1067 25.2693 51.248C24.8026 50.3893 24.168 49.736 23.3653 49.288C22.5813 48.84 21.7133 48.616 20.7613 48.616C19.828 48.616 18.96 48.8493 18.1573 49.316C17.3733 49.764 16.7386 50.4267 16.2533 51.304C15.7866 52.1627 15.5533 53.1613 15.5533 54.3C15.5533 55.4573 15.7866 56.4747 16.2533 57.352C16.7386 58.2107 17.3733 58.8733 18.1573 59.34C18.96 59.788 19.828 60.012 20.7613 60.012C21.7133 60.012 22.5813 59.788 23.3653 59.34C24.168 58.8733 24.8026 58.2107 25.2693 57.352C25.736 56.4747 25.9693 55.448 25.9693 54.272ZM44.9752 46.656V62H42.4272V59.732C41.9418 60.516 41.2605 61.132 40.3832 61.58C39.5245 62.0093 38.5725 62.224 37.5272 62.224C36.3325 62.224 35.2592 61.9813 34.3072 61.496C33.3552 60.992 32.5992 60.2453 32.0392 59.256C31.4978 58.2667 31.2272 57.0627 31.2272 55.644V46.656H33.7472V55.308C33.7472 56.82 34.1298 57.9867 34.8952 58.808C35.6605 59.6107 36.7058 60.012 38.0312 60.012C39.3938 60.012 40.4672 59.592 41.2512 58.752C42.0352 57.912 42.4272 56.6893 42.4272 55.084V46.656H44.9752ZM50.0333 44.164C49.548 44.164 49.1373 43.996 48.8013 43.66C48.4653 43.324 48.2973 42.9133 48.2973 42.428C48.2973 41.9427 48.4653 41.532 48.8013 41.196C49.1373 40.86 49.548 40.692 50.0333 40.692C50.5 40.692 50.892 40.86 51.2093 41.196C51.5453 41.532 51.7133 41.9427 51.7133 42.428C51.7133 42.9133 51.5453 43.324 51.2093 43.66C50.892 43.996 50.5 44.164 50.0333 44.164ZM51.2653 46.656V62H48.7173V46.656H51.2653ZM57.596 41.28V62H55.048V41.28H57.596ZM60.4266 54.272C60.4266 52.704 60.7439 51.332 61.3786 50.156C62.0133 48.9613 62.8813 48.0373 63.9826 47.384C65.1026 46.7307 66.3533 46.404 67.7346 46.404C68.9293 46.404 70.0399 46.684 71.0666 47.244C72.0933 47.7853 72.8773 48.504 73.4186 49.4V41.28H75.9946V62H73.4186V59.116C72.9146 60.0307 72.1679 60.7867 71.1786 61.384C70.1893 61.9627 69.0319 62.252 67.7066 62.252C66.3439 62.252 65.1026 61.916 63.9826 61.244C62.8813 60.572 62.0133 59.6293 61.3786 58.416C60.7439 57.2027 60.4266 55.8213 60.4266 54.272ZM73.4186 54.3C73.4186 53.1427 73.1853 52.1347 72.7186 51.276C72.2519 50.4173 71.6173 49.764 70.8146 49.316C70.0306 48.8493 69.1626 48.616 68.2106 48.616C67.2586 48.616 66.3906 48.84 65.6066 49.288C64.8226 49.736 64.1973 50.3893 63.7306 51.248C63.2639 52.1067 63.0306 53.1147 63.0306 54.272C63.0306 55.448 63.2639 56.4747 63.7306 57.352C64.1973 58.2107 64.8226 58.8733 65.6066 59.34C66.3906 59.788 67.2586 60.012 68.2106 60.012C69.1626 60.012 70.0306 59.788 70.8146 59.34C71.6173 58.8733 72.2519 58.2107 72.7186 57.352C73.1853 56.4747 73.4186 55.4573 73.4186 54.3ZM93.7405 53.74C93.7405 54.2253 93.7125 54.7387 93.6565 55.28H81.3925C81.4858 56.792 81.9991 57.9773 82.9325 58.836C83.8845 59.676 85.0325 60.096 86.3765 60.096C87.4778 60.096 88.3925 59.844 89.1205 59.34C89.8671 58.8173 90.3898 58.1267 90.6885 57.268H93.4325C93.0218 58.7427 92.2005 59.9467 90.9685 60.88C89.7365 61.7947 88.2058 62.252 86.3765 62.252C84.9205 62.252 83.6138 61.9253 82.4565 61.272C81.3178 60.6187 80.4218 59.6947 79.7685 58.5C79.1151 57.2867 78.7885 55.8867 78.7885 54.3C78.7885 52.7133 79.1058 51.3227 79.7405 50.128C80.3751 48.9333 81.2618 48.0187 82.4005 47.384C83.5578 46.7307 84.8831 46.404 86.3765 46.404C87.8325 46.404 89.1205 46.7213 90.2405 47.356C91.3605 47.9907 92.2191 48.868 92.8165 49.988C93.4325 51.0893 93.7405 52.34 93.7405 53.74ZM91.1085 53.208C91.1085 52.2373 90.8938 51.4067 90.4645 50.716C90.0351 50.0067 89.4471 49.4747 88.7005 49.12C87.9725 48.7467 87.1605 48.56 86.2645 48.56C84.9765 48.56 83.8751 48.9707 82.9605 49.792C82.0645 50.6133 81.5511 51.752 81.4205 53.208H91.1085ZM99.0917 49.148C99.5397 48.2707 100.174 47.5893 100.996 47.104C101.836 46.6187 102.853 46.376 104.048 46.376V49.008H103.376C100.52 49.008 99.0917 50.5573 99.0917 53.656V62H96.5437V46.656H99.0917V49.148ZM111.861 62.252C110.685 62.252 109.63 62.056 108.697 61.664C107.764 61.2533 107.026 60.6933 106.485 59.984C105.944 59.256 105.645 58.4253 105.589 57.492H108.221C108.296 58.2573 108.65 58.8827 109.285 59.368C109.938 59.8533 110.788 60.096 111.833 60.096C112.804 60.096 113.569 59.8813 114.129 59.452C114.689 59.0227 114.969 58.4813 114.969 57.828C114.969 57.156 114.67 56.6613 114.073 56.344C113.476 56.008 112.552 55.6813 111.301 55.364C110.162 55.0653 109.229 54.7667 108.501 54.468C107.792 54.1507 107.176 53.6933 106.653 53.096C106.149 52.48 105.897 51.6773 105.897 50.688C105.897 49.904 106.13 49.1853 106.597 48.532C107.064 47.8787 107.726 47.3653 108.585 46.992C109.444 46.6 110.424 46.404 111.525 46.404C113.224 46.404 114.596 46.8333 115.641 47.692C116.686 48.5507 117.246 49.7267 117.321 51.22H114.773C114.717 50.4173 114.39 49.7733 113.793 49.288C113.214 48.8027 112.43 48.56 111.441 48.56C110.526 48.56 109.798 48.756 109.257 49.148C108.716 49.54 108.445 50.0533 108.445 50.688C108.445 51.192 108.604 51.612 108.921 51.948C109.257 52.2653 109.668 52.5267 110.153 52.732C110.657 52.9187 111.348 53.1333 112.225 53.376C113.326 53.6747 114.222 53.9733 114.913 54.272C115.604 54.552 116.192 54.9813 116.677 55.56C117.181 56.1387 117.442 56.8947 117.461 57.828C117.461 58.668 117.228 59.424 116.761 60.096C116.294 60.768 115.632 61.3 114.773 61.692C113.933 62.0653 112.962 62.252 111.861 62.252ZM123.13 58.472L119.994 66.004H118.286L120.33 58.472H123.13ZM131.442 54.272C131.442 52.704 131.759 51.332 132.394 50.156C133.028 48.9613 133.896 48.0373 134.998 47.384C136.118 46.7307 137.368 46.404 138.75 46.404C139.944 46.404 141.055 46.684 142.082 47.244C143.108 47.7853 143.892 48.504 144.434 49.4V41.28H147.01V62H144.434V59.116C143.93 60.0307 143.183 60.7867 142.194 61.384C141.204 61.9627 140.047 62.252 138.722 62.252C137.359 62.252 136.118 61.916 134.998 61.244C133.896 60.572 133.028 59.6293 132.394 58.416C131.759 57.2027 131.442 55.8213 131.442 54.272ZM144.434 54.3C144.434 53.1427 144.2 52.1347 143.734 51.276C143.267 50.4173 142.632 49.764 141.83 49.316C141.046 48.8493 140.178 48.616 139.226 48.616C138.274 48.616 137.406 48.84 136.622 49.288C135.838 49.736 135.212 50.3893 134.746 51.248C134.279 52.1067 134.046 53.1147 134.046 54.272C134.046 55.448 134.279 56.4747 134.746 57.352C135.212 58.2107 135.838 58.8733 136.622 59.34C137.406 59.788 138.274 60.012 139.226 60.012C140.178 60.012 141.046 59.788 141.83 59.34C142.632 58.8733 143.267 58.2107 143.734 57.352C144.2 56.4747 144.434 55.4573 144.434 54.3ZM153.303 49.148C153.751 48.2707 154.386 47.5893 155.207 47.104C156.047 46.6187 157.065 46.376 158.259 46.376V49.008H157.587C154.731 49.008 153.303 50.5573 153.303 53.656V62H150.755V46.656H153.303V49.148ZM174.641 53.74C174.641 54.2253 174.613 54.7387 174.557 55.28H162.293C162.386 56.792 162.899 57.9773 163.833 58.836C164.785 59.676 165.933 60.096 167.277 60.096C168.378 60.096 169.293 59.844 170.021 59.34C170.767 58.8173 171.29 58.1267 171.589 57.268H174.333C173.922 58.7427 173.101 59.9467 171.869 60.88C170.637 61.7947 169.106 62.252 167.277 62.252C165.821 62.252 164.514 61.9253 163.357 61.272C162.218 60.6187 161.322 59.6947 160.669 58.5C160.015 57.2867 159.689 55.8867 159.689 54.3C159.689 52.7133 160.006 51.3227 160.641 50.128C161.275 48.9333 162.162 48.0187 163.301 47.384C164.458 46.7307 165.783 46.404 167.277 46.404C168.733 46.404 170.021 46.7213 171.141 47.356C172.261 47.9907 173.119 48.868 173.717 49.988C174.333 51.0893 174.641 52.34 174.641 53.74ZM172.009 53.208C172.009 52.2373 171.794 51.4067 171.365 50.716C170.935 50.0067 170.347 49.4747 169.601 49.12C168.873 48.7467 168.061 48.56 167.165 48.56C165.877 48.56 164.775 48.9707 163.861 49.792C162.965 50.6133 162.451 51.752 162.321 53.208H172.009ZM176.492 54.272C176.492 52.704 176.809 51.332 177.444 50.156C178.079 48.9613 178.947 48.0373 180.048 47.384C181.168 46.7307 182.409 46.404 183.772 46.404C185.116 46.404 186.283 46.6933 187.272 47.272C188.261 47.8507 188.999 48.5787 189.484 49.456V46.656H192.06V62H189.484V59.144C188.98 60.04 188.224 60.7867 187.216 61.384C186.227 61.9627 185.069 62.252 183.744 62.252C182.381 62.252 181.149 61.916 180.048 61.244C178.947 60.572 178.079 59.6293 177.444 58.416C176.809 57.2027 176.492 55.8213 176.492 54.272ZM189.484 54.3C189.484 53.1427 189.251 52.1347 188.784 51.276C188.317 50.4173 187.683 49.764 186.88 49.316C186.096 48.8493 185.228 48.616 184.276 48.616C183.324 48.616 182.456 48.84 181.672 49.288C180.888 49.736 180.263 50.3893 179.796 51.248C179.329 52.1067 179.096 53.1147 179.096 54.272C179.096 55.448 179.329 56.4747 179.796 57.352C180.263 58.2107 180.888 58.8733 181.672 59.34C182.456 59.788 183.324 60.012 184.276 60.012C185.228 60.012 186.096 59.788 186.88 59.34C187.683 58.8733 188.317 58.2107 188.784 57.352C189.251 56.4747 189.484 55.4573 189.484 54.3ZM214.258 46.376C215.453 46.376 216.517 46.628 217.45 47.132C218.383 47.6173 219.121 48.3547 219.662 49.344C220.203 50.3333 220.474 51.5373 220.474 52.956V62H217.954V53.32C217.954 51.7893 217.571 50.6227 216.806 49.82C216.059 48.9987 215.042 48.588 213.754 48.588C212.429 48.588 211.374 49.0173 210.59 49.876C209.806 50.716 209.414 51.9387 209.414 53.544V62H206.894V53.32C206.894 51.7893 206.511 50.6227 205.746 49.82C204.999 48.9987 203.982 48.588 202.694 48.588C201.369 48.588 200.314 49.0173 199.53 49.876C198.746 50.716 198.354 51.9387 198.354 53.544V62H195.806V46.656H198.354V48.868C198.858 48.0653 199.53 47.4493 200.37 47.02C201.229 46.5907 202.171 46.376 203.198 46.376C204.486 46.376 205.625 46.6653 206.614 47.244C207.603 47.8227 208.341 48.672 208.826 49.792C209.255 48.7093 209.965 47.8693 210.954 47.272C211.943 46.6747 213.045 46.376 214.258 46.376ZM238.094 53.74C238.094 54.2253 238.066 54.7387 238.01 55.28H225.746C225.839 56.792 226.352 57.9773 227.286 58.836C228.238 59.676 229.386 60.096 230.73 60.096C231.831 60.096 232.746 59.844 233.474 59.34C234.22 58.8173 234.743 58.1267 235.042 57.268H237.786C237.375 58.7427 236.554 59.9467 235.322 60.88C234.09 61.7947 232.559 62.252 230.73 62.252C229.274 62.252 227.967 61.9253 226.81 61.272C225.671 60.6187 224.775 59.6947 224.122 58.5C223.468 57.2867 223.142 55.8867 223.142 54.3C223.142 52.7133 223.459 51.3227 224.094 50.128C224.728 48.9333 225.615 48.0187 226.754 47.384C227.911 46.7307 229.236 46.404 230.73 46.404C232.186 46.404 233.474 46.7213 234.594 47.356C235.714 47.9907 236.572 48.868 237.17 49.988C237.786 51.0893 238.094 52.34 238.094 53.74ZM235.462 53.208C235.462 52.2373 235.247 51.4067 234.818 50.716C234.388 50.0067 233.8 49.4747 233.054 49.12C232.326 48.7467 231.514 48.56 230.618 48.56C229.33 48.56 228.228 48.9707 227.314 49.792C226.418 50.6133 225.904 51.752 225.774 53.208H235.462ZM243.445 49.148C243.893 48.2707 244.528 47.5893 245.349 47.104C246.189 46.6187 247.206 46.376 248.401 46.376V49.008H247.729C244.873 49.008 243.445 50.5573 243.445 53.656V62H240.897V46.656H243.445V49.148ZM256.214 62.252C255.038 62.252 253.984 62.056 253.05 61.664C252.117 61.2533 251.38 60.6933 250.838 59.984C250.297 59.256 249.998 58.4253 249.942 57.492H252.574C252.649 58.2573 253.004 58.8827 253.638 59.368C254.292 59.8533 255.141 60.096 256.186 60.096C257.157 60.096 257.922 59.8813 258.482 59.452C259.042 59.0227 259.322 58.4813 259.322 57.828C259.322 57.156 259.024 56.6613 258.426 56.344C257.829 56.008 256.905 55.6813 255.654 55.364C254.516 55.0653 253.582 54.7667 252.854 54.468C252.145 54.1507 251.529 53.6933 251.006 53.096C250.502 52.48 250.25 51.6773 250.25 50.688C250.25 49.904 250.484 49.1853 250.95 48.532C251.417 47.8787 252.08 47.3653 252.938 46.992C253.797 46.6 254.777 46.404 255.878 46.404C257.577 46.404 258.949 46.8333 259.994 47.692C261.04 48.5507 261.6 49.7267 261.674 51.22H259.126C259.07 50.4173 258.744 49.7733 258.146 49.288C257.568 48.8027 256.784 48.56 255.794 48.56C254.88 48.56 254.152 48.756 253.61 49.148C253.069 49.54 252.798 50.0533 252.798 50.688C252.798 51.192 252.957 51.612 253.274 51.948C253.61 52.2653 254.021 52.5267 254.506 52.732C255.01 52.9187 255.701 53.1333 256.578 53.376C257.68 53.6747 258.576 53.9733 259.266 54.272C259.957 54.552 260.545 54.9813 261.03 55.56C261.534 56.1387 261.796 56.8947 261.814 57.828C261.814 58.668 261.581 59.424 261.114 60.096C260.648 60.768 259.985 61.3 259.126 61.692C258.286 62.0653 257.316 62.252 256.214 62.252ZM267.483 58.472L264.347 66.004H262.639L264.683 58.472H267.483ZM27.333 94.272C27.333 92.704 27.6503 91.332 28.285 90.156C28.9196 88.9613 29.7876 88.0373 30.889 87.384C32.009 86.7307 33.2503 86.404 34.613 86.404C35.957 86.404 37.1237 86.6933 38.113 87.272C39.1023 87.8507 39.8397 88.5787 40.325 89.456V86.656H42.901V102H40.325V99.144C39.821 100.04 39.065 100.787 38.057 101.384C37.0676 101.963 35.9103 102.252 34.585 102.252C33.2223 102.252 31.9903 101.916 30.889 101.244C29.7876 100.572 28.9196 99.6293 28.285 98.416C27.6503 97.2027 27.333 95.8213 27.333 94.272ZM40.325 94.3C40.325 93.1427 40.0916 92.1347 39.625 91.276C39.1583 90.4173 38.5236 89.764 37.721 89.316C36.937 88.8493 36.069 88.616 35.117 88.616C34.165 88.616 33.297 88.84 32.513 89.288C31.729 89.736 31.1036 90.3893 30.637 91.248C30.1703 92.1067 29.937 93.1147 29.937 94.272C29.937 95.448 30.1703 96.4747 30.637 97.352C31.1036 98.2107 31.729 98.8733 32.513 99.34C33.297 99.788 34.165 100.012 35.117 100.012C36.069 100.012 36.937 99.788 37.721 99.34C38.5236 98.8733 39.1583 98.2107 39.625 97.352C40.0916 96.4747 40.325 95.4573 40.325 94.3ZM54.1229 86.376C55.9895 86.376 57.5015 86.9453 58.6589 88.084C59.8162 89.204 60.3949 90.828 60.3949 92.956V102H57.8749V93.32C57.8749 91.7893 57.4922 90.6227 56.7269 89.82C55.9615 88.9987 54.9162 88.588 53.5909 88.588C52.2469 88.588 51.1735 89.008 50.3709 89.848C49.5869 90.688 49.1949 91.9107 49.1949 93.516V102H46.6469V86.656H49.1949V88.84C49.6989 88.056 50.3802 87.4493 51.2389 87.02C52.1162 86.5907 53.0775 86.376 54.1229 86.376ZM63.045 94.272C63.045 92.704 63.3623 91.332 63.997 90.156C64.6317 88.9613 65.4997 88.0373 66.601 87.384C67.721 86.7307 68.9717 86.404 70.353 86.404C71.5477 86.404 72.6583 86.684 73.685 87.244C74.7117 87.7853 75.4957 88.504 76.037 89.4V81.28H78.613V102H76.037V99.116C75.533 100.031 74.7863 100.787 73.797 101.384C72.8077 101.963 71.6503 102.252 70.325 102.252C68.9623 102.252 67.721 101.916 66.601 101.244C65.4997 100.572 64.6317 99.6293 63.997 98.416C63.3623 97.2027 63.045 95.8213 63.045 94.272ZM76.037 94.3C76.037 93.1427 75.8037 92.1347 75.337 91.276C74.8703 90.4173 74.2357 89.764 73.433 89.316C72.649 88.8493 71.781 88.616 70.829 88.616C69.877 88.616 69.009 88.84 68.225 89.288C67.441 89.736 66.8157 90.3893 66.349 91.248C65.8823 92.1067 65.649 93.1147 65.649 94.272C65.649 95.448 65.8823 96.4747 66.349 97.352C66.8157 98.2107 67.441 98.8733 68.225 99.34C69.009 99.788 69.877 100.012 70.829 100.012C71.781 100.012 72.649 99.788 73.433 99.34C74.2357 98.8733 74.8703 98.2107 75.337 97.352C75.8037 96.4747 76.037 95.4573 76.037 94.3ZM88.0317 92.144C88.0317 90.2027 88.4517 88.476 89.2917 86.964C90.1317 85.4333 91.2984 84.248 92.7917 83.408C94.3037 82.5493 96.0117 82.12 97.9157 82.12C100.249 82.12 102.246 82.736 103.908 83.968C105.569 85.2 106.68 86.88 107.24 89.008H101.976C101.584 88.1867 101.024 87.5613 100.296 87.132C99.5864 86.7027 98.7744 86.488 97.8597 86.488C96.3851 86.488 95.1904 87.0013 94.2757 88.028C93.3611 89.0547 92.9037 90.4267 92.9037 92.144C92.9037 93.8613 93.3611 95.2333 94.2757 96.26C95.1904 97.2867 96.3851 97.8 97.8597 97.8C98.7744 97.8 99.5864 97.5853 100.296 97.156C101.024 96.7267 101.584 96.1013 101.976 95.28H107.24C106.68 97.408 105.569 99.088 103.908 100.32C102.246 101.533 100.249 102.14 97.9157 102.14C96.0117 102.14 94.3037 101.72 92.7917 100.88C91.2984 100.021 90.1317 98.836 89.2917 97.324C88.4517 95.812 88.0317 94.0853 88.0317 92.144ZM121.848 98.528H114.512L113.336 102H108.324L115.436 82.344H120.98L128.092 102H123.024L121.848 98.528ZM120.616 94.832L118.18 87.636L115.772 94.832H120.616ZM143.836 82.344V86.18H138.628V102H133.84V86.18H128.632V82.344H143.836ZM155.841 98.304H162.113V102H151.053V82.344H155.841V98.304ZM173.133 102.196C171.285 102.196 169.586 101.767 168.037 100.908C166.506 100.049 165.283 98.8547 164.369 97.324C163.473 95.7747 163.025 94.0387 163.025 92.116C163.025 90.1933 163.473 88.4667 164.369 86.936C165.283 85.4053 166.506 84.2107 168.037 83.352C169.586 82.4933 171.285 82.064 173.133 82.064C174.981 82.064 176.67 82.4933 178.201 83.352C179.75 84.2107 180.963 85.4053 181.841 86.936C182.737 88.4667 183.185 90.1933 183.185 92.116C183.185 94.0387 182.737 95.7747 181.841 97.324C180.945 98.8547 179.731 100.049 178.201 100.908C176.67 101.767 174.981 102.196 173.133 102.196ZM173.133 97.828C174.701 97.828 175.951 97.3053 176.885 96.26C177.837 95.2147 178.313 93.8333 178.313 92.116C178.313 90.38 177.837 88.9987 176.885 87.972C175.951 86.9267 174.701 86.404 173.133 86.404C171.546 86.404 170.277 86.9173 169.325 87.944C168.391 88.9707 167.925 90.3613 167.925 92.116C167.925 93.852 168.391 95.2427 169.325 96.288C170.277 97.3147 171.546 97.828 173.133 97.828ZM203.74 82.344L196.768 102H190.776L183.804 82.344H188.9L193.772 97.184L198.672 82.344H203.74ZM209.97 86.18V90.156H216.382V93.852H209.97V98.164H217.222V102H205.182V82.344H217.222V86.18H209.97ZM229.794 102L225.706 94.58H224.558V102H219.77V82.344H227.806C229.355 82.344 230.671 82.6147 231.754 83.156C232.855 83.6973 233.677 84.444 234.218 85.396C234.759 86.3293 235.03 87.3747 235.03 88.532C235.03 89.8387 234.657 91.0053 233.91 92.032C233.182 93.0587 232.099 93.7867 230.662 94.216L235.198 102H229.794ZM224.558 91.192H227.526C228.403 91.192 229.057 90.9773 229.486 90.548C229.934 90.1187 230.158 89.512 230.158 88.728C230.158 87.9813 229.934 87.3933 229.486 86.964C229.057 86.5347 228.403 86.32 227.526 86.32H224.558V91.192ZM244.588 102.196C243.15 102.196 241.862 101.963 240.724 101.496C239.585 101.029 238.67 100.339 237.98 99.424C237.308 98.5093 236.953 97.408 236.916 96.12H242.012C242.086 96.848 242.338 97.408 242.768 97.8C243.197 98.1733 243.757 98.36 244.448 98.36C245.157 98.36 245.717 98.2013 246.128 97.884C246.538 97.548 246.744 97.0907 246.744 96.512C246.744 96.0267 246.576 95.6253 246.24 95.308C245.922 94.9907 245.521 94.7293 245.036 94.524C244.569 94.3187 243.897 94.0853 243.02 93.824C241.75 93.432 240.714 93.04 239.912 92.648C239.109 92.256 238.418 91.6773 237.84 90.912C237.261 90.1467 236.972 89.148 236.972 87.916C236.972 86.0867 237.634 84.6587 238.96 83.632C240.285 82.5867 242.012 82.064 244.14 82.064C246.305 82.064 248.05 82.5867 249.376 83.632C250.701 84.6587 251.41 86.096 251.504 87.944H246.324C246.286 87.3093 246.053 86.8147 245.624 86.46C245.194 86.0867 244.644 85.9 243.972 85.9C243.393 85.9 242.926 86.0587 242.572 86.376C242.217 86.6747 242.04 87.1133 242.04 87.692C242.04 88.3267 242.338 88.8213 242.936 89.176C243.533 89.5307 244.466 89.9133 245.736 90.324C247.005 90.7533 248.032 91.164 248.816 91.556C249.618 91.948 250.309 92.5173 250.888 93.264C251.466 94.0107 251.756 94.972 251.756 96.148C251.756 97.268 251.466 98.2853 250.888 99.2C250.328 100.115 249.506 100.843 248.424 101.384C247.341 101.925 246.062 102.196 244.588 102.196ZM0.753225 134.3C0.753225 132.713 1.07056 131.332 1.70523 130.156C2.33989 128.961 3.21723 128.037 4.33722 127.384C5.47589 126.731 6.77323 126.404 8.22922 126.404C10.1146 126.404 11.6639 126.861 12.8772 127.776C14.1092 128.691 14.9212 129.96 15.3132 131.584H12.5692C12.3079 130.651 11.7946 129.913 11.0292 129.372C10.2826 128.831 9.34922 128.56 8.22922 128.56C6.77323 128.56 5.59723 129.064 4.70123 130.072C3.80523 131.061 3.35723 132.471 3.35723 134.3C3.35723 136.148 3.80523 137.576 4.70123 138.584C5.59723 139.592 6.77323 140.096 8.22922 140.096C9.34922 140.096 10.2826 139.835 11.0292 139.312C11.7759 138.789 12.2892 138.043 12.5692 137.072H15.3132C14.9026 138.64 14.0812 139.9 12.8492 140.852C11.6172 141.785 10.0772 142.252 8.22922 142.252C6.77323 142.252 5.47589 141.925 4.33722 141.272C3.21723 140.619 2.33989 139.695 1.70523 138.5C1.07056 137.305 0.753225 135.905 0.753225 134.3ZM20.701 129.148C21.149 128.271 21.7837 127.589 22.605 127.104C23.445 126.619 24.4624 126.376 25.657 126.376V129.008H24.985C22.129 129.008 20.701 130.557 20.701 133.656V142H18.153V126.656H20.701V129.148ZM42.0383 133.74C42.0383 134.225 42.0103 134.739 41.9543 135.28H29.6903C29.7837 136.792 30.297 137.977 31.2303 138.836C32.1823 139.676 33.3303 140.096 34.6743 140.096C35.7757 140.096 36.6903 139.844 37.4183 139.34C38.165 138.817 38.6877 138.127 38.9863 137.268H41.7304C41.3197 138.743 40.4983 139.947 39.2663 140.88C38.0343 141.795 36.5037 142.252 34.6743 142.252C33.2183 142.252 31.9117 141.925 30.7543 141.272C29.6157 140.619 28.7197 139.695 28.0663 138.5C27.413 137.287 27.0863 135.887 27.0863 134.3C27.0863 132.713 27.4037 131.323 28.0383 130.128C28.673 128.933 29.5597 128.019 30.6983 127.384C31.8557 126.731 33.181 126.404 34.6743 126.404C36.1303 126.404 37.4183 126.721 38.5383 127.356C39.6583 127.991 40.517 128.868 41.1143 129.988C41.7303 131.089 42.0383 132.34 42.0383 133.74ZM39.4063 133.208C39.4063 132.237 39.1917 131.407 38.7623 130.716C38.333 130.007 37.745 129.475 36.9983 129.12C36.2703 128.747 35.4583 128.56 34.5623 128.56C33.2743 128.56 32.173 128.971 31.2583 129.792C30.3623 130.613 29.849 131.752 29.7183 133.208H39.4063ZM43.8896 134.272C43.8896 132.704 44.207 131.332 44.8416 130.156C45.4763 128.961 46.3443 128.037 47.4456 127.384C48.5656 126.731 49.807 126.404 51.1696 126.404C52.5136 126.404 53.6803 126.693 54.6696 127.272C55.659 127.851 56.3963 128.579 56.8816 129.456V126.656H59.4576V142H56.8816V139.144C56.3776 140.04 55.6216 140.787 54.6136 141.384C53.6243 141.963 52.467 142.252 51.1416 142.252C49.779 142.252 48.547 141.916 47.4456 141.244C46.3443 140.572 45.4763 139.629 44.8416 138.416C44.207 137.203 43.8896 135.821 43.8896 134.272ZM56.8816 134.3C56.8816 133.143 56.6483 132.135 56.1816 131.276C55.715 130.417 55.0803 129.764 54.2776 129.316C53.4936 128.849 52.6256 128.616 51.6736 128.616C50.7216 128.616 49.8536 128.84 49.0696 129.288C48.2856 129.736 47.6603 130.389 47.1936 131.248C46.727 132.107 46.4936 133.115 46.4936 134.272C46.4936 135.448 46.727 136.475 47.1936 137.352C47.6603 138.211 48.2856 138.873 49.0696 139.34C49.8536 139.788 50.7216 140.012 51.6736 140.012C52.6256 140.012 53.4936 139.788 54.2776 139.34C55.0803 138.873 55.715 138.211 56.1816 137.352C56.6483 136.475 56.8816 135.457 56.8816 134.3ZM66.3115 128.756V137.8C66.3115 138.547 66.4702 139.079 66.7875 139.396C67.1048 139.695 67.6555 139.844 68.4395 139.844H70.3155V142H68.0195C66.6008 142 65.5368 141.673 64.8275 141.02C64.1182 140.367 63.7635 139.293 63.7635 137.8V128.756H61.7755V126.656H63.7635V122.792H66.3115V126.656H70.3155V128.756H66.3115ZM74.1587 124.164C73.6734 124.164 73.2627 123.996 72.9267 123.66C72.5907 123.324 72.4227 122.913 72.4227 122.428C72.4227 121.943 72.5907 121.532 72.9267 121.196C73.2627 120.86 73.6734 120.692 74.1587 120.692C74.6254 120.692 75.0174 120.86 75.3347 121.196C75.6707 121.532 75.8387 121.943 75.8387 122.428C75.8387 122.913 75.6707 123.324 75.3347 123.66C75.0174 123.996 74.6254 124.164 74.1587 124.164ZM75.3907 126.656V142H72.8427V126.656H75.3907ZM86.6493 126.376C88.516 126.376 90.028 126.945 91.1854 128.084C92.3427 129.204 92.9213 130.828 92.9213 132.956V142H90.4013V133.32C90.4013 131.789 90.0187 130.623 89.2533 129.82C88.488 128.999 87.4427 128.588 86.1173 128.588C84.7733 128.588 83.7 129.008 82.8973 129.848C82.1133 130.688 81.7213 131.911 81.7213 133.516V142H79.1733V126.656H81.7213V128.84C82.2253 128.056 82.9067 127.449 83.7653 127.02C84.6427 126.591 85.604 126.376 86.6493 126.376ZM102.852 126.404C104.177 126.404 105.334 126.693 106.324 127.272C107.332 127.851 108.078 128.579 108.564 129.456V126.656H111.14V142.336C111.14 143.736 110.841 144.977 110.244 146.06C109.646 147.161 108.788 148.02 107.668 148.636C106.566 149.252 105.278 149.56 103.804 149.56C101.788 149.56 100.108 149.084 98.7635 148.132C97.4195 147.18 96.6262 145.883 96.3835 144.24H98.9035C99.1835 145.173 99.7622 145.92 100.64 146.48C101.517 147.059 102.572 147.348 103.804 147.348C105.204 147.348 106.342 146.909 107.22 146.032C108.116 145.155 108.564 143.923 108.564 142.336V139.116C108.06 140.012 107.313 140.759 106.324 141.356C105.334 141.953 104.177 142.252 102.852 142.252C101.489 142.252 100.248 141.916 99.1275 141.244C98.0262 140.572 97.1582 139.629 96.5235 138.416C95.8888 137.203 95.5715 135.821 95.5715 134.272C95.5715 132.704 95.8888 131.332 96.5235 130.156C97.1582 128.961 98.0262 128.037 99.1275 127.384C100.248 126.731 101.489 126.404 102.852 126.404ZM108.564 134.3C108.564 133.143 108.33 132.135 107.864 131.276C107.397 130.417 106.762 129.764 105.96 129.316C105.176 128.849 104.308 128.616 103.356 128.616C102.404 128.616 101.536 128.84 100.752 129.288C99.9675 129.736 99.3422 130.389 98.8755 131.248C98.4088 132.107 98.1755 133.115 98.1755 134.272C98.1755 135.448 98.4088 136.475 98.8755 137.352C99.3422 138.211 99.9675 138.873 100.752 139.34C101.536 139.788 102.404 140.012 103.356 140.012C104.308 140.012 105.176 139.788 105.96 139.34C106.762 138.873 107.397 138.211 107.864 137.352C108.33 136.475 108.564 135.457 108.564 134.3ZM135.79 133.74C135.79 134.225 135.762 134.739 135.706 135.28H123.442C123.536 136.792 124.049 137.977 124.982 138.836C125.934 139.676 127.082 140.096 128.426 140.096C129.528 140.096 130.442 139.844 131.17 139.34C131.917 138.817 132.44 138.127 132.738 137.268H135.482C135.072 138.743 134.25 139.947 133.018 140.88C131.786 141.795 130.256 142.252 128.426 142.252C126.97 142.252 125.664 141.925 124.506 141.272C123.368 140.619 122.472 139.695 121.818 138.5C121.165 137.287 120.838 135.887 120.838 134.3C120.838 132.713 121.156 131.323 121.79 130.128C122.425 128.933 123.312 128.019 124.45 127.384C125.608 126.731 126.933 126.404 128.426 126.404C129.882 126.404 131.17 126.721 132.29 127.356C133.41 127.991 134.269 128.868 134.866 129.988C135.482 131.089 135.79 132.34 135.79 133.74ZM133.158 133.208C133.158 132.237 132.944 131.407 132.514 130.716C132.085 130.007 131.497 129.475 130.75 129.12C130.022 128.747 129.21 128.56 128.314 128.56C127.026 128.56 125.925 128.971 125.01 129.792C124.114 130.613 123.601 131.752 123.47 133.208H133.158ZM157.046 126.376C158.24 126.376 159.304 126.628 160.238 127.132C161.171 127.617 161.908 128.355 162.45 129.344C162.991 130.333 163.262 131.537 163.262 132.956V142H160.742V133.32C160.742 131.789 160.359 130.623 159.594 129.82C158.847 128.999 157.83 128.588 156.542 128.588C155.216 128.588 154.162 129.017 153.378 129.876C152.594 130.716 152.202 131.939 152.202 133.544V142H149.682V133.32C149.682 131.789 149.299 130.623 148.534 129.82C147.787 128.999 146.77 128.588 145.482 128.588C144.156 128.588 143.102 129.017 142.318 129.876C141.534 130.716 141.142 131.939 141.142 133.544V142H138.594V126.656H141.142V128.868C141.646 128.065 142.318 127.449 143.158 127.02C144.016 126.591 144.959 126.376 145.986 126.376C147.274 126.376 148.412 126.665 149.402 127.244C150.391 127.823 151.128 128.672 151.614 129.792C152.043 128.709 152.752 127.869 153.742 127.272C154.731 126.675 155.832 126.376 157.046 126.376ZM173.573 142.252C172.136 142.252 170.829 141.925 169.653 141.272C168.496 140.619 167.581 139.695 166.909 138.5C166.256 137.287 165.929 135.887 165.929 134.3C165.929 132.732 166.265 131.351 166.937 130.156C167.628 128.943 168.561 128.019 169.737 127.384C170.913 126.731 172.229 126.404 173.685 126.404C175.141 126.404 176.457 126.731 177.633 127.384C178.809 128.019 179.733 128.933 180.405 130.128C181.096 131.323 181.441 132.713 181.441 134.3C181.441 135.887 181.086 137.287 180.377 138.5C179.686 139.695 178.744 140.619 177.549 141.272C176.354 141.925 175.029 142.252 173.573 142.252ZM173.573 140.012C174.488 140.012 175.346 139.797 176.149 139.368C176.952 138.939 177.596 138.295 178.081 137.436C178.585 136.577 178.837 135.532 178.837 134.3C178.837 133.068 178.594 132.023 178.109 131.164C177.624 130.305 176.989 129.671 176.205 129.26C175.421 128.831 174.572 128.616 173.657 128.616C172.724 128.616 171.865 128.831 171.081 129.26C170.316 129.671 169.7 130.305 169.233 131.164C168.766 132.023 168.533 133.068 168.533 134.3C168.533 135.551 168.757 136.605 169.205 137.464C169.672 138.323 170.288 138.967 171.053 139.396C171.818 139.807 172.658 140.012 173.573 140.012ZM187.339 128.756V137.8C187.339 138.547 187.498 139.079 187.815 139.396C188.133 139.695 188.683 139.844 189.467 139.844H191.343V142H189.047C187.629 142 186.565 141.673 185.855 141.02C185.146 140.367 184.791 139.293 184.791 137.8V128.756H182.803V126.656H184.791V122.792H187.339V126.656H191.343V128.756H187.339ZM195.187 124.164C194.701 124.164 194.291 123.996 193.955 123.66C193.619 123.324 193.451 122.913 193.451 122.428C193.451 121.943 193.619 121.532 193.955 121.196C194.291 120.86 194.701 120.692 195.187 120.692C195.653 120.692 196.045 120.86 196.363 121.196C196.699 121.532 196.867 121.943 196.867 122.428C196.867 122.913 196.699 123.324 196.363 123.66C196.045 123.996 195.653 124.164 195.187 124.164ZM196.419 126.656V142H193.871V126.656H196.419ZM206.893 142.252C205.456 142.252 204.149 141.925 202.973 141.272C201.816 140.619 200.901 139.695 200.229 138.5C199.576 137.287 199.249 135.887 199.249 134.3C199.249 132.732 199.585 131.351 200.257 130.156C200.948 128.943 201.881 128.019 203.057 127.384C204.233 126.731 205.549 126.404 207.005 126.404C208.461 126.404 209.777 126.731 210.953 127.384C212.129 128.019 213.053 128.933 213.725 130.128C214.416 131.323 214.761 132.713 214.761 134.3C214.761 135.887 214.406 137.287 213.697 138.5C213.006 139.695 212.064 140.619 210.869 141.272C209.675 141.925 208.349 142.252 206.893 142.252ZM206.893 140.012C207.808 140.012 208.666 139.797 209.469 139.368C210.272 138.939 210.916 138.295 211.401 137.436C211.905 136.577 212.157 135.532 212.157 134.3C212.157 133.068 211.914 132.023 211.429 131.164C210.944 130.305 210.309 129.671 209.525 129.26C208.741 128.831 207.892 128.616 206.977 128.616C206.044 128.616 205.185 128.831 204.401 129.26C203.636 129.671 203.02 130.305 202.553 131.164C202.086 132.023 201.853 133.068 201.853 134.3C201.853 135.551 202.077 136.605 202.525 137.464C202.992 138.323 203.608 138.967 204.373 139.396C205.138 139.807 205.978 140.012 206.893 140.012ZM225.027 126.376C226.894 126.376 228.406 126.945 229.563 128.084C230.721 129.204 231.299 130.828 231.299 132.956V142H228.779V133.32C228.779 131.789 228.397 130.623 227.631 129.82C226.866 128.999 225.821 128.588 224.495 128.588C223.151 128.588 222.078 129.008 221.275 129.848C220.491 130.688 220.099 131.911 220.099 133.516V142H217.551V126.656H220.099V128.84C220.603 128.056 221.285 127.449 222.143 127.02C223.021 126.591 223.982 126.376 225.027 126.376ZM233.949 134.272C233.949 132.704 234.267 131.332 234.901 130.156C235.536 128.961 236.404 128.037 237.505 127.384C238.625 126.731 239.867 126.404 241.229 126.404C242.573 126.404 243.74 126.693 244.729 127.272C245.719 127.851 246.456 128.579 246.941 129.456V126.656H249.517V142H246.941V139.144C246.437 140.04 245.681 140.787 244.673 141.384C243.684 141.963 242.527 142.252 241.201 142.252C239.839 142.252 238.607 141.916 237.505 141.244C236.404 140.572 235.536 139.629 234.901 138.416C234.267 137.203 233.949 135.821 233.949 134.272ZM246.941 134.3C246.941 133.143 246.708 132.135 246.241 131.276C245.775 130.417 245.14 129.764 244.337 129.316C243.553 128.849 242.685 128.616 241.733 128.616C240.781 128.616 239.913 128.84 239.129 129.288C238.345 129.736 237.72 130.389 237.253 131.248C236.787 132.107 236.553 133.115 236.553 134.272C236.553 135.448 236.787 136.475 237.253 137.352C237.72 138.211 238.345 138.873 239.129 139.34C239.913 139.788 240.781 140.012 241.733 140.012C242.685 140.012 243.553 139.788 244.337 139.34C245.14 138.873 245.775 138.211 246.241 137.352C246.708 136.475 246.941 135.457 246.941 134.3ZM255.811 121.28V142H253.263V121.28H255.811ZM262.142 121.28V142H259.594V121.28H262.142ZM279.141 126.656L269.901 149.224H267.269L270.293 141.832L264.105 126.656H266.933L271.749 139.088L276.509 126.656H279.141ZM62.4064 164.164C61.921 164.164 61.5104 163.996 61.1744 163.66C60.8384 163.324 60.6704 162.913 60.6704 162.428C60.6704 161.943 60.8384 161.532 61.1744 161.196C61.5104 160.86 61.921 160.692 62.4064 160.692C62.873 160.692 63.265 160.86 63.5824 161.196C63.9184 161.532 64.0864 161.943 64.0864 162.428C64.0864 162.913 63.9184 163.324 63.5824 163.66C63.265 163.996 62.873 164.164 62.4064 164.164ZM63.6384 166.656V182H61.0904V166.656H63.6384ZM74.897 166.376C76.7637 166.376 78.2757 166.945 79.433 168.084C80.5903 169.204 81.169 170.828 81.169 172.956V182H78.649V173.32C78.649 171.789 78.2663 170.623 77.501 169.82C76.7357 168.999 75.6903 168.588 74.365 168.588C73.021 168.588 71.9477 169.008 71.145 169.848C70.361 170.688 69.969 171.911 69.969 173.516V182H67.421V166.656H69.969V168.84C70.473 168.056 71.1543 167.449 72.013 167.02C72.8903 166.591 73.8517 166.376 74.897 166.376ZM87.8792 168.756V177.8C87.8792 178.547 88.0378 179.079 88.3552 179.396C88.6725 179.695 89.2232 179.844 90.0072 179.844H91.8832V182H89.5872C88.1685 182 87.1045 181.673 86.3952 181.02C85.6858 180.367 85.3312 179.293 85.3312 177.8V168.756H83.3432V166.656H85.3312V162.792H87.8792V166.656H91.8832V168.756H87.8792ZM108.41 173.74C108.41 174.225 108.382 174.739 108.326 175.28H96.0624C96.1557 176.792 96.669 177.977 97.6024 178.836C98.5544 179.676 99.7024 180.096 101.046 180.096C102.148 180.096 103.062 179.844 103.79 179.34C104.537 178.817 105.06 178.127 105.358 177.268H108.102C107.692 178.743 106.87 179.947 105.638 180.88C104.406 181.795 102.876 182.252 101.046 182.252C99.5904 182.252 98.2837 181.925 97.1264 181.272C95.9877 180.619 95.0917 179.695 94.4384 178.5C93.785 177.287 93.4584 175.887 93.4584 174.3C93.4584 172.713 93.7757 171.323 94.4104 170.128C95.045 168.933 95.9317 168.019 97.0704 167.384C98.2277 166.731 99.553 166.404 101.046 166.404C102.502 166.404 103.79 166.721 104.91 167.356C106.03 167.991 106.889 168.868 107.486 169.988C108.102 171.089 108.41 172.34 108.41 173.74ZM105.778 173.208C105.778 172.237 105.564 171.407 105.134 170.716C104.705 170.007 104.117 169.475 103.37 169.12C102.642 168.747 101.83 168.56 100.934 168.56C99.6464 168.56 98.545 168.971 97.6304 169.792C96.7344 170.613 96.221 171.752 96.0904 173.208H105.778ZM113.762 161.28V182H111.214V161.28H113.762ZM120.092 161.28V182H117.544V161.28H120.092ZM125.191 164.164C124.706 164.164 124.295 163.996 123.959 163.66C123.623 163.324 123.455 162.913 123.455 162.428C123.455 161.943 123.623 161.532 123.959 161.196C124.295 160.86 124.706 160.692 125.191 160.692C125.658 160.692 126.05 160.86 126.367 161.196C126.703 161.532 126.871 161.943 126.871 162.428C126.871 162.913 126.703 163.324 126.367 163.66C126.05 163.996 125.658 164.164 125.191 164.164ZM126.423 166.656V182H123.875V166.656H126.423ZM136.534 166.404C137.859 166.404 139.016 166.693 140.006 167.272C141.014 167.851 141.76 168.579 142.246 169.456V166.656H144.822V182.336C144.822 183.736 144.523 184.977 143.926 186.06C143.328 187.161 142.47 188.02 141.35 188.636C140.248 189.252 138.96 189.56 137.486 189.56C135.47 189.56 133.79 189.084 132.446 188.132C131.102 187.18 130.308 185.883 130.066 184.24H132.586C132.866 185.173 133.444 185.92 134.322 186.48C135.199 187.059 136.254 187.348 137.486 187.348C138.886 187.348 140.024 186.909 140.902 186.032C141.798 185.155 142.246 183.923 142.246 182.336V179.116C141.742 180.012 140.995 180.759 140.006 181.356C139.016 181.953 137.859 182.252 136.534 182.252C135.171 182.252 133.93 181.916 132.81 181.244C131.708 180.572 130.84 179.629 130.206 178.416C129.571 177.203 129.254 175.821 129.254 174.272C129.254 172.704 129.571 171.332 130.206 170.156C130.84 168.961 131.708 168.037 132.81 167.384C133.93 166.731 135.171 166.404 136.534 166.404ZM142.246 174.3C142.246 173.143 142.012 172.135 141.546 171.276C141.079 170.417 140.444 169.764 139.642 169.316C138.858 168.849 137.99 168.616 137.038 168.616C136.086 168.616 135.218 168.84 134.434 169.288C133.65 169.736 133.024 170.389 132.558 171.248C132.091 172.107 131.858 173.115 131.858 174.272C131.858 175.448 132.091 176.475 132.558 177.352C133.024 178.211 133.65 178.873 134.434 179.34C135.218 179.788 136.086 180.012 137.038 180.012C137.99 180.012 138.858 179.788 139.642 179.34C140.444 178.873 141.079 178.211 141.546 177.352C142.012 176.475 142.246 175.457 142.246 174.3ZM162.567 173.74C162.567 174.225 162.539 174.739 162.483 175.28H150.219C150.313 176.792 150.826 177.977 151.759 178.836C152.711 179.676 153.859 180.096 155.203 180.096C156.305 180.096 157.219 179.844 157.947 179.34C158.694 178.817 159.217 178.127 159.515 177.268H162.259C161.849 178.743 161.027 179.947 159.795 180.88C158.563 181.795 157.033 182.252 155.203 182.252C153.747 182.252 152.441 181.925 151.283 181.272C150.145 180.619 149.249 179.695 148.595 178.5C147.942 177.287 147.615 175.887 147.615 174.3C147.615 172.713 147.933 171.323 148.567 170.128C149.202 168.933 150.089 168.019 151.227 167.384C152.385 166.731 153.71 166.404 155.203 166.404C156.659 166.404 157.947 166.721 159.067 167.356C160.187 167.991 161.046 168.868 161.643 169.988C162.259 171.089 162.567 172.34 162.567 173.74ZM159.935 173.208C159.935 172.237 159.721 171.407 159.291 170.716C158.862 170.007 158.274 169.475 157.527 169.12C156.799 168.747 155.987 168.56 155.091 168.56C153.803 168.56 152.702 168.971 151.787 169.792C150.891 170.613 150.378 171.752 150.247 173.208H159.935ZM172.847 166.376C174.713 166.376 176.225 166.945 177.383 168.084C178.54 169.204 179.119 170.828 179.119 172.956V182H176.599V173.32C176.599 171.789 176.216 170.623 175.451 169.82C174.685 168.999 173.64 168.588 172.315 168.588C170.971 168.588 169.897 169.008 169.095 169.848C168.311 170.688 167.919 171.911 167.919 173.516V182H165.371V166.656H167.919V168.84C168.423 168.056 169.104 167.449 169.963 167.02C170.84 166.591 171.801 166.376 172.847 166.376ZM185.829 168.756V177.8C185.829 178.547 185.988 179.079 186.305 179.396C186.622 179.695 187.173 179.844 187.957 179.844H189.833V182H187.537C186.118 182 185.054 181.673 184.345 181.02C183.636 180.367 183.281 179.293 183.281 177.8V168.756H181.293V166.656H183.281V162.792H185.829V166.656H189.833V168.756H185.829ZM210.801 177.66H202.289L200.721 182H198.033L205.089 162.596H208.029L215.057 182H212.369L210.801 177.66ZM210.073 175.588L206.545 165.732L203.017 175.588H210.073ZM220.12 162.484V182H217.572V162.484H220.12ZM224.715 182.168C224.229 182.168 223.819 182 223.483 181.664C223.147 181.328 222.979 180.917 222.979 180.432C222.979 179.947 223.147 179.536 223.483 179.2C223.819 178.864 224.229 178.696 224.715 178.696C225.181 178.696 225.573 178.864 225.891 179.2C226.227 179.536 226.395 179.947 226.395 180.432C226.395 180.917 226.227 181.328 225.891 181.664C225.573 182 225.181 182.168 224.715 182.168Z" fill="url(#paint0_linear_5198_29569)"/>
<defs>
<linearGradient id="paint0_linear_5198_29569" x1="-14.2299" y1="-8" x2="345.325" y2="42.1217" gradientUnits="userSpaceOnUse">
<stop stop-color="#FFBC70"/>
<stop offset="0.5" stop-color="#FF7B7B"/>
<stop offset="1" stop-color="#FF52F9"/>
</linearGradient>
</defs>
</svg>
