<svg width="733" height="165" viewBox="0 0 733 165" fill="none" xmlns="http://www.w3.org/2000/svg">
<path d="M156.896 3.726L148.412 33H144.128L137.324 9.438L130.268 33L126.026 33.042L117.836 3.726H121.91L128.294 28.548L135.35 3.726H139.634L146.354 28.464L152.78 3.726H156.896ZM181.239 20.61C181.239 21.338 181.197 22.108 181.113 22.92H162.717C162.857 25.188 163.627 26.966 165.027 28.254C166.455 29.514 168.177 30.144 170.193 30.144C171.845 30.144 173.217 29.766 174.309 29.01C175.429 28.226 176.213 27.19 176.661 25.902H180.777C180.161 28.114 178.929 29.92 177.081 31.32C175.233 32.692 172.937 33.378 170.193 33.378C168.009 33.378 166.049 32.888 164.313 31.908C162.605 30.928 161.261 29.542 160.281 27.75C159.301 25.93 158.811 23.83 158.811 21.45C158.811 19.07 159.287 16.984 160.239 15.192C161.191 13.4 162.521 12.028 164.229 11.076C165.965 10.096 167.953 9.606 170.193 9.606C172.377 9.606 174.309 10.082 175.989 11.034C177.669 11.986 178.957 13.302 179.853 14.982C180.777 16.634 181.239 18.51 181.239 20.61ZM177.291 19.812C177.291 18.356 176.969 17.11 176.325 16.074C175.681 15.01 174.799 14.212 173.679 13.68C172.587 13.12 171.369 12.84 170.025 12.84C168.093 12.84 166.441 13.456 165.069 14.688C163.725 15.92 162.955 17.628 162.759 19.812H177.291ZM186.032 3.726H190.274L186.242 13.26H183.554L186.032 3.726ZM197.613 13.722C198.285 12.406 199.237 11.384 200.469 10.656C201.729 9.928 203.255 9.564 205.047 9.564V13.512H204.039C199.755 13.512 197.613 15.836 197.613 20.484V33H193.791V9.984H197.613V13.722ZM229.619 20.61C229.619 21.338 229.577 22.108 229.493 22.92H211.097C211.237 25.188 212.007 26.966 213.407 28.254C214.835 29.514 216.557 30.144 218.573 30.144C220.225 30.144 221.597 29.766 222.689 29.01C223.809 28.226 224.593 27.19 225.041 25.902H229.157C228.541 28.114 227.309 29.92 225.461 31.32C223.613 32.692 221.317 33.378 218.573 33.378C216.389 33.378 214.429 32.888 212.693 31.908C210.985 30.928 209.641 29.542 208.661 27.75C207.681 25.93 207.191 23.83 207.191 21.45C207.191 19.07 207.667 16.984 208.619 15.192C209.571 13.4 210.901 12.028 212.609 11.076C214.345 10.096 216.333 9.606 218.573 9.606C220.757 9.606 222.689 10.082 224.369 11.034C226.049 11.986 227.337 13.302 228.233 14.982C229.157 16.634 229.619 18.51 229.619 20.61ZM225.671 19.812C225.671 18.356 225.349 17.11 224.705 16.074C224.061 15.01 223.179 14.212 222.059 13.68C220.967 13.12 219.749 12.84 218.405 12.84C216.473 12.84 214.821 13.456 213.449 14.688C212.105 15.92 211.335 17.628 211.139 19.812H225.671ZM242.753 21.408C242.753 19.056 243.229 16.998 244.181 15.234C245.133 13.442 246.435 12.056 248.087 11.076C249.767 10.096 251.629 9.606 253.673 9.606C255.689 9.606 257.439 10.04 258.923 10.908C260.407 11.776 261.513 12.868 262.241 14.184V9.984H266.105V33H262.241V28.716C261.485 30.06 260.351 31.18 258.839 32.076C257.355 32.944 255.619 33.378 253.631 33.378C251.587 33.378 249.739 32.874 248.087 31.866C246.435 30.858 245.133 29.444 244.181 27.624C243.229 25.804 242.753 23.732 242.753 21.408ZM262.241 21.45C262.241 19.714 261.891 18.202 261.191 16.914C260.491 15.626 259.539 14.646 258.335 13.974C257.159 13.274 255.857 12.924 254.429 12.924C253.001 12.924 251.699 13.26 250.523 13.932C249.347 14.604 248.409 15.584 247.709 16.872C247.009 18.16 246.659 19.672 246.659 21.408C246.659 23.172 247.009 24.712 247.709 26.028C248.409 27.316 249.347 28.31 250.523 29.01C251.699 29.682 253.001 30.018 254.429 30.018C255.857 30.018 257.159 29.682 258.335 29.01C259.539 28.31 260.491 27.316 261.191 26.028C261.891 24.712 262.241 23.186 262.241 21.45ZM286.743 13.134V26.7C286.743 27.82 286.981 28.618 287.457 29.094C287.933 29.542 288.759 29.766 289.935 29.766H292.749V33H289.305C287.177 33 285.581 32.51 284.517 31.53C283.453 30.55 282.921 28.94 282.921 26.7V13.134H279.939V9.984H282.921V4.188H286.743V9.984H292.749V13.134H286.743ZM317.54 20.61C317.54 21.338 317.498 22.108 317.414 22.92H299.018C299.158 25.188 299.928 26.966 301.328 28.254C302.756 29.514 304.478 30.144 306.494 30.144C308.146 30.144 309.518 29.766 310.61 29.01C311.73 28.226 312.514 27.19 312.962 25.902H317.078C316.462 28.114 315.23 29.92 313.382 31.32C311.534 32.692 309.238 33.378 306.494 33.378C304.31 33.378 302.35 32.888 300.614 31.908C298.906 30.928 297.562 29.542 296.582 27.75C295.602 25.93 295.112 23.83 295.112 21.45C295.112 19.07 295.588 16.984 296.54 15.192C297.492 13.4 298.822 12.028 300.53 11.076C302.266 10.096 304.254 9.606 306.494 9.606C308.678 9.606 310.61 10.082 312.29 11.034C313.97 11.986 315.258 13.302 316.154 14.982C317.078 16.634 317.54 18.51 317.54 20.61ZM313.592 19.812C313.592 18.356 313.27 17.11 312.626 16.074C311.982 15.01 311.1 14.212 309.98 13.68C308.888 13.12 307.67 12.84 306.326 12.84C304.394 12.84 302.742 13.456 301.37 14.688C300.026 15.92 299.256 17.628 299.06 19.812H313.592ZM320.317 21.408C320.317 19.056 320.793 16.998 321.745 15.234C322.697 13.442 323.999 12.056 325.651 11.076C327.331 10.096 329.193 9.606 331.237 9.606C333.253 9.606 335.003 10.04 336.487 10.908C337.971 11.776 339.077 12.868 339.805 14.184V9.984H343.669V33H339.805V28.716C339.049 30.06 337.915 31.18 336.403 32.076C334.919 32.944 333.183 33.378 331.195 33.378C329.151 33.378 327.303 32.874 325.651 31.866C323.999 30.858 322.697 29.444 321.745 27.624C320.793 25.804 320.317 23.732 320.317 21.408ZM339.805 21.45C339.805 19.714 339.455 18.202 338.755 16.914C338.055 15.626 337.103 14.646 335.899 13.974C334.723 13.274 333.421 12.924 331.993 12.924C330.565 12.924 329.263 13.26 328.087 13.932C326.911 14.604 325.973 15.584 325.273 16.872C324.573 18.16 324.223 19.672 324.223 21.408C324.223 23.172 324.573 24.712 325.273 26.028C325.973 27.316 326.911 28.31 328.087 29.01C329.263 29.682 330.565 30.018 331.993 30.018C333.421 30.018 334.723 29.682 335.899 29.01C337.103 28.31 338.055 27.316 338.755 26.028C339.455 24.712 339.805 23.186 339.805 21.45ZM376.966 9.564C378.758 9.564 380.354 9.942 381.754 10.698C383.154 11.426 384.26 12.532 385.072 14.016C385.884 15.5 386.29 17.306 386.29 19.434V33H382.51V19.98C382.51 17.684 381.936 15.934 380.788 14.73C379.668 13.498 378.142 12.882 376.21 12.882C374.222 12.882 372.64 13.526 371.464 14.814C370.288 16.074 369.7 17.908 369.7 20.316V33H365.92V19.98C365.92 17.684 365.346 15.934 364.198 14.73C363.078 13.498 361.552 12.882 359.62 12.882C357.632 12.882 356.05 13.526 354.874 14.814C353.698 16.074 353.11 17.908 353.11 20.316V33H349.288V9.984H353.11V13.302C353.866 12.098 354.874 11.174 356.134 10.53C357.422 9.886 358.836 9.564 360.376 9.564C362.308 9.564 364.016 9.998 365.5 10.866C366.984 11.734 368.09 13.008 368.818 14.688C369.462 13.064 370.526 11.804 372.01 10.908C373.494 10.012 375.146 9.564 376.966 9.564ZM412.115 33.378C409.959 33.378 407.999 32.888 406.235 31.908C404.499 30.928 403.127 29.542 402.119 27.75C401.139 25.93 400.649 23.83 400.649 21.45C400.649 19.098 401.153 17.026 402.161 15.234C403.197 13.414 404.597 12.028 406.361 11.076C408.125 10.096 410.099 9.606 412.283 9.606C414.467 9.606 416.441 10.096 418.205 11.076C419.969 12.028 421.355 13.4 422.363 15.192C423.399 16.984 423.917 19.07 423.917 21.45C423.917 23.83 423.385 25.93 422.321 27.75C421.285 29.542 419.871 30.928 418.079 31.908C416.287 32.888 414.299 33.378 412.115 33.378ZM412.115 30.018C413.487 30.018 414.775 29.696 415.979 29.052C417.183 28.408 418.149 27.442 418.877 26.154C419.633 24.866 420.011 23.298 420.011 21.45C420.011 19.602 419.647 18.034 418.919 16.746C418.191 15.458 417.239 14.506 416.063 13.89C414.887 13.246 413.613 12.924 412.241 12.924C410.841 12.924 409.553 13.246 408.377 13.89C407.229 14.506 406.305 15.458 405.605 16.746C404.905 18.034 404.555 19.602 404.555 21.45C404.555 23.326 404.891 24.908 405.563 26.196C406.263 27.484 407.187 28.45 408.335 29.094C409.483 29.71 410.743 30.018 412.115 30.018ZM437.468 13.134H432.638V33H428.816V13.134H425.834V9.984H428.816V8.346C428.816 5.77 429.474 3.894 430.79 2.718C432.134 1.514 434.276 0.911998 437.216 0.911998V4.104C435.536 4.104 434.346 4.44 433.646 5.112C432.974 5.756 432.638 6.834 432.638 8.346V9.984H437.468V13.134ZM455.263 14.268C456.047 12.896 457.195 11.776 458.707 10.908C460.219 10.04 461.941 9.606 463.873 9.606C465.945 9.606 467.807 10.096 469.459 11.076C471.111 12.056 472.413 13.442 473.365 15.234C474.317 16.998 474.793 19.056 474.793 21.408C474.793 23.732 474.317 25.804 473.365 27.624C472.413 29.444 471.097 30.858 469.417 31.866C467.765 32.874 465.917 33.378 463.873 33.378C461.885 33.378 460.135 32.944 458.623 32.076C457.139 31.208 456.019 30.102 455.263 28.758V33H451.441V1.92H455.263V14.268ZM470.887 21.408C470.887 19.672 470.537 18.16 469.837 16.872C469.137 15.584 468.185 14.604 466.981 13.932C465.805 13.26 464.503 12.924 463.075 12.924C461.675 12.924 460.373 13.274 459.169 13.974C457.993 14.646 457.041 15.64 456.313 16.956C455.613 18.244 455.263 19.742 455.263 21.45C455.263 23.186 455.613 24.712 456.313 26.028C457.041 27.316 457.993 28.31 459.169 29.01C460.373 29.682 461.675 30.018 463.075 30.018C464.503 30.018 465.805 29.682 466.981 29.01C468.185 28.31 469.137 27.316 469.837 26.028C470.537 24.712 470.887 23.172 470.887 21.408ZM499.396 9.984V33H495.574V29.598C494.846 30.774 493.824 31.698 492.508 32.37C491.22 33.014 489.792 33.336 488.224 33.336C486.432 33.336 484.822 32.972 483.394 32.244C481.966 31.488 480.832 30.368 479.992 28.884C479.18 27.4 478.774 25.594 478.774 23.466V9.984H482.554V22.962C482.554 25.23 483.128 26.98 484.276 28.212C485.424 29.416 486.992 30.018 488.98 30.018C491.024 30.018 492.634 29.388 493.81 28.128C494.986 26.868 495.574 25.034 495.574 22.626V9.984H499.396ZM506.984 6.246C506.256 6.246 505.64 5.994 505.136 5.49C504.632 4.986 504.38 4.37 504.38 3.642C504.38 2.914 504.632 2.298 505.136 1.794C505.64 1.29 506.256 1.038 506.984 1.038C507.684 1.038 508.272 1.29 508.748 1.794C509.252 2.298 509.504 2.914 509.504 3.642C509.504 4.37 509.252 4.986 508.748 5.49C508.272 5.994 507.684 6.246 506.984 6.246ZM508.832 9.984V33H505.01V9.984H508.832ZM518.327 1.92V33H514.505V1.92H518.327ZM522.573 21.408C522.573 19.056 523.049 16.998 524.001 15.234C524.953 13.442 526.255 12.056 527.907 11.076C529.587 10.096 531.463 9.606 533.535 9.606C535.327 9.606 536.993 10.026 538.533 10.866C540.073 11.678 541.249 12.756 542.061 14.1V1.92H545.925V33H542.061V28.674C541.305 30.046 540.185 31.18 538.701 32.076C537.217 32.944 535.481 33.378 533.493 33.378C531.449 33.378 529.587 32.874 527.907 31.866C526.255 30.858 524.953 29.444 524.001 27.624C523.049 25.804 522.573 23.732 522.573 21.408ZM542.061 21.45C542.061 19.714 541.711 18.202 541.011 16.914C540.311 15.626 539.359 14.646 538.155 13.974C536.979 13.274 535.677 12.924 534.249 12.924C532.821 12.924 531.519 13.26 530.343 13.932C529.167 14.604 528.229 15.584 527.529 16.872C526.829 18.16 526.479 19.672 526.479 21.408C526.479 23.172 526.829 24.712 527.529 26.028C528.229 27.316 529.167 28.31 530.343 29.01C531.519 29.682 532.821 30.018 534.249 30.018C535.677 30.018 536.979 29.682 538.155 29.01C539.359 28.31 540.311 27.316 541.011 26.028C541.711 24.712 542.061 23.186 542.061 21.45ZM572.544 20.61C572.544 21.338 572.502 22.108 572.418 22.92H554.022C554.162 25.188 554.932 26.966 556.332 28.254C557.76 29.514 559.482 30.144 561.498 30.144C563.15 30.144 564.522 29.766 565.614 29.01C566.734 28.226 567.518 27.19 567.966 25.902H572.082C571.466 28.114 570.234 29.92 568.386 31.32C566.538 32.692 564.242 33.378 561.498 33.378C559.314 33.378 557.354 32.888 555.618 31.908C553.91 30.928 552.566 29.542 551.586 27.75C550.606 25.93 550.116 23.83 550.116 21.45C550.116 19.07 550.592 16.984 551.544 15.192C552.496 13.4 553.826 12.028 555.534 11.076C557.27 10.096 559.258 9.606 561.498 9.606C563.682 9.606 565.614 10.082 567.294 11.034C568.974 11.986 570.262 13.302 571.158 14.982C572.082 16.634 572.544 18.51 572.544 20.61ZM568.596 19.812C568.596 18.356 568.274 17.11 567.63 16.074C566.986 15.01 566.104 14.212 564.984 13.68C563.892 13.12 562.674 12.84 561.33 12.84C559.398 12.84 557.746 13.456 556.374 14.688C555.03 15.92 554.26 17.628 554.064 19.812H568.596ZM580.571 13.722C581.243 12.406 582.195 11.384 583.427 10.656C584.687 9.928 586.213 9.564 588.005 9.564V13.512H586.997C582.713 13.512 580.571 15.836 580.571 20.484V33H576.749V9.984H580.571V13.722ZM599.725 33.378C597.961 33.378 596.379 33.084 594.979 32.496C593.579 31.88 592.473 31.04 591.661 29.976C590.849 28.884 590.401 27.638 590.317 26.238H594.265C594.377 27.386 594.909 28.324 595.861 29.052C596.841 29.78 598.115 30.144 599.683 30.144C601.139 30.144 602.287 29.822 603.127 29.178C603.967 28.534 604.387 27.722 604.387 26.742C604.387 25.734 603.939 24.992 603.043 24.516C602.147 24.012 600.761 23.522 598.885 23.046C597.177 22.598 595.777 22.15 594.685 21.702C593.621 21.226 592.697 20.54 591.913 19.644C591.157 18.72 590.779 17.516 590.779 16.032C590.779 14.856 591.129 13.778 591.829 12.798C592.529 11.818 593.523 11.048 594.811 10.488C596.099 9.9 597.569 9.606 599.221 9.606C601.769 9.606 603.827 10.25 605.395 11.538C606.963 12.826 607.803 14.59 607.915 16.83H604.093C604.009 15.626 603.519 14.66 602.623 13.932C601.755 13.204 600.579 12.84 599.095 12.84C597.723 12.84 596.631 13.134 595.819 13.722C595.007 14.31 594.601 15.08 594.601 16.032C594.601 16.788 594.839 17.418 595.315 17.922C595.819 18.398 596.435 18.79 597.163 19.098C597.919 19.378 598.955 19.7 600.271 20.064C601.923 20.512 603.267 20.96 604.303 21.408C605.339 21.828 606.221 22.472 606.949 23.34C607.705 24.208 608.097 25.342 608.125 26.742C608.125 28.002 607.775 29.136 607.075 30.144C606.375 31.152 605.381 31.95 604.093 32.538C602.833 33.098 601.377 33.378 599.725 33.378ZM616.628 27.708L611.924 39.006H609.362L612.428 27.708H616.628ZM0.957978 81.408C0.957978 79.056 1.43398 76.998 2.38598 75.234C3.33798 73.442 4.63998 72.056 6.29198 71.076C7.97198 70.096 9.84798 69.606 11.92 69.606C13.712 69.606 15.378 70.026 16.918 70.866C18.458 71.678 19.634 72.756 20.446 74.1V61.92H24.31V93H20.446V88.674C19.69 90.046 18.57 91.18 17.086 92.076C15.602 92.944 13.866 93.378 11.878 93.378C9.83398 93.378 7.97198 92.874 6.29198 91.866C4.63998 90.858 3.33798 89.444 2.38598 87.624C1.43398 85.804 0.957978 83.732 0.957978 81.408ZM20.446 81.45C20.446 79.714 20.096 78.202 19.396 76.914C18.696 75.626 17.744 74.646 16.54 73.974C15.364 73.274 14.062 72.924 12.634 72.924C11.206 72.924 9.90398 73.26 8.72798 73.932C7.55198 74.604 6.61398 75.584 5.91398 76.872C5.21398 78.16 4.86398 79.672 4.86398 81.408C4.86398 83.172 5.21398 84.712 5.91398 86.028C6.61398 87.316 7.55198 88.31 8.72798 89.01C9.90398 89.682 11.206 90.018 12.634 90.018C14.062 90.018 15.364 89.682 16.54 89.01C17.744 88.31 18.696 87.316 19.396 86.028C20.096 84.712 20.446 83.186 20.446 81.45ZM33.7508 73.722C34.4228 72.406 35.3748 71.384 36.6068 70.656C37.8668 69.928 39.3928 69.564 41.1848 69.564V73.512H40.1768C35.8928 73.512 33.7508 75.836 33.7508 80.484V93H29.9288V69.984H33.7508V73.722ZM65.7568 80.61C65.7568 81.338 65.7148 82.108 65.6308 82.92H47.2348C47.3748 85.188 48.1448 86.966 49.5448 88.254C50.9728 89.514 52.6948 90.144 54.7108 90.144C56.3628 90.144 57.7348 89.766 58.8268 89.01C59.9468 88.226 60.7308 87.19 61.1788 85.902H65.2948C64.6788 88.114 63.4468 89.92 61.5988 91.32C59.7508 92.692 57.4548 93.378 54.7108 93.378C52.5268 93.378 50.5668 92.888 48.8308 91.908C47.1228 90.928 45.7788 89.542 44.7988 87.75C43.8188 85.93 43.3288 83.83 43.3288 81.45C43.3288 79.07 43.8048 76.984 44.7568 75.192C45.7088 73.4 47.0388 72.028 48.7468 71.076C50.4828 70.096 52.4708 69.606 54.7108 69.606C56.8948 69.606 58.8268 70.082 60.5068 71.034C62.1868 71.986 63.4748 73.302 64.3708 74.982C65.2948 76.634 65.7568 78.51 65.7568 80.61ZM61.8088 79.812C61.8088 78.356 61.4868 77.11 60.8428 76.074C60.1988 75.01 59.3168 74.212 58.1968 73.68C57.1048 73.12 55.8868 72.84 54.5428 72.84C52.6108 72.84 50.9588 73.456 49.5868 74.688C48.2428 75.92 47.4728 77.628 47.2768 79.812H61.8088ZM68.5337 81.408C68.5337 79.056 69.0097 76.998 69.9617 75.234C70.9137 73.442 72.2157 72.056 73.8677 71.076C75.5477 70.096 77.4097 69.606 79.4537 69.606C81.4697 69.606 83.2197 70.04 84.7037 70.908C86.1877 71.776 87.2937 72.868 88.0217 74.184V69.984H91.8857V93H88.0217V88.716C87.2657 90.06 86.1317 91.18 84.6197 92.076C83.1357 92.944 81.3997 93.378 79.4117 93.378C77.3677 93.378 75.5197 92.874 73.8677 91.866C72.2157 90.858 70.9137 89.444 69.9617 87.624C69.0097 85.804 68.5337 83.732 68.5337 81.408ZM88.0217 81.45C88.0217 79.714 87.6717 78.202 86.9717 76.914C86.2717 75.626 85.3197 74.646 84.1157 73.974C82.9397 73.274 81.6377 72.924 80.2097 72.924C78.7817 72.924 77.4797 73.26 76.3037 73.932C75.1277 74.604 74.1897 75.584 73.4897 76.872C72.7897 78.16 72.4397 79.672 72.4397 81.408C72.4397 83.172 72.7897 84.712 73.4897 86.028C74.1897 87.316 75.1277 88.31 76.3037 89.01C77.4797 89.682 78.7817 90.018 80.2097 90.018C81.6377 90.018 82.9397 89.682 84.1157 89.01C85.3197 88.31 86.2717 87.316 86.9717 86.028C87.6717 84.712 88.0217 83.186 88.0217 81.45ZM125.182 69.564C126.974 69.564 128.57 69.942 129.97 70.698C131.37 71.426 132.476 72.532 133.288 74.016C134.1 75.5 134.506 77.306 134.506 79.434V93H130.726V79.98C130.726 77.684 130.152 75.934 129.004 74.73C127.884 73.498 126.358 72.882 124.426 72.882C122.438 72.882 120.856 73.526 119.68 74.814C118.504 76.074 117.916 77.908 117.916 80.316V93H114.136V79.98C114.136 77.684 113.562 75.934 112.414 74.73C111.294 73.498 109.768 72.882 107.836 72.882C105.848 72.882 104.266 73.526 103.09 74.814C101.914 76.074 101.326 77.908 101.326 80.316V93H97.5045V69.984H101.326V73.302C102.082 72.098 103.09 71.174 104.35 70.53C105.638 69.886 107.052 69.564 108.592 69.564C110.524 69.564 112.232 69.998 113.716 70.866C115.2 71.734 116.306 73.008 117.034 74.688C117.678 73.064 118.742 71.804 120.226 70.908C121.71 70.012 123.362 69.564 125.182 69.564ZM160.936 80.61C160.936 81.338 160.894 82.108 160.81 82.92H142.414C142.554 85.188 143.324 86.966 144.724 88.254C146.152 89.514 147.874 90.144 149.89 90.144C151.542 90.144 152.914 89.766 154.006 89.01C155.126 88.226 155.91 87.19 156.358 85.902H160.474C159.858 88.114 158.626 89.92 156.778 91.32C154.93 92.692 152.634 93.378 149.89 93.378C147.706 93.378 145.746 92.888 144.01 91.908C142.302 90.928 140.958 89.542 139.978 87.75C138.998 85.93 138.508 83.83 138.508 81.45C138.508 79.07 138.984 76.984 139.936 75.192C140.888 73.4 142.218 72.028 143.926 71.076C145.662 70.096 147.65 69.606 149.89 69.606C152.074 69.606 154.006 70.082 155.686 71.034C157.366 71.986 158.654 73.302 159.55 74.982C160.474 76.634 160.936 78.51 160.936 80.61ZM156.988 79.812C156.988 78.356 156.666 77.11 156.022 76.074C155.378 75.01 154.496 74.212 153.376 73.68C152.284 73.12 151.066 72.84 149.722 72.84C147.79 72.84 146.138 73.456 144.766 74.688C143.422 75.92 142.652 77.628 142.456 79.812H156.988ZM168.963 73.722C169.635 72.406 170.587 71.384 171.819 70.656C173.079 69.928 174.605 69.564 176.397 69.564V73.512H175.389C171.105 73.512 168.963 75.836 168.963 80.484V93H165.141V69.984H168.963V73.722ZM188.117 93.378C186.353 93.378 184.771 93.084 183.371 92.496C181.971 91.88 180.865 91.04 180.053 89.976C179.241 88.884 178.793 87.638 178.709 86.238H182.657C182.769 87.386 183.301 88.324 184.253 89.052C185.233 89.78 186.507 90.144 188.075 90.144C189.531 90.144 190.679 89.822 191.519 89.178C192.359 88.534 192.779 87.722 192.779 86.742C192.779 85.734 192.331 84.992 191.435 84.516C190.539 84.012 189.153 83.522 187.277 83.046C185.569 82.598 184.169 82.15 183.077 81.702C182.013 81.226 181.089 80.54 180.305 79.644C179.549 78.72 179.171 77.516 179.171 76.032C179.171 74.856 179.521 73.778 180.221 72.798C180.921 71.818 181.915 71.048 183.203 70.488C184.491 69.9 185.961 69.606 187.613 69.606C190.161 69.606 192.219 70.25 193.787 71.538C195.355 72.826 196.195 74.59 196.307 76.83H192.485C192.401 75.626 191.911 74.66 191.015 73.932C190.147 73.204 188.971 72.84 187.487 72.84C186.115 72.84 185.023 73.134 184.211 73.722C183.399 74.31 182.993 75.08 182.993 76.032C182.993 76.788 183.231 77.418 183.707 77.922C184.211 78.398 184.827 78.79 185.555 79.098C186.311 79.378 187.347 79.7 188.663 80.064C190.315 80.512 191.659 80.96 192.695 81.408C193.731 81.828 194.613 82.472 195.341 83.34C196.097 84.208 196.489 85.342 196.517 86.742C196.517 88.002 196.167 89.136 195.467 90.144C194.767 91.152 193.773 91.95 192.485 92.538C191.225 93.098 189.769 93.378 188.117 93.378ZM205.02 87.708L200.316 99.006H197.754L200.82 87.708H205.02ZM217.488 81.408C217.488 79.056 217.964 76.998 218.916 75.234C219.868 73.442 221.17 72.056 222.822 71.076C224.502 70.096 226.364 69.606 228.408 69.606C230.424 69.606 232.174 70.04 233.658 70.908C235.142 71.776 236.248 72.868 236.976 74.184V69.984H240.84V93H236.976V88.716C236.22 90.06 235.086 91.18 233.574 92.076C232.09 92.944 230.354 93.378 228.366 93.378C226.322 93.378 224.474 92.874 222.822 91.866C221.17 90.858 219.868 89.444 218.916 87.624C217.964 85.804 217.488 83.732 217.488 81.408ZM236.976 81.45C236.976 79.714 236.626 78.202 235.926 76.914C235.226 75.626 234.274 74.646 233.07 73.974C231.894 73.274 230.592 72.924 229.164 72.924C227.736 72.924 226.434 73.26 225.258 73.932C224.082 74.604 223.144 75.584 222.444 76.872C221.744 78.16 221.394 79.672 221.394 81.408C221.394 83.172 221.744 84.712 222.444 86.028C223.144 87.316 224.082 88.31 225.258 89.01C226.434 89.682 227.736 90.018 229.164 90.018C230.592 90.018 231.894 89.682 233.07 89.01C234.274 88.31 235.226 87.316 235.926 86.028C236.626 84.712 236.976 83.186 236.976 81.45ZM257.672 69.564C260.472 69.564 262.74 70.418 264.476 72.126C266.212 73.806 267.08 76.242 267.08 79.434V93H263.3V79.98C263.3 77.684 262.726 75.934 261.578 74.73C260.43 73.498 258.862 72.882 256.874 72.882C254.858 72.882 253.248 73.512 252.044 74.772C250.868 76.032 250.28 77.866 250.28 80.274V93H246.458V69.984H250.28V73.26C251.036 72.084 252.058 71.174 253.346 70.53C254.662 69.886 256.104 69.564 257.672 69.564ZM271.056 81.408C271.056 79.056 271.532 76.998 272.484 75.234C273.436 73.442 274.738 72.056 276.39 71.076C278.07 70.096 279.946 69.606 282.018 69.606C283.81 69.606 285.476 70.026 287.016 70.866C288.556 71.678 289.732 72.756 290.544 74.1V61.92H294.408V93H290.544V88.674C289.788 90.046 288.668 91.18 287.184 92.076C285.7 92.944 283.964 93.378 281.976 93.378C279.932 93.378 278.07 92.874 276.39 91.866C274.738 90.858 273.436 89.444 272.484 87.624C271.532 85.804 271.056 83.732 271.056 81.408ZM290.544 81.45C290.544 79.714 290.194 78.202 289.494 76.914C288.794 75.626 287.842 74.646 286.638 73.974C285.462 73.274 284.16 72.924 282.732 72.924C281.304 72.924 280.002 73.26 278.826 73.932C277.65 74.604 276.712 75.584 276.012 76.872C275.312 78.16 274.962 79.672 274.962 81.408C274.962 83.172 275.312 84.712 276.012 86.028C276.712 87.316 277.65 88.31 278.826 89.01C280.002 89.682 281.304 90.018 282.732 90.018C284.16 90.018 285.462 89.682 286.638 89.01C287.842 88.31 288.794 87.316 289.494 86.028C290.194 84.712 290.544 83.186 290.544 81.45ZM308.249 78.216C308.249 75.304 308.879 72.714 310.139 70.446C311.399 68.15 313.149 66.372 315.389 65.112C317.657 63.824 320.219 63.18 323.075 63.18C326.575 63.18 329.571 64.104 332.063 65.952C334.555 67.8 336.221 70.32 337.061 73.512H329.165C328.577 72.28 327.737 71.342 326.645 70.698C325.581 70.054 324.363 69.732 322.991 69.732C320.779 69.732 318.987 70.502 317.615 72.042C316.243 73.582 315.557 75.64 315.557 78.216C315.557 80.792 316.243 82.85 317.615 84.39C318.987 85.93 320.779 86.7 322.991 86.7C324.363 86.7 325.581 86.378 326.645 85.734C327.737 85.09 328.577 84.152 329.165 82.92H337.061C336.221 86.112 334.555 88.632 332.063 90.48C329.571 92.3 326.575 93.21 323.075 93.21C320.219 93.21 317.657 92.58 315.389 91.32C313.149 90.032 311.399 88.254 310.139 85.986C308.879 83.718 308.249 81.128 308.249 78.216ZM358.973 87.792H347.969L346.205 93H338.687L349.355 63.516H357.671L368.339 93H360.737L358.973 87.792ZM357.125 82.248L353.471 71.454L349.859 82.248H357.125ZM391.956 63.516V69.27H384.144V93H376.962V69.27H369.15V63.516H391.956ZM409.963 87.456H419.371V93H402.781V63.516H409.963V87.456ZM435.9 93.294C433.128 93.294 430.58 92.65 428.256 91.362C425.96 90.074 424.126 88.282 422.754 85.986C421.41 83.662 420.738 81.058 420.738 78.174C420.738 75.29 421.41 72.7 422.754 70.404C424.126 68.108 425.96 66.316 428.256 65.028C430.58 63.74 433.128 63.096 435.9 63.096C438.672 63.096 441.206 63.74 443.502 65.028C445.826 66.316 447.646 68.108 448.962 70.404C450.306 72.7 450.978 75.29 450.978 78.174C450.978 81.058 450.306 83.662 448.962 85.986C447.618 88.282 445.798 90.074 443.502 91.362C441.206 92.65 438.672 93.294 435.9 93.294ZM435.9 86.742C438.252 86.742 440.128 85.958 441.528 84.39C442.956 82.822 443.67 80.75 443.67 78.174C443.67 75.57 442.956 73.498 441.528 71.958C440.128 70.39 438.252 69.606 435.9 69.606C433.52 69.606 431.616 70.376 430.188 71.916C428.788 73.456 428.088 75.542 428.088 78.174C428.088 80.778 428.788 82.864 430.188 84.432C431.616 85.972 433.52 86.742 435.9 86.742ZM481.812 63.516L471.354 93H462.366L451.908 63.516H459.552L466.86 85.776L474.21 63.516H481.812ZM491.155 69.27V75.234H500.773V80.778H491.155V87.246H502.033V93H483.973V63.516H502.033V69.27H491.155ZM520.892 93L514.76 81.87H513.038V93H505.856V63.516H517.91C520.234 63.516 522.208 63.922 523.832 64.734C525.484 65.546 526.716 66.666 527.528 68.094C528.34 69.494 528.746 71.062 528.746 72.798C528.746 74.758 528.186 76.508 527.066 78.048C525.974 79.588 524.35 80.68 522.194 81.324L528.998 93H520.892ZM513.038 76.788H517.49C518.806 76.788 519.786 76.466 520.43 75.822C521.102 75.178 521.438 74.268 521.438 73.092C521.438 71.972 521.102 71.09 520.43 70.446C519.786 69.802 518.806 69.48 517.49 69.48H513.038V76.788ZM543.082 93.294C540.926 93.294 538.994 92.944 537.286 92.244C535.578 91.544 534.206 90.508 533.17 89.136C532.162 87.764 531.63 86.112 531.574 84.18H539.218C539.33 85.272 539.708 86.112 540.352 86.7C540.996 87.26 541.836 87.54 542.872 87.54C543.936 87.54 544.776 87.302 545.392 86.826C546.008 86.322 546.316 85.636 546.316 84.768C546.316 84.04 546.064 83.438 545.56 82.962C545.084 82.486 544.482 82.094 543.754 81.786C543.054 81.478 542.046 81.128 540.73 80.736C538.826 80.148 537.272 79.56 536.068 78.972C534.864 78.384 533.828 77.516 532.96 76.368C532.092 75.22 531.658 73.722 531.658 71.874C531.658 69.13 532.652 66.988 534.64 65.448C536.628 63.88 539.218 63.096 542.41 63.096C545.658 63.096 548.276 63.88 550.264 65.448C552.252 66.988 553.316 69.144 553.456 71.916H545.686C545.63 70.964 545.28 70.222 544.636 69.69C543.992 69.13 543.166 68.85 542.158 68.85C541.29 68.85 540.59 69.088 540.058 69.564C539.526 70.012 539.26 70.67 539.26 71.538C539.26 72.49 539.708 73.232 540.604 73.764C541.5 74.296 542.9 74.87 544.804 75.486C546.708 76.13 548.248 76.746 549.424 77.334C550.628 77.922 551.664 78.776 552.532 79.896C553.4 81.016 553.834 82.458 553.834 84.222C553.834 85.902 553.4 87.428 552.532 88.8C551.692 90.172 550.46 91.264 548.836 92.076C547.212 92.888 545.294 93.294 543.082 93.294ZM566.686 81.45C566.686 79.07 567.162 76.998 568.114 75.234C569.066 73.442 570.382 72.056 572.062 71.076C573.77 70.096 575.716 69.606 577.9 69.606C580.728 69.606 583.052 70.292 584.872 71.664C586.72 73.036 587.938 74.94 588.526 77.376H584.41C584.018 75.976 583.248 74.87 582.1 74.058C580.98 73.246 579.58 72.84 577.9 72.84C575.716 72.84 573.952 73.596 572.608 75.108C571.264 76.592 570.592 78.706 570.592 81.45C570.592 84.222 571.264 86.364 572.608 87.876C573.952 89.388 575.716 90.144 577.9 90.144C579.58 90.144 580.98 89.752 582.1 88.968C583.22 88.184 583.99 87.064 584.41 85.608H588.526C587.91 87.96 586.678 89.85 584.83 91.278C582.982 92.678 580.672 93.378 577.9 93.378C575.716 93.378 573.77 92.888 572.062 91.908C570.382 90.928 569.066 89.542 568.114 87.75C567.162 85.958 566.686 83.858 566.686 81.45ZM596.608 73.722C597.28 72.406 598.232 71.384 599.464 70.656C600.724 69.928 602.25 69.564 604.042 69.564V73.512H603.034C598.75 73.512 596.608 75.836 596.608 80.484V93H592.786V69.984H596.608V73.722ZM628.614 80.61C628.614 81.338 628.572 82.108 628.488 82.92H610.092C610.232 85.188 611.002 86.966 612.402 88.254C613.83 89.514 615.552 90.144 617.568 90.144C619.22 90.144 620.592 89.766 621.684 89.01C622.804 88.226 623.588 87.19 624.036 85.902H628.152C627.536 88.114 626.304 89.92 624.456 91.32C622.608 92.692 620.312 93.378 617.568 93.378C615.384 93.378 613.424 92.888 611.688 91.908C609.98 90.928 608.636 89.542 607.656 87.75C606.676 85.93 606.186 83.83 606.186 81.45C606.186 79.07 606.662 76.984 607.614 75.192C608.566 73.4 609.896 72.028 611.604 71.076C613.34 70.096 615.328 69.606 617.568 69.606C619.752 69.606 621.684 70.082 623.364 71.034C625.044 71.986 626.332 73.302 627.228 74.982C628.152 76.634 628.614 78.51 628.614 80.61ZM624.666 79.812C624.666 78.356 624.344 77.11 623.7 76.074C623.056 75.01 622.174 74.212 621.054 73.68C619.962 73.12 618.744 72.84 617.4 72.84C615.468 72.84 613.816 73.456 612.444 74.688C611.1 75.92 610.33 77.628 610.134 79.812H624.666ZM631.391 81.408C631.391 79.056 631.867 76.998 632.819 75.234C633.771 73.442 635.073 72.056 636.725 71.076C638.405 70.096 640.267 69.606 642.311 69.606C644.327 69.606 646.077 70.04 647.561 70.908C649.045 71.776 650.151 72.868 650.879 74.184V69.984H654.743V93H650.879V88.716C650.123 90.06 648.989 91.18 647.477 92.076C645.993 92.944 644.257 93.378 642.269 93.378C640.225 93.378 638.377 92.874 636.725 91.866C635.073 90.858 633.771 89.444 632.819 87.624C631.867 85.804 631.391 83.732 631.391 81.408ZM650.879 81.45C650.879 79.714 650.529 78.202 649.829 76.914C649.129 75.626 648.177 74.646 646.973 73.974C645.797 73.274 644.495 72.924 643.067 72.924C641.639 72.924 640.337 73.26 639.161 73.932C637.985 74.604 637.047 75.584 636.347 76.872C635.647 78.16 635.297 79.672 635.297 81.408C635.297 83.172 635.647 84.712 636.347 86.028C637.047 87.316 637.985 88.31 639.161 89.01C640.337 89.682 641.639 90.018 643.067 90.018C644.495 90.018 645.797 89.682 646.973 89.01C648.177 88.31 649.129 87.316 649.829 86.028C650.529 84.712 650.879 83.186 650.879 81.45ZM665.024 73.134V86.7C665.024 87.82 665.262 88.618 665.738 89.094C666.214 89.542 667.04 89.766 668.216 89.766H671.03V93H667.586C665.458 93 663.862 92.51 662.798 91.53C661.734 90.55 661.202 88.94 661.202 86.7V73.134H658.22V69.984H661.202V64.188H665.024V69.984H671.03V73.134H665.024ZM676.795 66.246C676.067 66.246 675.451 65.994 674.947 65.49C674.443 64.986 674.191 64.37 674.191 63.642C674.191 62.914 674.443 62.298 674.947 61.794C675.451 61.29 676.067 61.038 676.795 61.038C677.495 61.038 678.083 61.29 678.559 61.794C679.063 62.298 679.315 62.914 679.315 63.642C679.315 64.37 679.063 64.986 678.559 65.49C678.083 65.994 677.495 66.246 676.795 66.246ZM678.643 69.984V93H674.821V69.984H678.643ZM695.531 69.564C698.331 69.564 700.599 70.418 702.335 72.126C704.071 73.806 704.939 76.242 704.939 79.434V93H701.159V79.98C701.159 77.684 700.585 75.934 699.437 74.73C698.289 73.498 696.721 72.882 694.733 72.882C692.717 72.882 691.107 73.512 689.903 74.772C688.727 76.032 688.139 77.866 688.139 80.274V93H684.317V69.984H688.139V73.26C688.895 72.084 689.917 71.174 691.205 70.53C692.521 69.886 693.963 69.564 695.531 69.564ZM719.834 69.606C721.822 69.606 723.558 70.04 725.042 70.908C726.554 71.776 727.674 72.868 728.402 74.184V69.984H732.266V93.504C732.266 95.604 731.818 97.466 730.922 99.09C730.026 100.742 728.738 102.03 727.058 102.954C725.406 103.878 723.474 104.34 721.262 104.34C718.238 104.34 715.718 103.626 713.702 102.198C711.686 100.77 710.496 98.824 710.132 96.36H713.912C714.332 97.76 715.2 98.88 716.516 99.72C717.832 100.588 719.414 101.022 721.262 101.022C723.362 101.022 725.07 100.364 726.386 99.048C727.73 97.732 728.402 95.884 728.402 93.504V88.674C727.646 90.018 726.526 91.138 725.042 92.034C723.558 92.93 721.822 93.378 719.834 93.378C717.79 93.378 715.928 92.874 714.248 91.866C712.596 90.858 711.294 89.444 710.342 87.624C709.39 85.804 708.914 83.732 708.914 81.408C708.914 79.056 709.39 76.998 710.342 75.234C711.294 73.442 712.596 72.056 714.248 71.076C715.928 70.096 717.79 69.606 719.834 69.606ZM728.402 81.45C728.402 79.714 728.052 78.202 727.352 76.914C726.652 75.626 725.7 74.646 724.496 73.974C723.32 73.274 722.018 72.924 720.59 72.924C719.162 72.924 717.86 73.26 716.684 73.932C715.508 74.604 714.57 75.584 713.87 76.872C713.17 78.16 712.82 79.672 712.82 81.408C712.82 83.172 713.17 84.712 713.87 86.028C714.57 87.316 715.508 88.31 716.684 89.01C717.86 89.682 719.162 90.018 720.59 90.018C722.018 90.018 723.32 89.682 724.496 89.01C725.7 88.31 726.652 87.316 727.352 86.028C728.052 84.712 728.402 83.186 728.402 81.45ZM145.943 140.61C145.943 141.338 145.901 142.108 145.817 142.92H127.421C127.561 145.188 128.331 146.966 129.731 148.254C131.159 149.514 132.881 150.144 134.897 150.144C136.549 150.144 137.921 149.766 139.013 149.01C140.133 148.226 140.917 147.19 141.365 145.902H145.481C144.865 148.114 143.633 149.92 141.785 151.32C139.937 152.692 137.641 153.378 134.897 153.378C132.713 153.378 130.753 152.888 129.017 151.908C127.309 150.928 125.965 149.542 124.985 147.75C124.005 145.93 123.515 143.83 123.515 141.45C123.515 139.07 123.991 136.984 124.943 135.192C125.895 133.4 127.225 132.028 128.933 131.076C130.669 130.096 132.657 129.606 134.897 129.606C137.081 129.606 139.013 130.082 140.693 131.034C142.373 131.986 143.661 133.302 144.557 134.982C145.481 136.634 145.943 138.51 145.943 140.61ZM141.995 139.812C141.995 138.356 141.673 137.11 141.029 136.074C140.385 135.01 139.503 134.212 138.383 133.68C137.291 133.12 136.073 132.84 134.729 132.84C132.797 132.84 131.145 133.456 129.773 134.688C128.429 135.92 127.659 137.628 127.463 139.812H141.995ZM177.826 129.564C179.618 129.564 181.214 129.942 182.614 130.698C184.014 131.426 185.12 132.532 185.932 134.016C186.744 135.5 187.15 137.306 187.15 139.434V153H183.37V139.98C183.37 137.684 182.796 135.934 181.648 134.73C180.528 133.498 179.002 132.882 177.07 132.882C175.082 132.882 173.5 133.526 172.324 134.814C171.148 136.074 170.56 137.908 170.56 140.316V153H166.78V139.98C166.78 137.684 166.206 135.934 165.058 134.73C163.938 133.498 162.412 132.882 160.48 132.882C158.492 132.882 156.91 133.526 155.734 134.814C154.558 136.074 153.97 137.908 153.97 140.316V153H150.148V129.984H153.97V133.302C154.726 132.098 155.734 131.174 156.994 130.53C158.282 129.886 159.696 129.564 161.236 129.564C163.168 129.564 164.876 129.998 166.36 130.866C167.844 131.734 168.95 133.008 169.678 134.688C170.322 133.064 171.386 131.804 172.87 130.908C174.354 130.012 176.006 129.564 177.826 129.564ZM202.618 153.378C200.462 153.378 198.502 152.888 196.738 151.908C195.002 150.928 193.63 149.542 192.622 147.75C191.642 145.93 191.152 143.83 191.152 141.45C191.152 139.098 191.656 137.026 192.664 135.234C193.7 133.414 195.1 132.028 196.864 131.076C198.628 130.096 200.602 129.606 202.786 129.606C204.97 129.606 206.944 130.096 208.708 131.076C210.472 132.028 211.858 133.4 212.866 135.192C213.902 136.984 214.42 139.07 214.42 141.45C214.42 143.83 213.888 145.93 212.824 147.75C211.788 149.542 210.374 150.928 208.582 151.908C206.79 152.888 204.802 153.378 202.618 153.378ZM202.618 150.018C203.99 150.018 205.278 149.696 206.482 149.052C207.686 148.408 208.652 147.442 209.38 146.154C210.136 144.866 210.514 143.298 210.514 141.45C210.514 139.602 210.15 138.034 209.422 136.746C208.694 135.458 207.742 134.506 206.566 133.89C205.39 133.246 204.116 132.924 202.744 132.924C201.344 132.924 200.056 133.246 198.88 133.89C197.732 134.506 196.808 135.458 196.108 136.746C195.408 138.034 195.058 139.602 195.058 141.45C195.058 143.326 195.394 144.908 196.066 146.196C196.766 147.484 197.69 148.45 198.838 149.094C199.986 149.71 201.246 150.018 202.618 150.018ZM223.267 133.134V146.7C223.267 147.82 223.505 148.618 223.981 149.094C224.457 149.542 225.283 149.766 226.459 149.766H229.273V153H225.829C223.701 153 222.105 152.51 221.041 151.53C219.977 150.55 219.445 148.94 219.445 146.7V133.134H216.463V129.984H219.445V124.188H223.267V129.984H229.273V133.134H223.267ZM235.038 126.246C234.31 126.246 233.694 125.994 233.19 125.49C232.686 124.986 232.434 124.37 232.434 123.642C232.434 122.914 232.686 122.298 233.19 121.794C233.694 121.29 234.31 121.038 235.038 121.038C235.738 121.038 236.326 121.29 236.802 121.794C237.306 122.298 237.558 122.914 237.558 123.642C237.558 124.37 237.306 124.986 236.802 125.49C236.326 125.994 235.738 126.246 235.038 126.246ZM236.886 129.984V153H233.064V129.984H236.886ZM252.598 153.378C250.442 153.378 248.482 152.888 246.718 151.908C244.982 150.928 243.61 149.542 242.602 147.75C241.622 145.93 241.132 143.83 241.132 141.45C241.132 139.098 241.636 137.026 242.644 135.234C243.68 133.414 245.08 132.028 246.844 131.076C248.608 130.096 250.582 129.606 252.766 129.606C254.95 129.606 256.924 130.096 258.688 131.076C260.452 132.028 261.838 133.4 262.846 135.192C263.882 136.984 264.4 139.07 264.4 141.45C264.4 143.83 263.868 145.93 262.804 147.75C261.768 149.542 260.354 150.928 258.562 151.908C256.77 152.888 254.782 153.378 252.598 153.378ZM252.598 150.018C253.97 150.018 255.258 149.696 256.462 149.052C257.666 148.408 258.632 147.442 259.36 146.154C260.116 144.866 260.494 143.298 260.494 141.45C260.494 139.602 260.13 138.034 259.402 136.746C258.674 135.458 257.722 134.506 256.546 133.89C255.37 133.246 254.096 132.924 252.724 132.924C251.324 132.924 250.036 133.246 248.86 133.89C247.712 134.506 246.788 135.458 246.088 136.746C245.388 138.034 245.038 139.602 245.038 141.45C245.038 143.326 245.374 144.908 246.046 146.196C246.746 147.484 247.67 148.45 248.818 149.094C249.966 149.71 251.226 150.018 252.598 150.018ZM279.799 129.564C282.599 129.564 284.867 130.418 286.603 132.126C288.339 133.806 289.207 136.242 289.207 139.434V153H285.427V139.98C285.427 137.684 284.853 135.934 283.705 134.73C282.557 133.498 280.989 132.882 279.001 132.882C276.985 132.882 275.375 133.512 274.171 134.772C272.995 136.032 272.407 137.866 272.407 140.274V153H268.585V129.984H272.407V133.26C273.163 132.084 274.185 131.174 275.473 130.53C276.789 129.886 278.231 129.564 279.799 129.564ZM293.182 141.408C293.182 139.056 293.658 136.998 294.61 135.234C295.562 133.442 296.864 132.056 298.516 131.076C300.196 130.096 302.058 129.606 304.102 129.606C306.118 129.606 307.868 130.04 309.352 130.908C310.836 131.776 311.942 132.868 312.67 134.184V129.984H316.534V153H312.67V148.716C311.914 150.06 310.78 151.18 309.268 152.076C307.784 152.944 306.048 153.378 304.06 153.378C302.016 153.378 300.168 152.874 298.516 151.866C296.864 150.858 295.562 149.444 294.61 147.624C293.658 145.804 293.182 143.732 293.182 141.408ZM312.67 141.45C312.67 139.714 312.32 138.202 311.62 136.914C310.92 135.626 309.968 134.646 308.764 133.974C307.588 133.274 306.286 132.924 304.858 132.924C303.43 132.924 302.128 133.26 300.952 133.932C299.776 134.604 298.838 135.584 298.138 136.872C297.438 138.16 297.088 139.672 297.088 141.408C297.088 143.172 297.438 144.712 298.138 146.028C298.838 147.316 299.776 148.31 300.952 149.01C302.128 149.682 303.43 150.018 304.858 150.018C306.286 150.018 307.588 149.682 308.764 149.01C309.968 148.31 310.92 147.316 311.62 146.028C312.32 144.712 312.67 143.186 312.67 141.45ZM325.975 121.92V153H322.153V121.92H325.975ZM335.471 121.92V153H331.649V121.92H335.471ZM360.969 129.984L347.109 163.836H343.161L347.697 152.748L338.415 129.984H342.657L349.881 148.632L357.021 129.984H360.969ZM376.302 126.246C375.574 126.246 374.958 125.994 374.454 125.49C373.95 124.986 373.698 124.37 373.698 123.642C373.698 122.914 373.95 122.298 374.454 121.794C374.958 121.29 375.574 121.038 376.302 121.038C377.002 121.038 377.59 121.29 378.066 121.794C378.57 122.298 378.822 122.914 378.822 123.642C378.822 124.37 378.57 124.986 378.066 125.49C377.59 125.994 377.002 126.246 376.302 126.246ZM378.15 129.984V153H374.328V129.984H378.15ZM395.038 129.564C397.838 129.564 400.106 130.418 401.842 132.126C403.578 133.806 404.446 136.242 404.446 139.434V153H400.666V139.98C400.666 137.684 400.092 135.934 398.944 134.73C397.796 133.498 396.228 132.882 394.24 132.882C392.224 132.882 390.614 133.512 389.41 134.772C388.234 136.032 387.646 137.866 387.646 140.274V153H383.824V129.984H387.646V133.26C388.402 132.084 389.424 131.174 390.712 130.53C392.028 129.886 393.47 129.564 395.038 129.564ZM414.511 133.134V146.7C414.511 147.82 414.749 148.618 415.225 149.094C415.701 149.542 416.527 149.766 417.703 149.766H420.517V153H417.073C414.945 153 413.349 152.51 412.285 151.53C411.221 150.55 410.689 148.94 410.689 146.7V133.134H407.707V129.984H410.689V124.188H414.511V129.984H420.517V133.134H414.511ZM445.308 140.61C445.308 141.338 445.266 142.108 445.182 142.92H426.786C426.926 145.188 427.696 146.966 429.096 148.254C430.524 149.514 432.246 150.144 434.262 150.144C435.914 150.144 437.286 149.766 438.378 149.01C439.498 148.226 440.282 147.19 440.73 145.902H444.846C444.23 148.114 442.998 149.92 441.15 151.32C439.302 152.692 437.006 153.378 434.262 153.378C432.078 153.378 430.118 152.888 428.382 151.908C426.674 150.928 425.33 149.542 424.35 147.75C423.37 145.93 422.88 143.83 422.88 141.45C422.88 139.07 423.356 136.984 424.308 135.192C425.26 133.4 426.59 132.028 428.298 131.076C430.034 130.096 432.022 129.606 434.262 129.606C436.446 129.606 438.378 130.082 440.058 131.034C441.738 131.986 443.026 133.302 443.922 134.982C444.846 136.634 445.308 138.51 445.308 140.61ZM441.36 139.812C441.36 138.356 441.038 137.11 440.394 136.074C439.75 135.01 438.868 134.212 437.748 133.68C436.656 133.12 435.438 132.84 434.094 132.84C432.162 132.84 430.51 133.456 429.138 134.688C427.794 135.92 427.024 137.628 426.828 139.812H441.36ZM453.335 121.92V153H449.513V121.92H453.335ZM462.831 121.92V153H459.009V121.92H462.831ZM470.479 126.246C469.751 126.246 469.135 125.994 468.631 125.49C468.127 124.986 467.875 124.37 467.875 123.642C467.875 122.914 468.127 122.298 468.631 121.794C469.135 121.29 469.751 121.038 470.479 121.038C471.179 121.038 471.767 121.29 472.243 121.794C472.747 122.298 472.999 122.914 472.999 123.642C472.999 124.37 472.747 124.986 472.243 125.49C471.767 125.994 471.179 126.246 470.479 126.246ZM472.327 129.984V153H468.505V129.984H472.327ZM487.493 129.606C489.481 129.606 491.217 130.04 492.701 130.908C494.213 131.776 495.333 132.868 496.061 134.184V129.984H499.925V153.504C499.925 155.604 499.477 157.466 498.581 159.09C497.685 160.742 496.397 162.03 494.717 162.954C493.065 163.878 491.133 164.34 488.921 164.34C485.897 164.34 483.377 163.626 481.361 162.198C479.345 160.77 478.155 158.824 477.791 156.36H481.571C481.991 157.76 482.859 158.88 484.175 159.72C485.491 160.588 487.073 161.022 488.921 161.022C491.021 161.022 492.729 160.364 494.045 159.048C495.389 157.732 496.061 155.884 496.061 153.504V148.674C495.305 150.018 494.185 151.138 492.701 152.034C491.217 152.93 489.481 153.378 487.493 153.378C485.449 153.378 483.587 152.874 481.907 151.866C480.255 150.858 478.953 149.444 478.001 147.624C477.049 145.804 476.573 143.732 476.573 141.408C476.573 139.056 477.049 136.998 478.001 135.234C478.953 133.442 480.255 132.056 481.907 131.076C483.587 130.096 485.449 129.606 487.493 129.606ZM496.061 141.45C496.061 139.714 495.711 138.202 495.011 136.914C494.311 135.626 493.359 134.646 492.155 133.974C490.979 133.274 489.677 132.924 488.249 132.924C486.821 132.924 485.519 133.26 484.343 133.932C483.167 134.604 482.229 135.584 481.529 136.872C480.829 138.16 480.479 139.672 480.479 141.408C480.479 143.172 480.829 144.712 481.529 146.028C482.229 147.316 483.167 148.31 484.343 149.01C485.519 149.682 486.821 150.018 488.249 150.018C489.677 150.018 490.979 149.682 492.155 149.01C493.359 148.31 494.311 147.316 495.011 146.028C495.711 144.712 496.061 143.186 496.061 141.45ZM526.544 140.61C526.544 141.338 526.502 142.108 526.418 142.92H508.022C508.162 145.188 508.932 146.966 510.332 148.254C511.76 149.514 513.482 150.144 515.498 150.144C517.15 150.144 518.522 149.766 519.614 149.01C520.734 148.226 521.518 147.19 521.966 145.902H526.082C525.466 148.114 524.234 149.92 522.386 151.32C520.538 152.692 518.242 153.378 515.498 153.378C513.314 153.378 511.354 152.888 509.618 151.908C507.91 150.928 506.566 149.542 505.586 147.75C504.606 145.93 504.116 143.83 504.116 141.45C504.116 139.07 504.592 136.984 505.544 135.192C506.496 133.4 507.826 132.028 509.534 131.076C511.27 130.096 513.258 129.606 515.498 129.606C517.682 129.606 519.614 130.082 521.294 131.034C522.974 131.986 524.262 133.302 525.158 134.982C526.082 136.634 526.544 138.51 526.544 140.61ZM522.596 139.812C522.596 138.356 522.274 137.11 521.63 136.074C520.986 135.01 520.104 134.212 518.984 133.68C517.892 133.12 516.674 132.84 515.33 132.84C513.398 132.84 511.746 133.456 510.374 134.688C509.03 135.92 508.26 137.628 508.064 139.812H522.596ZM541.962 129.564C544.762 129.564 547.03 130.418 548.766 132.126C550.502 133.806 551.37 136.242 551.37 139.434V153H547.59V139.98C547.59 137.684 547.016 135.934 545.868 134.73C544.72 133.498 543.152 132.882 541.164 132.882C539.148 132.882 537.538 133.512 536.334 134.772C535.158 136.032 534.57 137.866 534.57 140.274V153H530.748V129.984H534.57V133.26C535.326 132.084 536.348 131.174 537.636 130.53C538.952 129.886 540.394 129.564 541.962 129.564ZM561.436 133.134V146.7C561.436 147.82 561.674 148.618 562.15 149.094C562.626 149.542 563.452 149.766 564.628 149.766H567.442V153H563.998C561.87 153 560.274 152.51 559.21 151.53C558.146 150.55 557.614 148.94 557.614 146.7V133.134H554.632V129.984H557.614V124.188H561.436V129.984H567.442V133.134H561.436ZM598.894 146.49H586.126L583.774 153H579.742L590.326 123.894H594.736L605.278 153H601.246L598.894 146.49ZM597.802 143.382L592.51 128.598L587.218 143.382H597.802ZM612.873 123.726V153H609.051V123.726H612.873ZM619.765 153.252C619.037 153.252 618.421 153 617.917 152.496C617.413 151.992 617.161 151.376 617.161 150.648C617.161 149.92 617.413 149.304 617.917 148.8C618.421 148.296 619.037 148.044 619.765 148.044C620.465 148.044 621.053 148.296 621.529 148.8C622.033 149.304 622.285 149.92 622.285 150.648C622.285 151.376 622.033 151.992 621.529 152.496C621.053 153 620.465 153.252 619.765 153.252Z" fill="url(#paint0_linear_5193_27368)"/>
<defs>
<linearGradient id="paint0_linear_5193_27368" x1="-36.7361" y1="-12" x2="783.92" y2="318.84" gradientUnits="userSpaceOnUse">
<stop stop-color="#FFBC70"/>
<stop offset="0.5" stop-color="#FF7B7B"/>
<stop offset="1" stop-color="#FF52F9"/>
</linearGradient>
</defs>
</svg>
