<svg width="530" height="342" viewBox="0 0 530 342" fill="none" xmlns="http://www.w3.org/2000/svg">
<g filter="url(#filter0_d_5084_4748)">
<rect x="32.5" y="32" width="465" height="278" rx="34" fill="white"/>
<rect x="36.5" y="36" width="457" height="270" rx="30" fill="url(#paint0_linear_5084_4748)"/>
<rect x="383.5" y="56" width="92" height="34" rx="10" fill="#FF6161"/>
<path d="M410.144 66.49V79H408.092V70.432L404.276 79H402.854L399.02 70.432V79H396.968V66.49H399.182L403.574 76.3L407.948 66.49H410.144ZM413.885 67.768C413.513 67.768 413.201 67.642 412.949 67.39C412.697 67.138 412.571 66.826 412.571 66.454C412.571 66.082 412.697 65.77 412.949 65.518C413.201 65.266 413.513 65.14 413.885 65.14C414.245 65.14 414.551 65.266 414.803 65.518C415.055 65.77 415.181 66.082 415.181 66.454C415.181 66.826 415.055 67.138 414.803 67.39C414.551 67.642 414.245 67.768 413.885 67.768ZM414.893 69.082V79H412.841V69.082H414.893ZM421.187 79.162C420.407 79.162 419.705 79.024 419.081 78.748C418.469 78.46 417.983 78.076 417.623 77.596C417.263 77.104 417.071 76.558 417.047 75.958H419.171C419.207 76.378 419.405 76.732 419.765 77.02C420.137 77.296 420.599 77.434 421.151 77.434C421.727 77.434 422.171 77.326 422.483 77.11C422.807 76.882 422.969 76.594 422.969 76.246C422.969 75.874 422.789 75.598 422.429 75.418C422.081 75.238 421.523 75.04 420.755 74.824C420.011 74.62 419.405 74.422 418.937 74.23C418.469 74.038 418.061 73.744 417.713 73.348C417.377 72.952 417.209 72.43 417.209 71.782C417.209 71.254 417.365 70.774 417.677 70.342C417.989 69.898 418.433 69.55 419.009 69.298C419.597 69.046 420.269 68.92 421.025 68.92C422.153 68.92 423.059 69.208 423.743 69.784C424.439 70.348 424.811 71.122 424.859 72.106H422.807C422.771 71.662 422.591 71.308 422.267 71.044C421.943 70.78 421.505 70.648 420.953 70.648C420.413 70.648 419.999 70.75 419.711 70.954C419.423 71.158 419.279 71.428 419.279 71.764C419.279 72.028 419.375 72.25 419.567 72.43C419.759 72.61 419.993 72.754 420.269 72.862C420.545 72.958 420.953 73.084 421.493 73.24C422.213 73.432 422.801 73.63 423.257 73.834C423.725 74.026 424.127 74.314 424.463 74.698C424.799 75.082 424.973 75.592 424.985 76.228C424.985 76.792 424.829 77.296 424.517 77.74C424.205 78.184 423.761 78.532 423.185 78.784C422.621 79.036 421.955 79.162 421.187 79.162ZM430.803 79.162C430.023 79.162 429.321 79.024 428.697 78.748C428.085 78.46 427.599 78.076 427.239 77.596C426.879 77.104 426.687 76.558 426.663 75.958H428.787C428.823 76.378 429.021 76.732 429.381 77.02C429.753 77.296 430.215 77.434 430.767 77.434C431.343 77.434 431.787 77.326 432.099 77.11C432.423 76.882 432.585 76.594 432.585 76.246C432.585 75.874 432.405 75.598 432.045 75.418C431.697 75.238 431.139 75.04 430.371 74.824C429.627 74.62 429.021 74.422 428.553 74.23C428.085 74.038 427.677 73.744 427.329 73.348C426.993 72.952 426.825 72.43 426.825 71.782C426.825 71.254 426.981 70.774 427.293 70.342C427.605 69.898 428.049 69.55 428.625 69.298C429.213 69.046 429.885 68.92 430.641 68.92C431.769 68.92 432.675 69.208 433.359 69.784C434.055 70.348 434.427 71.122 434.475 72.106H432.423C432.387 71.662 432.207 71.308 431.883 71.044C431.559 70.78 431.121 70.648 430.569 70.648C430.029 70.648 429.615 70.75 429.327 70.954C429.039 71.158 428.895 71.428 428.895 71.764C428.895 72.028 428.991 72.25 429.183 72.43C429.375 72.61 429.609 72.754 429.885 72.862C430.161 72.958 430.569 73.084 431.109 73.24C431.829 73.432 432.417 73.63 432.873 73.834C433.341 74.026 433.743 74.314 434.079 74.698C434.415 75.082 434.589 75.592 434.601 76.228C434.601 76.792 434.445 77.296 434.133 77.74C433.821 78.184 433.377 78.532 432.801 78.784C432.237 79.036 431.571 79.162 430.803 79.162ZM437.862 67.768C437.49 67.768 437.178 67.642 436.926 67.39C436.674 67.138 436.548 66.826 436.548 66.454C436.548 66.082 436.674 65.77 436.926 65.518C437.178 65.266 437.49 65.14 437.862 65.14C438.222 65.14 438.528 65.266 438.78 65.518C439.032 65.77 439.158 66.082 439.158 66.454C439.158 66.826 439.032 67.138 438.78 67.39C438.528 67.642 438.222 67.768 437.862 67.768ZM438.87 69.082V79H436.818V69.082H438.87ZM445.866 79.162C444.93 79.162 444.084 78.952 443.328 78.532C442.572 78.1 441.978 77.5 441.546 76.732C441.114 75.952 440.898 75.052 440.898 74.032C440.898 73.024 441.12 72.13 441.564 71.35C442.008 70.57 442.614 69.97 443.382 69.55C444.15 69.13 445.008 68.92 445.956 68.92C446.904 68.92 447.762 69.13 448.53 69.55C449.298 69.97 449.904 70.57 450.348 71.35C450.792 72.13 451.014 73.024 451.014 74.032C451.014 75.04 450.786 75.934 450.33 76.714C449.874 77.494 449.25 78.1 448.458 78.532C447.678 78.952 446.814 79.162 445.866 79.162ZM445.866 77.38C446.394 77.38 446.886 77.254 447.342 77.002C447.81 76.75 448.188 76.372 448.476 75.868C448.764 75.364 448.908 74.752 448.908 74.032C448.908 73.312 448.77 72.706 448.494 72.214C448.218 71.71 447.852 71.332 447.396 71.08C446.94 70.828 446.448 70.702 445.92 70.702C445.392 70.702 444.9 70.828 444.444 71.08C444 71.332 443.646 71.71 443.382 72.214C443.118 72.706 442.986 73.312 442.986 74.032C442.986 75.1 443.256 75.928 443.796 76.516C444.348 77.092 445.038 77.38 445.866 77.38ZM458.046 68.92C458.826 68.92 459.522 69.082 460.134 69.406C460.758 69.73 461.244 70.21 461.592 70.846C461.94 71.482 462.114 72.25 462.114 73.15V79H460.08V73.456C460.08 72.568 459.858 71.89 459.414 71.422C458.97 70.942 458.364 70.702 457.596 70.702C456.828 70.702 456.216 70.942 455.76 71.422C455.316 71.89 455.094 72.568 455.094 73.456V79H453.042V69.082H455.094V70.216C455.43 69.808 455.856 69.49 456.372 69.262C456.9 69.034 457.458 68.92 458.046 68.92Z" fill="white"/>
<path d="M67.314 234.322C67.314 232.826 67.6587 231.484 68.348 230.296C69.052 229.108 69.998 228.184 71.186 227.524C72.3887 226.849 73.7013 226.512 75.124 226.512C76.752 226.512 78.1967 226.915 79.458 227.722C80.734 228.514 81.658 229.643 82.23 231.11H79.216C78.82 230.303 78.27 229.702 77.566 229.306C76.862 228.91 76.048 228.712 75.124 228.712C74.112 228.712 73.21 228.939 72.418 229.394C71.626 229.849 71.0027 230.501 70.548 231.352C70.108 232.203 69.888 233.193 69.888 234.322C69.888 235.451 70.108 236.441 70.548 237.292C71.0027 238.143 71.626 238.803 72.418 239.272C73.21 239.727 74.112 239.954 75.124 239.954C76.048 239.954 76.862 239.756 77.566 239.36C78.27 238.964 78.82 238.363 79.216 237.556H82.23C81.658 239.023 80.734 240.152 79.458 240.944C78.1967 241.736 76.752 242.132 75.124 242.132C73.6867 242.132 72.374 241.802 71.186 241.142C69.998 240.467 69.052 239.536 68.348 238.348C67.6587 237.16 67.314 235.818 67.314 234.322ZM87.6736 231.638C88.0403 231.022 88.5243 230.545 89.1256 230.208C89.7416 229.856 90.4676 229.68 91.3036 229.68V232.276H90.6656C89.683 232.276 88.935 232.525 88.4216 233.024C87.923 233.523 87.6736 234.388 87.6736 235.62V242H85.1656V229.878H87.6736V231.638ZM104.719 235.642C104.719 236.097 104.69 236.507 104.631 236.874H95.369C95.4423 237.842 95.8017 238.619 96.447 239.206C97.0923 239.793 97.8843 240.086 98.823 240.086C100.172 240.086 101.126 239.521 101.683 238.392H104.389C104.022 239.507 103.355 240.423 102.387 241.142C101.434 241.846 100.246 242.198 98.823 242.198C97.6643 242.198 96.623 241.941 95.699 241.428C94.7897 240.9 94.071 240.167 93.543 239.228C93.0297 238.275 92.773 237.175 92.773 235.928C92.773 234.681 93.0223 233.589 93.521 232.65C94.0343 231.697 94.7457 230.963 95.655 230.45C96.579 229.937 97.635 229.68 98.823 229.68C99.967 229.68 100.986 229.929 101.881 230.428C102.776 230.927 103.472 231.631 103.971 232.54C104.47 233.435 104.719 234.469 104.719 235.642ZM102.101 234.85C102.086 233.926 101.756 233.185 101.111 232.628C100.466 232.071 99.6663 231.792 98.713 231.792C97.8477 231.792 97.107 232.071 96.491 232.628C95.875 233.171 95.5083 233.911 95.391 234.85H102.101ZM106.351 235.884C106.351 234.667 106.6 233.589 107.099 232.65C107.612 231.711 108.302 230.985 109.167 230.472C110.047 229.944 111.015 229.68 112.071 229.68C113.024 229.68 113.853 229.871 114.557 230.252C115.276 230.619 115.848 231.081 116.273 231.638V229.878H118.803V242H116.273V240.196C115.848 240.768 115.268 241.245 114.535 241.626C113.802 242.007 112.966 242.198 112.027 242.198C110.986 242.198 110.032 241.934 109.167 241.406C108.302 240.863 107.612 240.115 107.099 239.162C106.6 238.194 106.351 237.101 106.351 235.884ZM116.273 235.928C116.273 235.092 116.097 234.366 115.745 233.75C115.408 233.134 114.96 232.665 114.403 232.342C113.846 232.019 113.244 231.858 112.599 231.858C111.954 231.858 111.352 232.019 110.795 232.342C110.238 232.65 109.783 233.112 109.431 233.728C109.094 234.329 108.925 235.048 108.925 235.884C108.925 236.72 109.094 237.453 109.431 238.084C109.783 238.715 110.238 239.199 110.795 239.536C111.367 239.859 111.968 240.02 112.599 240.02C113.244 240.02 113.846 239.859 114.403 239.536C114.96 239.213 115.408 238.744 115.745 238.128C116.097 237.497 116.273 236.764 116.273 235.928ZM125.023 231.924V238.634C125.023 239.089 125.126 239.419 125.331 239.624C125.551 239.815 125.918 239.91 126.431 239.91H127.971V242H125.991C124.862 242 123.997 241.736 123.395 241.208C122.794 240.68 122.493 239.822 122.493 238.634V231.924H121.063V229.878H122.493V226.864H125.023V229.878H127.971V231.924H125.023ZM131.559 228.272C131.104 228.272 130.723 228.118 130.415 227.81C130.107 227.502 129.953 227.121 129.953 226.666C129.953 226.211 130.107 225.83 130.415 225.522C130.723 225.214 131.104 225.06 131.559 225.06C131.999 225.06 132.373 225.214 132.681 225.522C132.989 225.83 133.143 226.211 133.143 226.666C133.143 227.121 132.989 227.502 132.681 227.81C132.373 228.118 131.999 228.272 131.559 228.272ZM132.791 229.878V242H130.283V229.878H132.791ZM142.2 229.68C143.153 229.68 144.004 229.878 144.752 230.274C145.514 230.67 146.108 231.257 146.534 232.034C146.959 232.811 147.172 233.75 147.172 234.85V242H144.686V235.224C144.686 234.139 144.414 233.31 143.872 232.738C143.329 232.151 142.588 231.858 141.65 231.858C140.711 231.858 139.963 232.151 139.406 232.738C138.863 233.31 138.592 234.139 138.592 235.224V242H136.084V229.878H138.592V231.264C139.002 230.765 139.523 230.377 140.154 230.098C140.799 229.819 141.481 229.68 142.2 229.68ZM155.255 229.68C156.193 229.68 157.022 229.871 157.741 230.252C158.474 230.619 159.046 231.081 159.457 231.638V229.878H161.987V242.198C161.987 243.313 161.752 244.303 161.283 245.168C160.813 246.048 160.131 246.737 159.237 247.236C158.357 247.735 157.301 247.984 156.069 247.984C154.426 247.984 153.062 247.595 151.977 246.818C150.891 246.055 150.275 245.014 150.129 243.694H152.615C152.805 244.325 153.209 244.831 153.825 245.212C154.455 245.608 155.203 245.806 156.069 245.806C157.081 245.806 157.895 245.498 158.511 244.882C159.141 244.266 159.457 243.371 159.457 242.198V240.174C159.031 240.746 158.452 241.23 157.719 241.626C157 242.007 156.179 242.198 155.255 242.198C154.199 242.198 153.231 241.934 152.351 241.406C151.485 240.863 150.796 240.115 150.283 239.162C149.784 238.194 149.535 237.101 149.535 235.884C149.535 234.667 149.784 233.589 150.283 232.65C150.796 231.711 151.485 230.985 152.351 230.472C153.231 229.944 154.199 229.68 155.255 229.68ZM159.457 235.928C159.457 235.092 159.281 234.366 158.929 233.75C158.591 233.134 158.144 232.665 157.587 232.342C157.029 232.019 156.428 231.858 155.783 231.858C155.137 231.858 154.536 232.019 153.979 232.342C153.421 232.65 152.967 233.112 152.615 233.728C152.277 234.329 152.109 235.048 152.109 235.884C152.109 236.72 152.277 237.453 152.615 238.084C152.967 238.715 153.421 239.199 153.979 239.536C154.551 239.859 155.152 240.02 155.783 240.02C156.428 240.02 157.029 239.859 157.587 239.536C158.144 239.213 158.591 238.744 158.929 238.128C159.281 237.497 159.457 236.764 159.457 235.928ZM180.214 238.876H173.812L172.712 242H170.094L175.572 226.688H178.476L183.954 242H181.314L180.214 238.876ZM179.51 236.83L177.024 229.724L174.516 236.83H179.51ZM188.844 226.71V242H186.336V226.71H188.844ZM200.777 231.924V238.634C200.777 239.089 200.88 239.419 201.085 239.624C201.305 239.815 201.672 239.91 202.185 239.91H203.725V242H201.745C200.616 242 199.751 241.736 199.149 241.208C198.548 240.68 198.247 239.822 198.247 238.634V231.924H196.817V229.878H198.247V226.864H200.777V229.878H203.725V231.924H200.777ZM212.307 229.68C213.231 229.68 214.052 229.878 214.771 230.274C215.504 230.67 216.076 231.257 216.487 232.034C216.912 232.811 217.125 233.75 217.125 234.85V242H214.639V235.224C214.639 234.139 214.367 233.31 213.825 232.738C213.282 232.151 212.541 231.858 211.603 231.858C210.664 231.858 209.916 232.151 209.359 232.738C208.816 233.31 208.545 234.139 208.545 235.224V242H206.037V225.72H208.545V231.286C208.97 230.773 209.505 230.377 210.151 230.098C210.811 229.819 211.529 229.68 212.307 229.68ZM219.488 235.884C219.488 234.667 219.737 233.589 220.236 232.65C220.749 231.711 221.438 230.985 222.304 230.472C223.184 229.944 224.152 229.68 225.208 229.68C226.161 229.68 226.99 229.871 227.694 230.252C228.412 230.619 228.984 231.081 229.41 231.638V229.878H231.94V242H229.41V240.196C228.984 240.768 228.405 241.245 227.672 241.626C226.938 242.007 226.102 242.198 225.164 242.198C224.122 242.198 223.169 241.934 222.304 241.406C221.438 240.863 220.749 240.115 220.236 239.162C219.737 238.194 219.488 237.101 219.488 235.884ZM229.41 235.928C229.41 235.092 229.234 234.366 228.882 233.75C228.544 233.134 228.097 232.665 227.54 232.342C226.982 232.019 226.381 231.858 225.736 231.858C225.09 231.858 224.489 232.019 223.932 232.342C223.374 232.65 222.92 233.112 222.568 233.728C222.23 234.329 222.062 235.048 222.062 235.884C222.062 236.72 222.23 237.453 222.568 238.084C222.92 238.715 223.374 239.199 223.932 239.536C224.504 239.859 225.105 240.02 225.736 240.02C226.381 240.02 226.982 239.859 227.54 239.536C228.097 239.213 228.544 238.744 228.882 238.128C229.234 237.497 229.41 236.764 229.41 235.928ZM238.16 231.924V238.634C238.16 239.089 238.263 239.419 238.468 239.624C238.688 239.815 239.055 239.91 239.568 239.91H241.108V242H239.128C237.999 242 237.133 241.736 236.532 241.208C235.931 240.68 235.63 239.822 235.63 238.634V231.924H234.2V229.878H235.63V226.864H238.16V229.878H241.108V231.924H238.16ZM84.43 258.878L80.668 271H78.028L75.586 262.046L73.144 271H70.504L66.72 258.878H69.272L71.802 268.624L74.376 258.878H76.994L79.458 268.58L81.966 258.878H84.43ZM85.4683 264.884C85.4683 263.667 85.7176 262.589 86.2163 261.65C86.7296 260.711 87.419 259.985 88.2843 259.472C89.1643 258.944 90.1323 258.68 91.1883 258.68C92.1416 258.68 92.9703 258.871 93.6743 259.252C94.393 259.619 94.965 260.081 95.3903 260.638V258.878H97.9203V271H95.3903V269.196C94.965 269.768 94.3856 270.245 93.6523 270.626C92.919 271.007 92.083 271.198 91.1443 271.198C90.103 271.198 89.1496 270.934 88.2843 270.406C87.419 269.863 86.7296 269.115 86.2163 268.162C85.7176 267.194 85.4683 266.101 85.4683 264.884ZM95.3903 264.928C95.3903 264.092 95.2143 263.366 94.8623 262.75C94.525 262.134 94.0776 261.665 93.5203 261.342C92.963 261.019 92.3616 260.858 91.7163 260.858C91.071 260.858 90.4696 261.019 89.9123 261.342C89.355 261.65 88.9003 262.112 88.5483 262.728C88.211 263.329 88.0423 264.048 88.0423 264.884C88.0423 265.72 88.211 266.453 88.5483 267.084C88.9003 267.715 89.355 268.199 89.9123 268.536C90.4843 268.859 91.0856 269.02 91.7163 269.02C92.3616 269.02 92.963 268.859 93.5203 268.536C94.0776 268.213 94.525 267.744 94.8623 267.128C95.2143 266.497 95.3903 265.764 95.3903 264.928ZM103.722 260.638C104.089 260.022 104.573 259.545 105.174 259.208C105.79 258.856 106.516 258.68 107.352 258.68V261.276H106.714C105.732 261.276 104.984 261.525 104.47 262.024C103.972 262.523 103.722 263.388 103.722 264.62V271H101.214V258.878H103.722V260.638ZM124.332 258.68C125.285 258.68 126.136 258.878 126.884 259.274C127.646 259.67 128.24 260.257 128.666 261.034C129.106 261.811 129.326 262.75 129.326 263.85V271H126.84V264.224C126.84 263.139 126.568 262.31 126.026 261.738C125.483 261.151 124.742 260.858 123.804 260.858C122.865 260.858 122.117 261.151 121.56 261.738C121.017 262.31 120.746 263.139 120.746 264.224V271H118.26V264.224C118.26 263.139 117.988 262.31 117.446 261.738C116.903 261.151 116.162 260.858 115.224 260.858C114.285 260.858 113.537 261.151 112.98 261.738C112.437 262.31 112.166 263.139 112.166 264.224V271H109.658V258.878H112.166V260.264C112.576 259.765 113.097 259.377 113.728 259.098C114.358 258.819 115.033 258.68 115.752 258.68C116.72 258.68 117.585 258.885 118.348 259.296C119.11 259.707 119.697 260.301 120.108 261.078C120.474 260.345 121.046 259.765 121.824 259.34C122.601 258.9 123.437 258.68 124.332 258.68ZM136.917 271.198C135.964 271.198 135.106 271.029 134.343 270.692C133.595 270.34 133.001 269.871 132.561 269.284C132.121 268.683 131.887 268.015 131.857 267.282H134.453C134.497 267.795 134.739 268.228 135.179 268.58C135.634 268.917 136.199 269.086 136.873 269.086C137.577 269.086 138.12 268.954 138.501 268.69C138.897 268.411 139.095 268.059 139.095 267.634C139.095 267.179 138.875 266.842 138.435 266.622C138.01 266.402 137.328 266.16 136.389 265.896C135.48 265.647 134.739 265.405 134.167 265.17C133.595 264.935 133.097 264.576 132.671 264.092C132.261 263.608 132.055 262.97 132.055 262.178C132.055 261.533 132.246 260.946 132.627 260.418C133.009 259.875 133.551 259.45 134.255 259.142C134.974 258.834 135.795 258.68 136.719 258.68C138.098 258.68 139.205 259.032 140.041 259.736C140.892 260.425 141.347 261.371 141.405 262.574H138.897C138.853 262.031 138.633 261.599 138.237 261.276C137.841 260.953 137.306 260.792 136.631 260.792C135.971 260.792 135.465 260.917 135.113 261.166C134.761 261.415 134.585 261.745 134.585 262.156C134.585 262.479 134.703 262.75 134.937 262.97C135.172 263.19 135.458 263.366 135.795 263.498C136.133 263.615 136.631 263.769 137.291 263.96C138.171 264.195 138.89 264.437 139.447 264.686C140.019 264.921 140.511 265.273 140.921 265.742C141.332 266.211 141.545 266.835 141.559 267.612C141.559 268.301 141.369 268.917 140.987 269.46C140.606 270.003 140.063 270.428 139.359 270.736C138.67 271.044 137.856 271.198 136.917 271.198ZM152.492 260.66C152.917 260.103 153.497 259.633 154.23 259.252C154.963 258.871 155.792 258.68 156.716 258.68C157.772 258.68 158.733 258.944 159.598 259.472C160.478 259.985 161.167 260.711 161.666 261.65C162.165 262.589 162.414 263.667 162.414 264.884C162.414 266.101 162.165 267.194 161.666 268.162C161.167 269.115 160.478 269.863 159.598 270.406C158.733 270.934 157.772 271.198 156.716 271.198C155.792 271.198 154.971 271.015 154.252 270.648C153.533 270.267 152.947 269.797 152.492 269.24V276.764H149.984V258.878H152.492V260.66ZM159.862 264.884C159.862 264.048 159.686 263.329 159.334 262.728C158.997 262.112 158.542 261.65 157.97 261.342C157.413 261.019 156.811 260.858 156.166 260.858C155.535 260.858 154.934 261.019 154.362 261.342C153.805 261.665 153.35 262.134 152.998 262.75C152.661 263.366 152.492 264.092 152.492 264.928C152.492 265.764 152.661 266.497 152.998 267.128C153.35 267.744 153.805 268.213 154.362 268.536C154.934 268.859 155.535 269.02 156.166 269.02C156.811 269.02 157.413 268.859 157.97 268.536C158.542 268.199 158.997 267.715 159.334 267.084C159.686 266.453 159.862 265.72 159.862 264.884ZM176.004 264.642C176.004 265.097 175.975 265.507 175.916 265.874H166.654C166.727 266.842 167.087 267.619 167.732 268.206C168.377 268.793 169.169 269.086 170.108 269.086C171.457 269.086 172.411 268.521 172.968 267.392H175.674C175.307 268.507 174.64 269.423 173.672 270.142C172.719 270.846 171.531 271.198 170.108 271.198C168.949 271.198 167.908 270.941 166.984 270.428C166.075 269.9 165.356 269.167 164.828 268.228C164.315 267.275 164.058 266.175 164.058 264.928C164.058 263.681 164.307 262.589 164.806 261.65C165.319 260.697 166.031 259.963 166.94 259.45C167.864 258.937 168.92 258.68 170.108 258.68C171.252 258.68 172.271 258.929 173.166 259.428C174.061 259.927 174.757 260.631 175.256 261.54C175.755 262.435 176.004 263.469 176.004 264.642ZM173.386 263.85C173.371 262.926 173.041 262.185 172.396 261.628C171.751 261.071 170.951 260.792 169.998 260.792C169.133 260.792 168.392 261.071 167.776 261.628C167.16 262.171 166.793 262.911 166.676 263.85H173.386ZM183.73 271.198C182.586 271.198 181.552 270.941 180.628 270.428C179.704 269.9 178.978 269.167 178.45 268.228C177.922 267.275 177.658 266.175 177.658 264.928C177.658 263.696 177.93 262.603 178.472 261.65C179.015 260.697 179.756 259.963 180.694 259.45C181.633 258.937 182.682 258.68 183.84 258.68C184.999 258.68 186.048 258.937 186.986 259.45C187.925 259.963 188.666 260.697 189.208 261.65C189.751 262.603 190.022 263.696 190.022 264.928C190.022 266.16 189.744 267.253 189.186 268.206C188.629 269.159 187.866 269.9 186.898 270.428C185.945 270.941 184.889 271.198 183.73 271.198ZM183.73 269.02C184.376 269.02 184.977 268.866 185.534 268.558C186.106 268.25 186.568 267.788 186.92 267.172C187.272 266.556 187.448 265.808 187.448 264.928C187.448 264.048 187.28 263.307 186.942 262.706C186.605 262.09 186.158 261.628 185.6 261.32C185.043 261.012 184.442 260.858 183.796 260.858C183.151 260.858 182.55 261.012 181.992 261.32C181.45 261.628 181.017 262.09 180.694 262.706C180.372 263.307 180.21 264.048 180.21 264.928C180.21 266.233 180.54 267.245 181.2 267.964C181.875 268.668 182.718 269.02 183.73 269.02ZM195.01 260.66C195.435 260.103 196.014 259.633 196.748 259.252C197.481 258.871 198.31 258.68 199.234 258.68C200.29 258.68 201.25 258.944 202.116 259.472C202.996 259.985 203.685 260.711 204.184 261.65C204.682 262.589 204.932 263.667 204.932 264.884C204.932 266.101 204.682 267.194 204.184 268.162C203.685 269.115 202.996 269.863 202.116 270.406C201.25 270.934 200.29 271.198 199.234 271.198C198.31 271.198 197.488 271.015 196.77 270.648C196.051 270.267 195.464 269.797 195.01 269.24V276.764H192.502V258.878H195.01V260.66ZM202.38 264.884C202.38 264.048 202.204 263.329 201.852 262.728C201.514 262.112 201.06 261.65 200.488 261.342C199.93 261.019 199.329 260.858 198.684 260.858C198.053 260.858 197.452 261.019 196.88 261.342C196.322 261.665 195.868 262.134 195.516 262.75C195.178 263.366 195.01 264.092 195.01 264.928C195.01 265.764 195.178 266.497 195.516 267.128C195.868 267.744 196.322 268.213 196.88 268.536C197.452 268.859 198.053 269.02 198.684 269.02C199.329 269.02 199.93 268.859 200.488 268.536C201.06 268.199 201.514 267.715 201.852 267.084C202.204 266.453 202.38 265.72 202.38 264.884ZM209.92 254.72V271H207.412V254.72H209.92ZM224.323 264.642C224.323 265.097 224.293 265.507 224.235 265.874H214.973C215.046 266.842 215.405 267.619 216.051 268.206C216.696 268.793 217.488 269.086 218.427 269.086C219.776 269.086 220.729 268.521 221.287 267.392H223.992C223.626 268.507 222.959 269.423 221.991 270.142C221.037 270.846 219.849 271.198 218.427 271.198C217.268 271.198 216.227 270.941 215.303 270.428C214.393 269.9 213.675 269.167 213.147 268.228C212.633 267.275 212.377 266.175 212.377 264.928C212.377 263.681 212.626 262.589 213.125 261.65C213.638 260.697 214.349 259.963 215.259 259.45C216.183 258.937 217.239 258.68 218.427 258.68C219.571 258.68 220.59 258.929 221.485 259.428C222.379 259.927 223.076 260.631 223.575 261.54C224.073 262.435 224.323 263.469 224.323 264.642ZM221.705 263.85C221.69 262.926 221.36 262.185 220.715 261.628C220.069 261.071 219.27 260.792 218.317 260.792C217.451 260.792 216.711 261.071 216.095 261.628C215.479 262.171 215.112 262.911 214.995 263.85H221.705ZM228.155 253.466L227.891 257.976H226.175L225.889 253.466H228.155ZM234.972 271.198C234.019 271.198 233.161 271.029 232.398 270.692C231.65 270.34 231.056 269.871 230.616 269.284C230.176 268.683 229.941 268.015 229.912 267.282H232.508C232.552 267.795 232.794 268.228 233.234 268.58C233.689 268.917 234.253 269.086 234.928 269.086C235.632 269.086 236.175 268.954 236.556 268.69C236.952 268.411 237.15 268.059 237.15 267.634C237.15 267.179 236.93 266.842 236.49 266.622C236.065 266.402 235.383 266.16 234.444 265.896C233.535 265.647 232.794 265.405 232.222 265.17C231.65 264.935 231.151 264.576 230.726 264.092C230.315 263.608 230.11 262.97 230.11 262.178C230.11 261.533 230.301 260.946 230.682 260.418C231.063 259.875 231.606 259.45 232.31 259.142C233.029 258.834 233.85 258.68 234.774 258.68C236.153 258.68 237.26 259.032 238.096 259.736C238.947 260.425 239.401 261.371 239.46 262.574H236.952C236.908 262.031 236.688 261.599 236.292 261.276C235.896 260.953 235.361 260.792 234.686 260.792C234.026 260.792 233.52 260.917 233.168 261.166C232.816 261.415 232.64 261.745 232.64 262.156C232.64 262.479 232.757 262.75 232.992 262.97C233.227 263.19 233.513 263.366 233.85 263.498C234.187 263.615 234.686 263.769 235.346 263.96C236.226 264.195 236.945 264.437 237.502 264.686C238.074 264.921 238.565 265.273 238.976 265.742C239.387 266.211 239.599 266.835 239.614 267.612C239.614 268.301 239.423 268.917 239.042 269.46C238.661 270.003 238.118 270.428 237.414 270.736C236.725 271.044 235.911 271.198 234.972 271.198ZM254.309 258.68C255.233 258.68 256.054 258.878 256.773 259.274C257.506 259.67 258.078 260.257 258.489 261.034C258.914 261.811 259.127 262.75 259.127 263.85V271H256.641V264.224C256.641 263.139 256.369 262.31 255.827 261.738C255.284 261.151 254.543 260.858 253.605 260.858C252.666 260.858 251.918 261.151 251.361 261.738C250.818 262.31 250.547 263.139 250.547 264.224V271H248.039V254.72H250.547V260.286C250.972 259.773 251.507 259.377 252.153 259.098C252.813 258.819 253.531 258.68 254.309 258.68ZM273.436 264.642C273.436 265.097 273.406 265.507 273.348 265.874H264.086C264.159 266.842 264.518 267.619 265.164 268.206C265.809 268.793 266.601 269.086 267.54 269.086C268.889 269.086 269.842 268.521 270.4 267.392H273.106C272.739 268.507 272.072 269.423 271.104 270.142C270.15 270.846 268.962 271.198 267.54 271.198C266.381 271.198 265.34 270.941 264.416 270.428C263.506 269.9 262.788 269.167 262.26 268.228C261.746 267.275 261.49 266.175 261.49 264.928C261.49 263.681 261.739 262.589 262.238 261.65C262.751 260.697 263.462 259.963 264.372 259.45C265.296 258.937 266.352 258.68 267.54 258.68C268.684 258.68 269.703 258.929 270.598 259.428C271.492 259.927 272.189 260.631 272.688 261.54C273.186 262.435 273.436 263.469 273.436 264.642ZM270.818 263.85C270.803 262.926 270.473 262.185 269.828 261.628C269.182 261.071 268.383 260.792 267.43 260.792C266.564 260.792 265.824 261.071 265.208 261.628C264.592 262.171 264.225 262.911 264.108 263.85H270.818ZM275.068 264.884C275.068 263.667 275.317 262.589 275.816 261.65C276.329 260.711 277.019 259.985 277.884 259.472C278.764 258.944 279.732 258.68 280.788 258.68C281.741 258.68 282.57 258.871 283.274 259.252C283.993 259.619 284.565 260.081 284.99 260.638V258.878H287.52V271H284.99V269.196C284.565 269.768 283.985 270.245 283.252 270.626C282.519 271.007 281.683 271.198 280.744 271.198C279.703 271.198 278.749 270.934 277.884 270.406C277.019 269.863 276.329 269.115 275.816 268.162C275.317 267.194 275.068 266.101 275.068 264.884ZM284.99 264.928C284.99 264.092 284.814 263.366 284.462 262.75C284.125 262.134 283.677 261.665 283.12 261.342C282.563 261.019 281.961 260.858 281.316 260.858C280.671 260.858 280.069 261.019 279.512 261.342C278.955 261.65 278.5 262.112 278.148 262.728C277.811 263.329 277.642 264.048 277.642 264.884C277.642 265.72 277.811 266.453 278.148 267.084C278.5 267.715 278.955 268.199 279.512 268.536C280.084 268.859 280.685 269.02 281.316 269.02C281.961 269.02 282.563 268.859 283.12 268.536C283.677 268.213 284.125 267.744 284.462 267.128C284.814 266.497 284.99 265.764 284.99 264.928ZM293.322 260.638C293.689 260.022 294.173 259.545 294.774 259.208C295.39 258.856 296.116 258.68 296.952 258.68V261.276H296.314C295.331 261.276 294.583 261.525 294.07 262.024C293.571 262.523 293.322 263.388 293.322 264.62V271H290.814V258.878H293.322V260.638ZM302.183 260.924V267.634C302.183 268.089 302.286 268.419 302.491 268.624C302.711 268.815 303.078 268.91 303.591 268.91H305.131V271H303.151C302.022 271 301.157 270.736 300.555 270.208C299.954 269.68 299.653 268.822 299.653 267.634V260.924H298.223V258.878H299.653V255.864H302.183V258.878H305.131V260.924H302.183ZM311.843 271.198C310.89 271.198 310.032 271.029 309.269 270.692C308.521 270.34 307.927 269.871 307.487 269.284C307.047 268.683 306.812 268.015 306.783 267.282H309.379C309.423 267.795 309.665 268.228 310.105 268.58C310.56 268.917 311.124 269.086 311.799 269.086C312.503 269.086 313.046 268.954 313.427 268.69C313.823 268.411 314.021 268.059 314.021 267.634C314.021 267.179 313.801 266.842 313.361 266.622C312.936 266.402 312.254 266.16 311.315 265.896C310.406 265.647 309.665 265.405 309.093 265.17C308.521 264.935 308.022 264.576 307.597 264.092C307.186 263.608 306.981 262.97 306.981 262.178C306.981 261.533 307.172 260.946 307.553 260.418C307.934 259.875 308.477 259.45 309.181 259.142C309.9 258.834 310.721 258.68 311.645 258.68C313.024 258.68 314.131 259.032 314.967 259.736C315.818 260.425 316.272 261.371 316.331 262.574H313.823C313.779 262.031 313.559 261.599 313.163 261.276C312.767 260.953 312.232 260.792 311.557 260.792C310.897 260.792 310.391 260.917 310.039 261.166C309.687 261.415 309.511 261.745 309.511 262.156C309.511 262.479 309.628 262.75 309.863 262.97C310.098 263.19 310.384 263.366 310.721 263.498C311.058 263.615 311.557 263.769 312.217 263.96C313.097 264.195 313.816 264.437 314.373 264.686C314.945 264.921 315.436 265.273 315.847 265.742C316.258 266.211 316.47 266.835 316.485 267.612C316.485 268.301 316.294 268.917 315.913 269.46C315.532 270.003 314.989 270.428 314.285 270.736C313.596 271.044 312.782 271.198 311.843 271.198ZM320.207 271.154C319.752 271.154 319.371 271 319.063 270.692C318.755 270.384 318.601 270.003 318.601 269.548C318.601 269.093 318.755 268.712 319.063 268.404C319.371 268.096 319.752 267.942 320.207 267.942C320.647 267.942 321.021 268.096 321.329 268.404C321.637 268.712 321.791 269.093 321.791 269.548C321.791 270.003 321.637 270.384 321.329 270.692C321.021 271 320.647 271.154 320.207 271.154Z" fill="#3F404D"/>
</g>
<defs>
<filter id="filter0_d_5084_4748" x="0.5" y="0" width="529" height="342" filterUnits="userSpaceOnUse" color-interpolation-filters="sRGB">
<feFlood flood-opacity="0" result="BackgroundImageFix"/>
<feColorMatrix in="SourceAlpha" type="matrix" values="0 0 0 0 0 0 0 0 0 0 0 0 0 0 0 0 0 0 127 0" result="hardAlpha"/>
<feOffset/>
<feGaussianBlur stdDeviation="16"/>
<feComposite in2="hardAlpha" operator="out"/>
<feColorMatrix type="matrix" values="0 0 0 0 0.878271 0 0 0 0 0.504806 0 0 0 0 0.504806 0 0 0 0.32 0"/>
<feBlend mode="normal" in2="BackgroundImageFix" result="effect1_dropShadow_5084_4748"/>
<feBlend mode="normal" in="SourceGraphic" in2="effect1_dropShadow_5084_4748" result="shape"/>
</filter>
<linearGradient id="paint0_linear_5084_4748" x1="265" y1="36" x2="265" y2="306" gradientUnits="userSpaceOnUse">
<stop stop-color="white" stop-opacity="0"/>
<stop offset="1" stop-color="#FF6161" stop-opacity="0.06"/>
</linearGradient>
</defs>
</svg>
