<svg width="18" height="16" viewBox="0 0 18 16" fill="none" xmlns="http://www.w3.org/2000/svg">
<path d="M16.5922 9.88239C16.5922 13.3192 13.0855 15.2872 8.94658 14.9659C4.66391 15.1119 1.30101 13.6406 1.30101 10.2038C1.30101 6.76697 4.83517 2.52012 8.94658 2.52012C13.058 2.52012 16.5922 6.4456 16.5922 9.88239Z" fill="#B5B2FF" fill-opacity="0.82"/>
<path d="M4.38957 1.79072C5.20448 2.25118 6.04627 3.2237 6.04627 3.2237C4.99751 3.7722 4.46639 4.20221 3.54389 5.11975C2.83982 5.92638 2.427 6.48514 1.784 7.86775C1.784 7.86775 0.939247 5.63148 1.00349 4.30242C1.06761 2.97575 1.80425 1 1.80425 1C1.80425 1 3.46803 1.27002 4.38957 1.79072Z" fill="#B5B2FF" fill-opacity="0.82"/>
<path d="M13.6104 1.79072C12.7955 2.25118 11.9537 3.2237 11.9537 3.2237C13.0025 3.7722 13.5546 4.17775 14.4771 5.09529C15.1812 5.90192 15.5733 6.48231 16.2163 7.86492C16.2163 7.86492 17.0608 5.63148 16.9965 4.30242C16.9324 2.97575 16.1958 1 16.1958 1C16.1958 1 14.532 1.27002 13.6104 1.79072Z" fill="#B5B2FF" fill-opacity="0.82"/>
<path d="M16.5922 9.88239C16.5922 13.3192 13.0855 15.2872 8.94658 14.9659C4.66391 15.1119 1.30101 13.6406 1.30101 10.2038C1.30101 6.76697 4.83517 2.52012 8.94658 2.52012C13.058 2.52012 16.5922 6.4456 16.5922 9.88239Z" fill="#B5B2FF" fill-opacity="0.82"/>
<path d="M4.38957 1.79072C5.20448 2.25118 6.04627 3.2237 6.04627 3.2237C4.99751 3.7722 4.46639 4.20221 3.54389 5.11975C2.83982 5.92638 2.427 6.48514 1.784 7.86775C1.784 7.86775 0.939247 5.63148 1.00349 4.30242C1.06761 2.97575 1.80425 1 1.80425 1C1.80425 1 3.46803 1.27002 4.38957 1.79072Z" fill="#B5B2FF" fill-opacity="0.82"/>
<path d="M13.6104 1.79072C12.7955 2.25118 11.9537 3.2237 11.9537 3.2237C13.0025 3.7722 13.5546 4.17775 14.4771 5.09529C15.1812 5.90192 15.5733 6.48231 16.2163 7.86492C16.2163 7.86492 17.0608 5.63148 16.9965 4.30242C16.9324 2.97575 16.1958 1 16.1958 1C16.1958 1 14.532 1.27002 13.6104 1.79072Z" fill="#B5B2FF" fill-opacity="0.82"/>
<path d="M1.80425 1L1.57315 0.913911L1.5731 0.914022L1.57297 0.914379L1.57251 0.915631L1.57079 0.92026L1.56435 0.937804L1.54028 1.00437C1.51962 1.06208 1.49016 1.14568 1.45467 1.25002C1.38372 1.45857 1.28847 1.75057 1.19114 2.08474C0.99802 2.74775 0.790696 3.59662 0.757157 4.29052C0.722946 4.99831 0.928596 5.9233 1.13218 6.65001C1.23524 7.01791 1.34024 7.34334 1.41947 7.57681C1.45911 7.69364 1.49238 7.78764 1.51581 7.85268C1.51737 7.857 1.51888 7.86119 1.52035 7.86525C1.22016 8.64515 1.05439 9.4409 1.05439 10.2038C1.05439 12.0205 1.9515 13.3249 3.39628 14.143C4.82389 14.9514 6.78102 15.2848 8.94124 15.2128C11.0461 15.3738 13.0079 14.9558 14.4533 14.0419C15.9083 13.1219 16.8388 11.6971 16.8388 9.88239C16.8388 9.21459 16.7118 8.53281 16.4788 7.86551C16.4806 7.86055 16.4825 7.85539 16.4844 7.85004C16.5078 7.78508 16.5411 7.69118 16.5807 7.57449C16.6599 7.34127 16.7649 7.01619 16.8679 6.64864C17.0715 5.9226 17.2771 4.99832 17.2428 4.29052C17.2093 3.59662 17.002 2.74775 16.8089 2.08474C16.7115 1.75057 16.6163 1.45857 16.5453 1.25002C16.5098 1.14568 16.4804 1.06208 16.4597 1.00437L16.4357 0.937804L16.4292 0.92026L16.4275 0.915631L16.427 0.914379L16.4269 0.914022L16.4269 0.913911L16.1958 1M1.80425 1L1.84383 0.75658L1.84393 0.756597L1.84427 0.756651L1.84538 0.756834L1.8494 0.757497L1.86439 0.760014L1.92067 0.769803C1.96927 0.778436 2.03933 0.791289 2.12612 0.808329C2.29957 0.842381 2.54054 0.89329 2.81106 0.960822C3.3459 1.09434 4.01953 1.29837 4.51089 1.57601C4.9457 1.8217 5.37768 2.19714 5.69456 2.50222C5.85458 2.65629 5.98844 2.79554 6.08245 2.89644C6.09052 2.9051 6.0983 2.91348 6.10578 2.92157C6.99115 2.51241 7.95059 2.2735 8.94658 2.2735C9.98104 2.2735 10.9772 2.51255 11.8923 2.92366C11.9004 2.91493 11.9088 2.90585 11.9176 2.89644C12.0116 2.79554 12.1454 2.65629 12.3054 2.50222C12.6223 2.19714 13.0543 1.8217 13.4891 1.57601C13.9805 1.29837 14.6541 1.09434 15.1889 0.960822C15.4595 0.89329 15.7004 0.842381 15.8739 0.808329C15.9607 0.791289 16.0307 0.778436 16.0793 0.769803L16.1356 0.760014L16.1506 0.757497L16.1546 0.756834L16.1557 0.756651L16.1561 0.756597L16.1562 0.75658L16.1958 1M1.80425 1L1.57317 0.913845L1.6439 0.724134L1.84376 0.756568L1.80425 1ZM16.1958 1L16.1562 0.756568L16.3561 0.724134L16.4268 0.913845L16.1958 1Z" stroke="white" stroke-opacity="0.68" stroke-width="0.493234"/>
</svg>
