<svg width="107" height="16" viewBox="0 0 107 16" fill="none" xmlns="http://www.w3.org/2000/svg">
<path d="M2.32403 1.3281C2.41244 1.22203 2.57412 1.22558 2.65755 1.3356C2.86143 1.60444 3.20932 2.08082 3.41164 2.45667C3.59827 2.80337 3.79032 3.30472 3.90317 3.61702C3.95418 3.75818 3.84962 3.90472 3.69952 3.90544C3.39221 3.9069 2.90538 3.90801 2.49553 3.90356C2.07748 3.89902 1.49019 3.8746 1.13516 3.85831C0.983647 3.85136 0.885493 3.69767 0.945367 3.55831C1.07437 3.25804 1.28818 2.78426 1.48552 2.45667C1.71522 2.07537 2.10167 1.5949 2.32403 1.3281Z" fill="#FF6161"/>
<path d="M8.42109 1.33396C8.33268 1.22789 8.171 1.23144 8.08756 1.34146C7.88368 1.6103 7.53579 2.08668 7.33347 2.46253C7.14685 2.80923 6.9548 3.31058 6.84195 3.62288C6.79094 3.76404 6.8955 3.91058 7.04559 3.9113C7.35291 3.91276 7.83974 3.91387 8.24959 3.90942C8.66763 3.90488 9.25493 3.88046 9.60995 3.86417C9.76147 3.85722 9.85962 3.70353 9.79975 3.56417C9.67074 3.2639 9.45694 2.79012 9.25959 2.46253C9.0299 2.08123 8.64345 1.60076 8.42109 1.33396Z" fill="#FF6161"/>
<rect x="0.926758" y="3.62939" width="8.8917" height="2.43161" fill="#FF6161"/>
<rect x="0.926758" y="9.29346" width="3.23249" height="2.43161" transform="rotate(-90 0.926758 9.29346)" fill="#FF6161"/>
<rect width="8.8917" height="2.43171" transform="matrix(1 0 0 -1 0.927734 14.541)" fill="#FF6161"/>
<rect width="3.23249" height="2.4318" transform="matrix(0 1 1 0 7.38672 8.87695)" fill="#FF6161"/>
<path d="M33.5248 7.10825V13.4235C33.5248 14.2813 33.0137 14.7559 32.1559 14.7559C31.3893 14.7559 31.006 14.2631 30.8965 13.6242C30.5132 14.4091 29.6553 14.9201 28.3412 14.9201C25.9867 14.9201 24.417 12.8576 24.417 10.1928C24.417 7.52805 25.9867 5.53857 28.2499 5.53857C29.5641 5.53857 30.4584 6.04963 30.8965 6.76146C30.9877 6.14089 31.3893 5.68459 32.1741 5.68459C33.032 5.68459 33.5248 6.2504 33.5248 7.10825ZM27.1183 10.2294C27.1183 11.6348 27.8849 12.6569 29.0165 12.6569C30.1481 12.6569 30.8782 11.6348 30.8782 10.2294C30.8782 8.82394 30.1481 7.80183 29.0165 7.80183C27.8849 7.80183 27.1183 8.82394 27.1183 10.2294Z" fill="#FF6161"/>
<path d="M45.578 13.3687V9.26199C45.578 8.47716 45.0487 7.85659 44.2273 7.85659C43.406 7.85659 42.8767 8.4589 42.8767 9.40801V13.3687C42.8767 14.2266 42.4204 14.7559 41.5625 14.7559C40.7047 14.7559 40.2301 14.2266 40.2301 13.3687V9.26199C40.2301 8.47716 39.7008 7.85659 38.8795 7.85659C38.0581 7.85659 37.5288 8.4589 37.5288 9.40801V13.3687C37.5288 14.2266 37.036 14.7559 36.1782 14.7559C35.3203 14.7559 34.8093 14.2266 34.8093 13.3687V7.09C34.8093 6.15914 35.3386 5.68459 36.1599 5.68459C36.9447 5.68459 37.4376 6.28691 37.4923 6.94398C37.9121 6.08614 38.6969 5.53857 39.9381 5.53857C41.1427 5.53857 41.8728 6.23215 42.1648 7.14476C42.7854 6.06788 43.8258 5.53857 45.2129 5.53857C46.8921 5.53857 48.2975 6.43293 48.2975 8.62317V13.3687C48.2975 14.2266 47.7865 14.7559 46.9286 14.7559C46.0525 14.7559 45.578 14.2266 45.578 13.3687Z" fill="#FF6161"/>
<path d="M18.1201 7.27423L18.1201 7.27423C17.677 7.15337 17.2617 7.00921 16.9575 6.78648C16.6547 6.56483 16.4621 6.26576 16.4621 5.83178C16.4621 5.38205 16.6663 5.09212 16.9851 4.91304C17.3059 4.73282 17.7441 4.6644 18.21 4.6644C19.2832 4.6644 19.9548 5.00004 20.6445 5.57746C20.9692 5.85345 21.332 6.05375 21.6845 6.11934C22.0379 6.18509 22.3813 6.11528 22.6624 5.85081C22.9593 5.57853 23.0586 5.23514 23.005 4.88249C22.9515 4.53093 22.7465 4.17139 22.4374 3.86226C21.5279 2.93653 20.101 2.43548 18.2584 2.43548C17.0698 2.43548 15.9594 2.70225 15.1454 3.26861C14.3303 3.83574 13.8139 4.70233 13.8139 5.89629C13.8139 6.83876 14.1636 7.58309 14.7368 8.1522C15.3094 8.72074 16.1041 9.11353 16.9938 9.35618L19.6543 10.0818C19.6543 10.0818 19.6544 10.0818 19.6544 10.0818C20.0473 10.1941 20.328 10.3414 20.5108 10.5477C20.6929 10.7534 20.7804 11.0208 20.7804 11.3792C20.7804 11.7949 20.5416 12.1222 20.172 12.3467C19.802 12.5715 19.303 12.6917 18.7906 12.6917C17.7001 12.6917 16.6271 12.2908 15.891 11.4747L15.891 11.4746C15.5826 11.1338 15.2478 10.9001 14.9023 10.8157C14.5556 10.7311 14.2011 10.7977 13.8567 11.0519C13.519 11.2991 13.3861 11.6261 13.4068 11.9753C13.4274 12.3231 13.5998 12.6909 13.868 13.0241C14.8422 14.258 16.6574 14.9206 18.6293 14.9206C20.1251 14.9206 21.3405 14.5406 22.1826 13.9075C23.0251 13.2741 23.4931 12.3878 23.4931 11.3792C23.4931 10.3822 23.2173 9.64557 22.6857 9.08947C22.1548 8.53421 21.3714 8.16168 20.3616 7.88701L18.1201 7.27423Z" fill="#FF6161" stroke="#FF6161" stroke-width="0.0518898"/>
<path d="M67.8694 9.11598H71.7024C71.7024 8.25813 70.808 7.60106 69.7859 7.60106C68.7638 7.60106 67.8694 8.25813 67.8694 9.11598ZM73.5093 13.8068C72.6697 14.5916 71.4286 14.9201 70.0414 14.9201C66.9568 14.9201 65.2959 12.9489 65.2959 10.1746C65.2959 7.49154 67.0481 5.53857 69.7859 5.53857C72.5785 5.53857 74.1664 7.43679 74.1664 9.46277C74.1664 10.4666 73.8196 10.9229 72.8157 10.9229H67.8694C67.8694 11.945 68.8185 12.8029 70.0414 12.8029C70.9905 12.8029 71.5746 12.4744 72.1587 11.9998C72.6697 11.5618 73.4181 11.5435 73.8561 12.0728C74.3124 12.5839 74.0569 13.2957 73.5093 13.8068Z" fill="#FF6161"/>
<path d="M77.4367 10.2294C77.4367 11.5252 78.1302 12.6569 79.3714 12.6569C80.5943 12.6569 81.3061 11.5252 81.3061 10.2294C81.3061 8.93346 80.5943 7.80183 79.3714 7.80183C78.1302 7.80183 77.4367 8.93346 77.4367 10.2294ZM74.7171 10.2294C74.7171 7.40028 76.5423 5.53857 79.3714 5.53857C82.2004 5.53857 84.0256 7.40028 84.0256 10.2294C84.0256 13.0584 82.2004 14.9201 79.3714 14.9201C76.5423 14.9201 74.7171 13.0584 74.7171 10.2294Z" fill="#FF6161"/>
<path d="M90.8491 9.06122L89.5897 13.3687C89.3159 14.3178 88.8231 14.7559 87.874 14.7559C86.9249 14.7559 86.3591 14.3178 86.067 13.3687L84.2966 7.45504C84.041 6.59719 84.4608 5.88536 85.3004 5.7211C86.14 5.55683 86.7058 5.99488 86.9066 6.87097L87.8557 11.288H87.8922L89.1516 7.18126C89.4436 6.2139 89.9 5.68459 90.8673 5.68459C91.8347 5.68459 92.291 6.2139 92.583 7.18126L93.8424 11.288H93.8789L94.828 6.87097C95.0288 5.99488 95.5946 5.55683 96.4342 5.7211C97.2738 5.88536 97.6936 6.59719 97.438 7.45504L95.6676 13.3687C95.3938 14.2631 94.8098 14.7559 93.8606 14.7559C92.9115 14.7559 92.4187 14.3178 92.145 13.3687L90.8856 9.06122H90.8491Z" fill="#FF6161"/>
<path d="M105.265 6.54244C105.776 7.01699 105.849 7.72882 105.356 8.22163C104.918 8.65968 104.206 8.60492 103.658 8.23988C103.111 7.87484 102.673 7.61931 101.906 7.61931C101.377 7.61931 100.866 7.74707 100.866 8.22163C100.866 8.65968 101.158 8.8422 101.632 8.98821L103.093 9.40801C104.553 9.82781 106.013 10.5944 106.013 12.2006C106.013 14.1353 104.334 14.9201 102.198 14.9201C100.483 14.9201 99.0042 14.5186 98.2741 13.5695C97.8178 12.9489 97.7448 12.2371 98.2923 11.7808C98.8399 11.3062 99.6612 11.434 100.191 12.0363C100.702 12.6021 101.45 12.8576 102.125 12.8576C102.801 12.8576 103.366 12.6386 103.366 12.1823C103.366 11.7625 102.874 11.6348 102.381 11.4705L100.811 11.0142C99.4422 10.6126 98.2193 9.82781 98.2193 8.22163C98.2193 6.28691 100.063 5.53857 101.997 5.53857C103.549 5.53857 104.608 5.95837 105.265 6.54244Z" fill="#FF6161"/>
<path d="M54.5054 6.50626L56.9543 13.6607C56.9543 13.6608 56.9543 13.6609 56.9544 13.661C57.1358 14.2378 57.6309 14.5497 58.253 14.5497C58.8751 14.5497 59.3702 14.2378 59.5516 13.661C59.5516 13.6609 59.5517 13.6608 59.5517 13.6607L62.0005 6.50626V13.3143C62.0005 13.6983 62.115 14.0275 62.3278 14.261C62.5409 14.4948 62.8506 14.6303 63.2359 14.6303C63.6213 14.6303 63.931 14.4948 64.1441 14.261C64.3569 14.0275 64.4713 13.6983 64.4713 13.3143V4.25142C64.4713 3.64226 64.3088 3.18689 63.9916 2.88411C63.6746 2.58154 63.2075 2.43548 62.607 2.43548C62.0965 2.43548 61.6716 2.52051 61.3332 2.73585C60.9943 2.95155 60.7453 3.29592 60.5827 3.80817L60.5826 3.8082L58.253 11.1828L55.9233 3.8082L55.9233 3.80817C55.7607 3.29592 55.5116 2.95155 55.1727 2.73585C54.8343 2.52051 54.4094 2.43548 53.8989 2.43548C53.2984 2.43548 52.8313 2.58154 52.5143 2.88411C52.1971 3.18689 52.0346 3.64226 52.0346 4.25142V13.3143C52.0346 13.6983 52.149 14.0275 52.3619 14.261C52.575 14.4948 52.8846 14.6303 53.27 14.6303C53.6554 14.6303 53.965 14.4948 54.1781 14.261C54.391 14.0275 54.5054 13.6983 54.5054 13.3143V6.50626Z" fill="#FF6161" stroke="#FF6161" stroke-width="0.0518898"/>
</svg>
