<svg width="113" height="25" viewBox="0 0 113 25" fill="none" xmlns="http://www.w3.org/2000/svg">
<path d="M3.0822 1.11518C3.23461 0.932315 3.51333 0.938426 3.65717 1.1281C4.00865 1.59156 4.60838 2.4128 4.95717 3.06075C5.27889 3.65843 5.60998 4.52272 5.80453 5.0611C5.89246 5.30446 5.71221 5.55708 5.45345 5.55831C4.92366 5.56083 4.0844 5.56275 3.37785 5.55508C2.65717 5.54725 1.64471 5.50515 1.03268 5.47708C0.771475 5.4651 0.602266 5.20014 0.705484 4.9599C0.927884 4.44226 1.29647 3.62549 1.63668 3.06075C2.03266 2.40342 2.69887 1.57512 3.0822 1.11518Z" fill="#FF6161"/>
<path d="M13.5926 1.12543C13.4402 0.942569 13.1615 0.94868 13.0176 1.13835C12.6662 1.60182 12.0664 2.42306 11.7176 3.071C11.3959 3.66868 11.0648 4.53297 10.8703 5.07136C10.7823 5.31472 10.9626 5.56734 11.2214 5.56857C11.7511 5.57109 12.5904 5.57301 13.297 5.56533C14.0176 5.55751 15.0301 5.51541 15.6421 5.48733C15.9033 5.47535 16.0725 5.2104 15.9693 4.97015C15.7469 4.45251 15.3783 3.63574 15.0381 3.071C14.6421 2.41367 13.9759 1.58537 13.5926 1.12543Z" fill="#FF6161"/>
<rect x="0.673828" y="5.08276" width="15.3287" height="4.19192" fill="#FF6161"/>
<rect x="0.673828" y="14.8474" width="5.57259" height="4.19192" transform="rotate(-90 0.673828 14.8474)" fill="#FF6161"/>
<rect width="15.3287" height="4.19209" transform="matrix(1 0 0 -1 0.673828 23.894)" fill="#FF6161"/>
<rect width="5.57259" height="4.19225" transform="matrix(0 1 1 0 11.8105 14.1293)" fill="#FF6161"/>
<path d="M28.5637 9.92251L28.5499 9.90336L28.5364 9.92277C27.567 11.3177 26.1008 12.5711 24.6348 13.3278L24.6347 13.3279C23.6919 13.8228 22.661 13.7026 22.17 12.9076C21.9117 12.4849 21.8477 12.0515 21.9646 11.6451C22.0817 11.2384 22.3806 10.8565 22.8519 10.5383C25.2218 8.95047 26.6723 7.19352 26.6723 4.86417V4.08263C26.6723 3.51827 26.8602 3.11499 27.187 2.85234C27.5145 2.5892 27.9839 2.46527 28.5502 2.46527C29.1164 2.46527 29.5858 2.5892 29.9133 2.85234C30.2401 3.11499 30.428 3.51827 30.428 4.08263V4.86417C30.428 7.19368 31.8076 8.8086 34.1544 10.2072C34.6251 10.4897 34.9239 10.8654 35.0409 11.275C35.1579 11.6845 35.0939 12.1297 34.8355 12.5524C34.3447 13.3471 33.3139 13.4441 32.3706 12.9725C30.951 12.2627 29.5563 11.2932 28.5637 9.92251ZM40.3039 6.26147V6.27824H40.3206H41.9547C42.4495 6.27824 42.8715 6.40195 43.1695 6.65612C43.467 6.90993 43.6432 7.29566 43.6432 7.82455C43.6432 8.35344 43.467 8.73918 43.1695 8.99299C42.8715 9.24715 42.4495 9.37086 41.9547 9.37086H40.3206H40.3039V9.38763V12.0638C40.3039 12.6162 40.1101 13.0436 39.7797 13.333C39.4489 13.6228 38.9796 13.7759 38.426 13.7759C37.8724 13.7759 37.403 13.6228 37.0723 13.333C36.7419 13.0436 36.5481 12.6162 36.5481 12.0638V3.86949C36.5481 3.31715 36.7418 2.89576 37.0722 2.61221C37.4028 2.32835 37.8722 2.18107 38.426 2.18107C38.9797 2.18107 39.4491 2.32835 39.7798 2.61221C40.1101 2.89576 40.3039 3.31715 40.3039 3.86949V6.26147ZM38.1891 23.9833H27.366C26.5977 23.9833 26.0644 23.8413 25.7228 23.5114C25.3813 23.1816 25.2276 22.6603 25.2276 21.8923V17.0609C25.2276 16.2928 25.3813 15.7776 25.7227 15.4538C26.0643 15.1297 26.5975 14.9936 27.366 14.9936H38.1891C38.9576 14.9936 39.4849 15.1297 39.8205 15.4537C40.156 15.7775 40.3039 16.2927 40.3039 17.0609V21.8923C40.3039 22.6605 40.156 23.1817 39.8204 23.5115C39.4847 23.8413 38.9575 23.9833 38.1891 23.9833ZM36.2945 17.802H29.237C29.1621 17.802 29.0984 17.827 29.0534 17.8721C29.0084 17.9171 28.9834 17.9808 28.9834 18.0556V20.9213C28.9834 20.9961 29.0084 21.0598 29.0534 21.1048C29.0984 21.1498 29.1621 21.1749 29.237 21.1749H36.2945C36.3694 21.1749 36.433 21.1498 36.4781 21.1048C36.5231 21.0598 36.5481 20.9961 36.5481 20.9213V18.0556C36.5481 17.9808 36.5231 17.9171 36.4781 17.8721C36.433 17.827 36.3694 17.802 36.2945 17.802Z" fill="#FF6161" stroke="white" stroke-width="0.0335354"/>
<mask id="path-8-inside-1_5084_4631" fill="white">
<path d="M55.0223 15.0556C59.5931 15.0556 62.6482 16.595 62.6482 19.8633C62.6482 23.1315 59.5931 24.6709 55.0223 24.6709C50.4515 24.6709 47.3964 23.1315 47.3964 19.8633C47.3964 16.595 50.4515 15.0556 55.0223 15.0556ZM58.93 12.8294V4.16143C58.93 3.04832 59.7115 2.45625 60.8246 2.45625C61.9377 2.45625 62.7193 3.04832 62.7193 4.16143V4.65877H64.4245C65.4428 4.65877 66.0586 5.06138 66.0586 6.07975C66.0586 7.09812 65.4428 7.50073 64.4245 7.50073H62.7193V9.46643H64.4245C65.4428 9.46643 66.0586 9.86904 66.0586 10.8874C66.0586 11.9058 65.4428 12.3084 64.4245 12.3084H62.7193V12.8294C62.7193 13.9425 61.9377 14.5583 60.8246 14.5583C59.7115 14.5583 58.93 13.9425 58.93 12.8294ZM49.1726 4.6114V9.72694C49.1726 9.96377 49.2436 10.0585 49.4805 10.0585H50.1436C52.0619 10.0585 54.2171 9.84535 55.7328 9.60852C56.6327 9.46643 57.3432 9.75062 57.509 10.6979C57.6985 11.6689 57.1301 12.4268 56.1591 12.5926C54.146 12.9478 51.8961 13.0899 49.8831 13.0899H47.7753C46.2122 13.0899 45.4307 12.3321 45.4307 10.769V4.6114C45.4307 3.54567 46.2359 2.88254 47.3016 2.88254C48.3674 2.88254 49.1726 3.54567 49.1726 4.6114ZM55.0223 21.7579C57.2011 21.7579 58.8353 21.2132 58.8353 19.8633C58.8353 18.5133 57.2011 17.9686 55.0223 17.9686C52.8435 17.9686 51.2093 18.5133 51.2093 19.8633C51.2093 21.2132 52.8435 21.7579 55.0223 21.7579Z"/>
</mask>
<path d="M55.0223 15.0556C59.5931 15.0556 62.6482 16.595 62.6482 19.8633C62.6482 23.1315 59.5931 24.6709 55.0223 24.6709C50.4515 24.6709 47.3964 23.1315 47.3964 19.8633C47.3964 16.595 50.4515 15.0556 55.0223 15.0556ZM58.93 12.8294V4.16143C58.93 3.04832 59.7115 2.45625 60.8246 2.45625C61.9377 2.45625 62.7193 3.04832 62.7193 4.16143V4.65877H64.4245C65.4428 4.65877 66.0586 5.06138 66.0586 6.07975C66.0586 7.09812 65.4428 7.50073 64.4245 7.50073H62.7193V9.46643H64.4245C65.4428 9.46643 66.0586 9.86904 66.0586 10.8874C66.0586 11.9058 65.4428 12.3084 64.4245 12.3084H62.7193V12.8294C62.7193 13.9425 61.9377 14.5583 60.8246 14.5583C59.7115 14.5583 58.93 13.9425 58.93 12.8294ZM49.1726 4.6114V9.72694C49.1726 9.96377 49.2436 10.0585 49.4805 10.0585H50.1436C52.0619 10.0585 54.2171 9.84535 55.7328 9.60852C56.6327 9.46643 57.3432 9.75062 57.509 10.6979C57.6985 11.6689 57.1301 12.4268 56.1591 12.5926C54.146 12.9478 51.8961 13.0899 49.8831 13.0899H47.7753C46.2122 13.0899 45.4307 12.3321 45.4307 10.769V4.6114C45.4307 3.54567 46.2359 2.88254 47.3016 2.88254C48.3674 2.88254 49.1726 3.54567 49.1726 4.6114ZM55.0223 21.7579C57.2011 21.7579 58.8353 21.2132 58.8353 19.8633C58.8353 18.5133 57.2011 17.9686 55.0223 17.9686C52.8435 17.9686 51.2093 18.5133 51.2093 19.8633C51.2093 21.2132 52.8435 21.7579 55.0223 21.7579Z" fill="#FF6161"/>
<path d="M62.7193 4.65877H62.6857V4.69231H62.7193V4.65877ZM62.7193 7.50073V7.4672H62.6857V7.50073H62.7193ZM62.7193 9.46642H62.6857V9.49996H62.7193V9.46642ZM62.7193 12.3084V12.2749H62.6857V12.3084H62.7193ZM55.7328 9.60852L55.738 9.64166L55.738 9.64165L55.7328 9.60852ZM57.509 10.6979L57.476 10.7037L57.4761 10.7044L57.509 10.6979ZM56.1591 12.5926L56.1534 12.5595L56.1533 12.5596L56.1591 12.5926ZM55.0223 15.0892C57.3048 15.0892 59.2044 15.4737 60.5322 16.2627C61.8579 17.0505 62.6147 18.2419 62.6147 19.8633H62.6818C62.6818 18.2164 61.911 17.004 60.5665 16.205C59.224 15.4073 57.3106 15.0221 55.0223 15.0221V15.0892ZM62.6147 19.8633C62.6147 21.4847 61.8579 22.6761 60.5322 23.4639C59.2044 24.2529 57.3048 24.6374 55.0223 24.6374V24.7045C57.3106 24.7045 59.224 24.3193 60.5665 23.5215C61.911 22.7226 62.6818 21.5101 62.6818 19.8633H62.6147ZM55.0223 24.6374C52.7398 24.6374 50.8402 24.2529 49.5124 23.4639C48.1866 22.6761 47.4299 21.4847 47.4299 19.8633H47.3628C47.3628 21.5101 48.1336 22.7226 49.4781 23.5215C50.8206 24.3193 52.734 24.7045 55.0223 24.7045V24.6374ZM47.4299 19.8633C47.4299 18.2419 48.1866 17.0505 49.5124 16.2627C50.8402 15.4737 52.7398 15.0892 55.0223 15.0892V15.0221C52.734 15.0221 50.8206 15.4073 49.4781 16.205C48.1336 17.004 47.3628 18.2164 47.3628 19.8633H47.4299ZM58.9635 12.8294V4.16143H58.8965V12.8294H58.9635ZM58.9635 4.16143C58.9635 3.61331 59.1556 3.19683 59.4817 2.91687C59.8086 2.63631 60.2737 2.48978 60.8246 2.48978V2.42271C60.2625 2.42271 59.7803 2.57222 59.4381 2.86598C59.0951 3.16034 58.8965 3.59644 58.8965 4.16143H58.9635ZM60.8246 2.48978C61.3756 2.48978 61.8407 2.63631 62.1675 2.91687C62.4937 3.19683 62.6857 3.61331 62.6857 4.16143H62.7528C62.7528 3.59644 62.5541 3.16034 62.2112 2.86598C61.869 2.57222 61.3868 2.42271 60.8246 2.42271V2.48978ZM62.6857 4.16143V4.65877H62.7528V4.16143H62.6857ZM62.7193 4.69231H64.4245V4.62523H62.7193V4.69231ZM64.4245 4.69231C64.9302 4.69231 65.3296 4.79242 65.6023 5.01342C65.8736 5.2333 66.0251 5.57761 66.0251 6.07975H66.0921C66.0921 5.56352 65.9357 5.19734 65.6445 4.96132C65.3547 4.72642 64.9371 4.62523 64.4245 4.62523V4.69231ZM66.0251 6.07975C66.0251 6.58189 65.8736 6.92621 65.6023 7.14608C65.3296 7.36708 64.9302 7.4672 64.4245 7.4672V7.53427C64.9371 7.53427 65.3547 7.43308 65.6445 7.19818C65.9357 6.96216 66.0921 6.59598 66.0921 6.07975H66.0251ZM64.4245 7.4672H62.7193V7.53427H64.4245V7.4672ZM62.6857 7.50073V9.46642H62.7528V7.50073H62.6857ZM62.7193 9.49996H64.4245V9.43289H62.7193V9.49996ZM64.4245 9.49996C64.9302 9.49996 65.3296 9.60008 65.6023 9.82108C65.8736 10.041 66.0251 10.3853 66.0251 10.8874H66.0921C66.0921 10.3712 65.9357 10.005 65.6445 9.76898C65.3547 9.53408 64.9371 9.43289 64.4245 9.43289V9.49996ZM66.0251 10.8874C66.0251 11.3895 65.8736 11.7339 65.6023 11.9537C65.3296 12.1747 64.9302 12.2749 64.4245 12.2749V12.3419C64.9371 12.3419 65.3547 12.2407 65.6445 12.0058C65.9357 11.7698 66.0921 11.4036 66.0921 10.8874H66.0251ZM64.4245 12.2749H62.7193V12.3419H64.4245V12.2749ZM62.6857 12.3084V12.8294H62.7528V12.3084H62.6857ZM62.6857 12.8294C62.6857 13.3776 62.4936 13.8001 62.1673 14.086C61.8403 14.3725 61.3753 14.5247 60.8246 14.5247V14.5918C61.3871 14.5918 61.8694 14.4362 62.2115 14.1365C62.5542 13.8362 62.7528 13.3943 62.7528 12.8294H62.6857ZM60.8246 14.5247C60.274 14.5247 59.8089 14.3725 59.482 14.086C59.1557 13.8001 58.9635 13.3776 58.9635 12.8294H58.8965C58.8965 13.3943 59.0951 13.8362 59.4378 14.1365C59.7799 14.4362 60.2622 14.5918 60.8246 14.5918V14.5247ZM49.1391 4.6114V9.72694H49.2061V4.6114H49.1391ZM49.1391 9.72694C49.1391 9.84678 49.1566 9.94072 49.2127 10.0038C49.2697 10.068 49.3589 10.092 49.4805 10.092V10.025C49.3652 10.025 49.3005 10.0017 49.2628 9.95925C49.2241 9.91577 49.2061 9.84393 49.2061 9.72694H49.1391ZM49.4805 10.092H50.1436V10.025H49.4805V10.092ZM50.1436 10.092C52.064 10.092 54.2209 9.8787 55.738 9.64166L55.7276 9.57539C54.2132 9.81201 52.0598 10.025 50.1436 10.025V10.092ZM55.738 9.64165C56.1839 9.57124 56.5781 9.6073 56.88 9.77406C57.1804 9.94001 57.3945 10.2382 57.476 10.7037L57.542 10.6922C57.4577 10.2104 57.2337 9.8928 56.9124 9.71535C56.5926 9.5387 56.1816 9.50371 55.7276 9.5754L55.738 9.64165ZM57.4761 10.7044C57.5692 11.1818 57.4758 11.6043 57.242 11.9276C57.0081 12.251 56.6316 12.4779 56.1534 12.5595L56.1647 12.6256C56.6576 12.5415 57.0507 12.3066 57.2964 11.9669C57.5422 11.627 57.6382 11.1851 57.5419 10.6915L57.4761 10.7044ZM56.1533 12.5596C54.1426 12.9144 51.8948 13.0564 49.8831 13.0564V13.1235C51.8975 13.1235 54.1494 12.9813 56.1649 12.6256L56.1533 12.5596ZM49.8831 13.0564H47.7753V13.1235H49.8831V13.0564ZM47.7753 13.0564C46.9987 13.0564 46.4225 12.8681 46.0404 12.4917C45.6583 12.1154 45.4642 11.5454 45.4642 10.769H45.3971C45.3971 11.5557 45.5938 12.1461 45.9933 12.5395C46.3926 12.9328 46.9888 13.1235 47.7753 13.1235V13.0564ZM45.4642 10.769V4.6114H45.3971V10.769H45.4642ZM45.4642 4.6114C45.4642 4.08755 45.6618 3.66461 45.9888 3.37233C46.3163 3.07969 46.7756 2.91608 47.3016 2.91608V2.84901C46.7619 2.84901 46.2858 3.01696 45.9441 3.32232C45.6021 3.62803 45.3971 4.06952 45.3971 4.6114H45.4642ZM47.3016 2.91608C47.8277 2.91608 48.287 3.07969 48.6144 3.37233C48.9414 3.66461 49.1391 4.08755 49.1391 4.6114H49.2061C49.2061 4.06952 49.0011 3.62803 48.6591 3.32232C48.3175 3.01696 47.8413 2.84901 47.3016 2.84901V2.91608ZM55.0223 21.7915C56.1136 21.7915 57.0724 21.6552 57.7596 21.3474C58.4481 21.0391 58.8688 20.5557 58.8688 19.8633H58.8017C58.8017 20.5208 58.4054 20.9847 57.7321 21.2862C57.0576 21.5883 56.1098 21.7244 55.0223 21.7244V21.7915ZM58.8688 19.8633C58.8688 19.1708 58.4481 18.6875 57.7596 18.3791C57.0724 18.0714 56.1136 17.9351 55.0223 17.9351V18.0022C56.1098 18.0022 57.0576 18.1382 57.7321 18.4403C58.4054 18.7418 58.8017 19.2058 58.8017 19.8633H58.8688ZM55.0223 17.9351C53.931 17.9351 52.9722 18.0714 52.285 18.3791C51.5965 18.6875 51.1758 19.1708 51.1758 19.8633H51.2429C51.2429 19.2058 51.6392 18.7418 52.3125 18.4403C52.987 18.1382 53.9348 18.0022 55.0223 18.0022V17.9351ZM51.1758 19.8633C51.1758 20.5557 51.5965 21.0391 52.285 21.3474C52.9722 21.6552 53.931 21.7915 55.0223 21.7915V21.7244C53.9348 21.7244 52.987 21.5883 52.3125 21.2862C51.6392 20.9847 51.2429 20.5208 51.2429 19.8633H51.1758Z" fill="white" mask="url(#path-8-inside-1_5084_4631)"/>
<mask id="path-10-inside-2_5084_4631" fill="white">
<path d="M83.2178 22.6816V4.20879C83.2178 3.07201 83.9993 2.45625 85.1124 2.45625C86.2492 2.45625 87.0071 3.07201 87.0071 4.20879V22.6816C87.0071 23.8183 86.2492 24.4341 85.1124 24.4341C83.9993 24.4341 83.2178 23.8183 83.2178 22.6816ZM80.4232 11.1242C80.4232 15.8372 78.4338 18.916 74.2419 18.916C70.05 18.916 68.0607 15.8372 68.0607 11.1242C68.0607 6.41131 70.05 3.33252 74.2419 3.33252C78.4338 3.33252 80.4232 6.41131 80.4232 11.1242ZM74.2419 15.7424C76.1366 15.7424 76.7286 13.682 76.7286 11.1242C76.7286 8.56647 76.1366 6.50605 74.2419 6.50605C72.3473 6.50605 71.7552 8.56647 71.7552 11.1242C71.7552 13.682 72.3473 15.7424 74.2419 15.7424Z"/>
</mask>
<path d="M83.2178 22.6816V4.20879C83.2178 3.07201 83.9993 2.45625 85.1124 2.45625C86.2492 2.45625 87.0071 3.07201 87.0071 4.20879V22.6816C87.0071 23.8183 86.2492 24.4341 85.1124 24.4341C83.9993 24.4341 83.2178 23.8183 83.2178 22.6816ZM80.4232 11.1242C80.4232 15.8372 78.4338 18.916 74.2419 18.916C70.05 18.916 68.0607 15.8372 68.0607 11.1242C68.0607 6.41131 70.05 3.33252 74.2419 3.33252C78.4338 3.33252 80.4232 6.41131 80.4232 11.1242ZM74.2419 15.7424C76.1366 15.7424 76.7286 13.682 76.7286 11.1242C76.7286 8.56647 76.1366 6.50605 74.2419 6.50605C72.3473 6.50605 71.7552 8.56647 71.7552 11.1242C71.7552 13.682 72.3473 15.7424 74.2419 15.7424Z" fill="#FF6161"/>
<path d="M83.2513 22.6816V4.20879H83.1843V22.6816H83.2513ZM83.2513 4.20879C83.2513 3.64857 83.4436 3.22012 83.7699 2.93134C84.0968 2.64206 84.5618 2.48978 85.1124 2.48978V2.42271C84.55 2.42271 84.0676 2.57831 83.7255 2.88111C83.3828 3.18441 83.1843 3.63223 83.1843 4.20879H83.2513ZM85.1124 2.48978C85.6751 2.48978 86.1399 2.64214 86.4637 2.93124C86.787 3.21987 86.9735 3.64825 86.9735 4.20879H87.0406C87.0406 3.63255 86.8483 3.18466 86.5084 2.88121C86.1691 2.57824 85.6866 2.42271 85.1124 2.42271V2.48978ZM86.9735 4.20879V22.6816H87.0406V4.20879H86.9735ZM86.9735 22.6816C86.9735 23.2421 86.787 23.6705 86.4637 23.9591C86.1399 24.2482 85.6751 24.4006 85.1124 24.4006V24.4676C85.6866 24.4676 86.1691 24.3121 86.5084 24.0091C86.8483 23.7057 87.0406 23.2578 87.0406 22.6816H86.9735ZM85.1124 24.4006C84.5618 24.4006 84.0968 24.2483 83.7699 23.959C83.4436 23.6702 83.2513 23.2418 83.2513 22.6816H83.1843C83.1843 23.2581 83.3828 23.7059 83.7255 24.0092C84.0676 24.312 84.55 24.4676 85.1124 24.4676V24.4006ZM80.3897 11.1242C80.3897 13.4767 79.8931 15.4164 78.8777 16.7673C77.8635 18.1167 76.3287 18.8824 74.2419 18.8824V18.9495C76.3471 18.9495 77.9029 18.1759 78.9313 16.8076C79.9587 15.4408 80.4567 13.4847 80.4567 11.1242H80.3897ZM74.2419 18.8824C72.1552 18.8824 70.6204 18.1167 69.6061 16.7673C68.5908 15.4164 68.0942 13.4767 68.0942 11.1242H68.0271C68.0271 13.4847 68.5252 15.4408 69.5525 16.8076C70.581 18.1759 72.1368 18.9495 74.2419 18.9495V18.8824ZM68.0942 11.1242C68.0942 8.77178 68.5908 6.83203 69.6061 5.48118C70.6204 4.13182 72.1552 3.36606 74.2419 3.36606V3.29898C72.1368 3.29898 70.581 4.07262 69.5525 5.44088C68.5252 6.80767 68.0271 8.76377 68.0271 11.1242H68.0942ZM74.2419 3.36606C76.3287 3.36606 77.8635 4.13182 78.8777 5.48118C79.8931 6.83203 80.3897 8.77178 80.3897 11.1242H80.4567C80.4567 8.76377 79.9587 6.80767 78.9313 5.44088C77.9029 4.07262 76.3471 3.29898 74.2419 3.29898V3.36606ZM74.2419 15.776C74.7221 15.776 75.1213 15.6453 75.4495 15.4077C75.7772 15.1703 76.0321 14.8277 76.2262 14.4065C76.6142 13.5651 76.7622 12.4047 76.7622 11.1242H76.6951C76.6951 12.4016 76.5471 13.5503 76.1653 14.3785C75.9746 14.7921 75.7262 15.1245 75.4101 15.3534C75.0944 15.582 74.7091 15.7089 74.2419 15.7089V15.776ZM76.7622 11.1242C76.7622 9.84382 76.6142 8.68342 76.2262 7.84194C76.0321 7.42078 75.7772 7.07814 75.4495 6.84079C75.1213 6.60319 74.7221 6.47251 74.2419 6.47251V6.53958C74.7091 6.53958 75.0944 6.66646 75.4101 6.89511C75.7262 7.12402 75.9746 7.45635 76.1653 7.87002C76.5471 8.69819 76.6951 9.84689 76.6951 11.1242H76.7622ZM74.2419 6.47251C73.7618 6.47251 73.3625 6.60319 73.0344 6.84079C72.7066 7.07814 72.4518 7.42078 72.2576 7.84194C71.8697 8.68342 71.7217 9.84382 71.7217 11.1242H71.7887C71.7887 9.84689 71.9368 8.69819 72.3185 7.87002C72.5092 7.45635 72.7576 7.12402 73.0737 6.89511C73.3895 6.66646 73.7747 6.53958 74.2419 6.53958V6.47251ZM71.7217 11.1242C71.7217 12.4047 71.8697 13.5651 72.2576 14.4065C72.4518 14.8277 72.7066 15.1703 73.0344 15.4077C73.3625 15.6453 73.7618 15.776 74.2419 15.776V15.7089C73.7747 15.7089 73.3895 15.582 73.0737 15.3534C72.7576 15.1245 72.5092 14.7921 72.3185 14.3785C71.9368 13.5503 71.7887 12.4016 71.7887 11.1242H71.7217Z" fill="white" mask="url(#path-10-inside-2_5084_4631)"/>
<mask id="path-12-inside-3_5084_4631" fill="white">
<path d="M98.4755 6.74288H93.8573C92.839 6.74288 92.1522 6.17448 92.1522 5.15611C92.1522 4.13774 92.839 3.56935 93.8573 3.56935H106.93C107.949 3.56935 108.636 4.13774 108.636 5.15611C108.636 6.17448 107.949 6.74288 106.93 6.74288H102.289C102.478 9.20591 104.799 10.769 108.067 12.0952C108.967 12.4505 109.322 13.3978 108.967 14.2504C108.612 15.103 107.736 15.3635 106.765 15.103C104.183 14.3925 101.767 12.6873 100.394 10.9348C99.0202 12.6873 96.6046 14.3925 94.0231 15.103C93.0521 15.3635 92.1759 15.103 91.8206 14.2504C91.4654 13.3978 91.8206 12.4505 92.7206 12.0952C95.9888 10.769 98.2861 9.20591 98.4755 6.74288ZM109.275 21.7106H91.5127C90.447 21.7106 89.8075 21.1658 89.8075 20.1001C89.8075 19.0344 90.447 18.4897 91.5127 18.4897H109.275C110.341 18.4897 110.98 19.0344 110.98 20.1001C110.98 21.1658 110.341 21.7106 109.275 21.7106Z"/>
</mask>
<path d="M98.4755 6.74288H93.8573C92.839 6.74288 92.1522 6.17448 92.1522 5.15611C92.1522 4.13774 92.839 3.56935 93.8573 3.56935H106.93C107.949 3.56935 108.636 4.13774 108.636 5.15611C108.636 6.17448 107.949 6.74288 106.93 6.74288H102.289C102.478 9.20591 104.799 10.769 108.067 12.0952C108.967 12.4505 109.322 13.3978 108.967 14.2504C108.612 15.103 107.736 15.3635 106.765 15.103C104.183 14.3925 101.767 12.6873 100.394 10.9348C99.0202 12.6873 96.6046 14.3925 94.0231 15.103C93.0521 15.3635 92.1759 15.103 91.8206 14.2504C91.4654 13.3978 91.8206 12.4505 92.7206 12.0952C95.9888 10.769 98.2861 9.20591 98.4755 6.74288ZM109.275 21.7106H91.5127C90.447 21.7106 89.8075 21.1658 89.8075 20.1001C89.8075 19.0344 90.447 18.4897 91.5127 18.4897H109.275C110.341 18.4897 110.98 19.0344 110.98 20.1001C110.98 21.1658 110.341 21.7106 109.275 21.7106Z" fill="#FF6161"/>
<path d="M98.4755 6.74288L98.509 6.74545L98.5118 6.70934H98.4755V6.74288ZM102.289 6.74288V6.70934H102.252L102.255 6.74545L102.289 6.74288ZM108.067 12.0952L108.055 12.1263L108.055 12.1264L108.067 12.0952ZM108.967 14.2504L108.998 14.2633L108.967 14.2504ZM106.765 15.103L106.756 15.1353L106.756 15.1354L106.765 15.103ZM100.394 10.9348L100.42 10.9141L100.394 10.8804L100.367 10.9141L100.394 10.9348ZM94.0231 15.103L94.0318 15.1354L94.032 15.1353L94.0231 15.103ZM91.8206 14.2504L91.8516 14.2375L91.8206 14.2504ZM92.7206 12.0952L92.7329 12.1264L92.7332 12.1263L92.7206 12.0952ZM98.4755 6.70934H93.8573V6.77641H98.4755V6.70934ZM93.8573 6.70934C93.3542 6.70934 92.9367 6.56896 92.6453 6.30647C92.3545 6.04441 92.1857 5.65736 92.1857 5.15611H92.1186C92.1186 5.67324 92.2933 6.07957 92.6004 6.3563C92.9071 6.6326 93.3421 6.77641 93.8573 6.77641V6.70934ZM92.1857 5.15611C92.1857 4.65487 92.3545 4.26782 92.6453 4.00576C92.9367 3.74327 93.3542 3.60289 93.8573 3.60289V3.53581C93.3421 3.53581 92.9071 3.67963 92.6004 3.95593C92.2933 4.23266 92.1186 4.63899 92.1186 5.15611H92.1857ZM93.8573 3.60289H106.93V3.53581H93.8573V3.60289ZM106.93 3.60289C107.434 3.60289 107.851 3.74327 108.142 4.00576C108.433 4.26782 108.602 4.65487 108.602 5.15611H108.669C108.669 4.63899 108.494 4.23266 108.187 3.95593C107.881 3.67963 107.446 3.53581 106.93 3.53581V3.60289ZM108.602 5.15611C108.602 5.65736 108.433 6.04441 108.142 6.30647C107.851 6.56896 107.434 6.70934 106.93 6.70934V6.77641C107.446 6.77641 107.881 6.6326 108.187 6.3563C108.494 6.07957 108.669 5.67324 108.669 5.15611H108.602ZM106.93 6.70934H102.289V6.77641H106.93V6.70934ZM102.255 6.74545C102.351 7.98818 102.984 9.00235 104.002 9.87086C105.018 10.7388 106.419 11.4627 108.055 12.1263L108.08 12.0642C106.447 11.4015 105.053 10.6808 104.045 9.81985C103.037 8.9595 102.416 7.96061 102.322 6.7403L102.255 6.74545ZM108.055 12.1264C108.936 12.4744 109.285 13.4013 108.936 14.2375L108.998 14.2633C109.36 13.3943 108.998 12.4265 108.079 12.064L108.055 12.1264ZM108.936 14.2375C108.762 14.6551 108.461 14.9266 108.085 15.0626C107.709 15.1988 107.254 15.1996 106.773 15.0706L106.756 15.1354C107.246 15.2669 107.715 15.2677 108.108 15.1256C108.502 14.9833 108.817 14.6983 108.998 14.2633L108.936 14.2375ZM106.773 15.0707C104.199 14.3621 101.789 12.661 100.42 10.9141L100.367 10.9555C101.745 12.7136 104.167 14.4229 106.756 15.1353L106.773 15.0707ZM100.367 10.9141C98.9982 12.661 96.5887 14.3621 94.0142 15.0707L94.032 15.1353C96.6205 14.4229 99.0423 12.7136 100.42 10.9555L100.367 10.9141ZM94.0144 15.0706C93.5338 15.1996 93.0792 15.1988 92.7024 15.0626C92.3263 14.9266 92.0256 14.6551 91.8516 14.2375L91.7897 14.2633C91.9709 14.6983 92.2859 14.9833 92.6796 15.1256C93.0724 15.2677 93.5415 15.2669 94.0318 15.1354L94.0144 15.0706ZM91.8516 14.2375C91.5031 13.4013 91.8513 12.4744 92.7329 12.1264L92.7082 12.064C91.7899 12.4265 91.4276 13.3943 91.7897 14.2633L91.8516 14.2375ZM92.7332 12.1263C94.3685 11.4627 95.7638 10.7388 96.7744 9.87079C97.7858 9.00223 98.4134 7.98807 98.509 6.74545L98.4421 6.7403C98.3482 7.96072 97.7325 8.95961 96.7307 9.81991C95.7283 10.6808 94.3409 11.4015 92.708 12.0642L92.7332 12.1263ZM109.275 21.677H91.5127V21.7441H109.275V21.677ZM91.5127 21.677C90.9852 21.677 90.5681 21.5422 90.2832 21.2803C89.9987 21.0188 89.8411 20.6261 89.8411 20.1001H89.774C89.774 20.6398 89.9361 21.0524 90.2378 21.3297C90.539 21.6065 90.9745 21.7441 91.5127 21.7441V21.677ZM89.8411 20.1001C89.8411 19.5741 89.9987 19.1814 90.2832 18.9199C90.5681 18.658 90.9852 18.5232 91.5127 18.5232V18.4561C90.9745 18.4561 90.539 18.5937 90.2378 18.8705C89.9361 19.1478 89.774 19.5604 89.774 20.1001H89.8411ZM91.5127 18.5232H109.275V18.4561H91.5127V18.5232ZM109.275 18.5232C109.803 18.5232 110.22 18.658 110.505 18.9199C110.789 19.1814 110.947 19.5741 110.947 20.1001H111.014C111.014 19.5604 110.852 19.1478 110.55 18.8705C110.249 18.5937 109.813 18.4561 109.275 18.4561V18.5232ZM110.947 20.1001C110.947 20.6261 110.789 21.0188 110.505 21.2803C110.22 21.5422 109.803 21.677 109.275 21.677V21.7441C109.813 21.7441 110.249 21.6065 110.55 21.3297C110.852 21.0524 111.014 20.6398 111.014 20.1001H110.947Z" fill="white" mask="url(#path-12-inside-3_5084_4631)"/>
</svg>
