<svg width="10" height="14" viewBox="0 0 10 14" fill="none" xmlns="http://www.w3.org/2000/svg">
<path d="M2.32403 0.328104C2.41244 0.222031 2.57412 0.225576 2.65755 0.335599C2.86143 0.604442 3.20932 1.08082 3.41164 1.45667C3.59827 1.80337 3.79032 2.30472 3.90317 2.61702C3.95418 2.75818 3.84962 2.90472 3.69952 2.90544C3.39221 2.9069 2.90538 2.90801 2.49553 2.90356C2.07748 2.89902 1.49019 2.8746 1.13516 2.85831C0.983647 2.85136 0.885493 2.69767 0.945367 2.55831C1.07437 2.25804 1.28818 1.78426 1.48552 1.45667C1.71522 1.07537 2.10167 0.594903 2.32403 0.328104Z" fill="#FF6161"/>
<path d="M8.42109 0.333963C8.33268 0.227891 8.171 0.231435 8.08756 0.341459C7.88368 0.610302 7.53579 1.08668 7.33347 1.46253C7.14685 1.80923 6.9548 2.31058 6.84195 2.62288C6.79094 2.76404 6.8955 2.91058 7.04559 2.9113C7.35291 2.91276 7.83974 2.91387 8.24959 2.90942C8.66763 2.90488 9.25493 2.88046 9.60995 2.86417C9.76147 2.85722 9.85962 2.70353 9.79975 2.56417C9.67074 2.2639 9.45694 1.79012 9.25959 1.46253C9.0299 1.08123 8.64345 0.600762 8.42109 0.333963Z" fill="#FF6161"/>
<rect x="0.926758" y="2.62939" width="8.8917" height="2.43161" fill="#FF6161"/>
<rect x="0.926758" y="8.29346" width="3.23249" height="2.43161" transform="rotate(-90 0.926758 8.29346)" fill="#FF6161"/>
<rect width="8.8917" height="2.43171" transform="matrix(1 0 0 -1 0.927734 13.541)" fill="#FF6161"/>
<rect width="3.23249" height="2.4318" transform="matrix(0 1 1 0 7.38672 7.87695)" fill="#FF6161"/>
</svg>
