<svg width="530" height="342" viewBox="0 0 530 342" fill="none" xmlns="http://www.w3.org/2000/svg" xmlns:xlink="http://www.w3.org/1999/xlink">
<g filter="url(#filter0_d_5084_4756)">
<rect x="32.5" y="32" width="465" height="278" rx="34" fill="white"/>
<rect x="36.5" y="36" width="457" height="270" rx="30" fill="url(#paint0_linear_5084_4756)"/>
<rect x="396.5" y="56" width="79" height="34" rx="10" fill="#FF6161"/>
<path d="M420.745 66.49L416.047 79H413.671L408.955 66.49H411.151L414.859 76.894L418.585 66.49H420.745ZM423.505 67.768C423.133 67.768 422.821 67.642 422.569 67.39C422.317 67.138 422.191 66.826 422.191 66.454C422.191 66.082 422.317 65.77 422.569 65.518C422.821 65.266 423.133 65.14 423.505 65.14C423.865 65.14 424.171 65.266 424.423 65.518C424.675 65.77 424.801 66.082 424.801 66.454C424.801 66.826 424.675 67.138 424.423 67.39C424.171 67.642 423.865 67.768 423.505 67.768ZM424.513 69.082V79H422.461V69.082H424.513ZM430.807 79.162C430.027 79.162 429.325 79.024 428.701 78.748C428.089 78.46 427.603 78.076 427.243 77.596C426.883 77.104 426.691 76.558 426.667 75.958H428.791C428.827 76.378 429.025 76.732 429.385 77.02C429.757 77.296 430.219 77.434 430.771 77.434C431.347 77.434 431.791 77.326 432.103 77.11C432.427 76.882 432.589 76.594 432.589 76.246C432.589 75.874 432.409 75.598 432.049 75.418C431.701 75.238 431.143 75.04 430.375 74.824C429.631 74.62 429.025 74.422 428.557 74.23C428.089 74.038 427.681 73.744 427.333 73.348C426.997 72.952 426.829 72.43 426.829 71.782C426.829 71.254 426.985 70.774 427.297 70.342C427.609 69.898 428.053 69.55 428.629 69.298C429.217 69.046 429.889 68.92 430.645 68.92C431.773 68.92 432.679 69.208 433.363 69.784C434.059 70.348 434.431 71.122 434.479 72.106H432.427C432.391 71.662 432.211 71.308 431.887 71.044C431.563 70.78 431.125 70.648 430.573 70.648C430.033 70.648 429.619 70.75 429.331 70.954C429.043 71.158 428.899 71.428 428.899 71.764C428.899 72.028 428.995 72.25 429.187 72.43C429.379 72.61 429.613 72.754 429.889 72.862C430.165 72.958 430.573 73.084 431.113 73.24C431.833 73.432 432.421 73.63 432.877 73.834C433.345 74.026 433.747 74.314 434.083 74.698C434.419 75.082 434.593 75.592 434.605 76.228C434.605 76.792 434.449 77.296 434.137 77.74C433.825 78.184 433.381 78.532 432.805 78.784C432.241 79.036 431.575 79.162 430.807 79.162ZM437.867 67.768C437.495 67.768 437.183 67.642 436.931 67.39C436.679 67.138 436.553 66.826 436.553 66.454C436.553 66.082 436.679 65.77 436.931 65.518C437.183 65.266 437.495 65.14 437.867 65.14C438.227 65.14 438.533 65.266 438.785 65.518C439.037 65.77 439.163 66.082 439.163 66.454C439.163 66.826 439.037 67.138 438.785 67.39C438.533 67.642 438.227 67.768 437.867 67.768ZM438.875 69.082V79H436.823V69.082H438.875ZM445.871 79.162C444.935 79.162 444.089 78.952 443.333 78.532C442.577 78.1 441.983 77.5 441.551 76.732C441.119 75.952 440.903 75.052 440.903 74.032C440.903 73.024 441.125 72.13 441.569 71.35C442.013 70.57 442.619 69.97 443.387 69.55C444.155 69.13 445.013 68.92 445.961 68.92C446.909 68.92 447.767 69.13 448.535 69.55C449.303 69.97 449.909 70.57 450.353 71.35C450.797 72.13 451.019 73.024 451.019 74.032C451.019 75.04 450.791 75.934 450.335 76.714C449.879 77.494 449.255 78.1 448.463 78.532C447.683 78.952 446.819 79.162 445.871 79.162ZM445.871 77.38C446.399 77.38 446.891 77.254 447.347 77.002C447.815 76.75 448.193 76.372 448.481 75.868C448.769 75.364 448.913 74.752 448.913 74.032C448.913 73.312 448.775 72.706 448.499 72.214C448.223 71.71 447.857 71.332 447.401 71.08C446.945 70.828 446.453 70.702 445.925 70.702C445.397 70.702 444.905 70.828 444.449 71.08C444.005 71.332 443.651 71.71 443.387 72.214C443.123 72.706 442.991 73.312 442.991 74.032C442.991 75.1 443.261 75.928 443.801 76.516C444.353 77.092 445.043 77.38 445.871 77.38ZM458.051 68.92C458.831 68.92 459.527 69.082 460.139 69.406C460.763 69.73 461.249 70.21 461.597 70.846C461.945 71.482 462.119 72.25 462.119 73.15V79H460.085V73.456C460.085 72.568 459.863 71.89 459.419 71.422C458.975 70.942 458.369 70.702 457.601 70.702C456.833 70.702 456.221 70.942 455.765 71.422C455.321 71.89 455.099 72.568 455.099 73.456V79H453.047V69.082H455.099V70.216C455.435 69.808 455.861 69.49 456.377 69.262C456.905 69.034 457.463 68.92 458.051 68.92Z" fill="white"/>
<rect x="61.5752" y="117.809" width="88.4333" height="88.4347" fill="url(#pattern0_5084_4756)"/>
<mask id="mask0_5084_4756" style="mask-type:alpha" maskUnits="userSpaceOnUse" x="61" y="117" width="90" height="90">
<rect x="61.5791" y="117.81" width="88.4333" height="88.4347" fill="url(#pattern1_5084_4756)"/>
</mask>
<g mask="url(#mask0_5084_4756)">
<g style="mix-blend-mode:hard-light">
<rect x="61.7959" y="117.81" width="88" height="88.4347" fill="url(#paint1_linear_5084_4756)"/>
</g>
</g>
<path d="M78.028 226.71V228.756H73.958V242H71.45V228.756H67.358V226.71H78.028ZM85.826 242.198C84.682 242.198 83.648 241.941 82.724 241.428C81.8 240.9 81.074 240.167 80.546 239.228C80.018 238.275 79.754 237.175 79.754 235.928C79.754 234.696 80.0253 233.603 80.568 232.65C81.1106 231.697 81.8513 230.963 82.79 230.45C83.7286 229.937 84.7773 229.68 85.936 229.68C87.0946 229.68 88.1433 229.937 89.082 230.45C90.0206 230.963 90.7613 231.697 91.304 232.65C91.8466 233.603 92.118 234.696 92.118 235.928C92.118 237.16 91.8393 238.253 91.282 239.206C90.7246 240.159 89.962 240.9 88.994 241.428C88.0406 241.941 86.9846 242.198 85.826 242.198ZM85.826 240.02C86.4713 240.02 87.0726 239.866 87.63 239.558C88.202 239.25 88.664 238.788 89.016 238.172C89.368 237.556 89.544 236.808 89.544 235.928C89.544 235.048 89.3753 234.307 89.038 233.706C88.7006 233.09 88.2533 232.628 87.696 232.32C87.1386 232.012 86.5373 231.858 85.892 231.858C85.2466 231.858 84.6453 232.012 84.088 232.32C83.5453 232.628 83.1126 233.09 82.79 233.706C82.4673 234.307 82.306 235.048 82.306 235.928C82.306 237.233 82.636 238.245 83.296 238.964C83.9706 239.668 84.814 240.02 85.826 240.02ZM102.82 231.682C103.245 231.095 103.825 230.619 104.558 230.252C105.306 229.871 106.135 229.68 107.044 229.68C108.115 229.68 109.083 229.937 109.948 230.45C110.813 230.963 111.495 231.697 111.994 232.65C112.493 233.589 112.742 234.667 112.742 235.884C112.742 237.101 112.493 238.194 111.994 239.162C111.495 240.115 110.806 240.863 109.926 241.406C109.061 241.934 108.1 242.198 107.044 242.198C106.105 242.198 105.269 242.015 104.536 241.648C103.817 241.281 103.245 240.812 102.82 240.24V242H100.312V225.72H102.82V231.682ZM110.19 235.884C110.19 235.048 110.014 234.329 109.662 233.728C109.325 233.112 108.87 232.65 108.298 232.342C107.741 232.019 107.139 231.858 106.494 231.858C105.863 231.858 105.262 232.019 104.69 232.342C104.133 232.665 103.678 233.134 103.326 233.75C102.989 234.366 102.82 235.092 102.82 235.928C102.82 236.764 102.989 237.497 103.326 238.128C103.678 238.744 104.133 239.213 104.69 239.536C105.262 239.859 105.863 240.02 106.494 240.02C107.139 240.02 107.741 239.859 108.298 239.536C108.87 239.199 109.325 238.715 109.662 238.084C110.014 237.453 110.19 236.72 110.19 235.884ZM126.332 235.642C126.332 236.097 126.303 236.507 126.244 236.874H116.982C117.056 237.842 117.415 238.619 118.06 239.206C118.706 239.793 119.498 240.086 120.436 240.086C121.786 240.086 122.739 239.521 123.296 238.392H126.002C125.636 239.507 124.968 240.423 124 241.142C123.047 241.846 121.859 242.198 120.436 242.198C119.278 242.198 118.236 241.941 117.312 241.428C116.403 240.9 115.684 240.167 115.156 239.228C114.643 238.275 114.386 237.175 114.386 235.928C114.386 234.681 114.636 233.589 115.134 232.65C115.648 231.697 116.359 230.963 117.268 230.45C118.192 229.937 119.248 229.68 120.436 229.68C121.58 229.68 122.6 229.929 123.494 230.428C124.389 230.927 125.086 231.631 125.584 232.54C126.083 233.435 126.332 234.469 126.332 235.642ZM123.714 234.85C123.7 233.926 123.37 233.185 122.724 232.628C122.079 232.071 121.28 231.792 120.326 231.792C119.461 231.792 118.72 232.071 118.104 232.628C117.488 233.171 117.122 233.911 117.004 234.85H123.714ZM127.964 235.928C127.964 234.681 128.214 233.589 128.712 232.65C129.226 231.697 129.93 230.963 130.824 230.45C131.719 229.937 132.746 229.68 133.904 229.68C135.371 229.68 136.581 230.032 137.534 230.736C138.502 231.425 139.155 232.415 139.492 233.706H136.786C136.566 233.105 136.214 232.635 135.73 232.298C135.246 231.961 134.638 231.792 133.904 231.792C132.878 231.792 132.056 232.159 131.44 232.892C130.839 233.611 130.538 234.623 130.538 235.928C130.538 237.233 130.839 238.253 131.44 238.986C132.056 239.719 132.878 240.086 133.904 240.086C135.356 240.086 136.317 239.448 136.786 238.172H139.492C139.14 239.404 138.48 240.387 137.512 241.12C136.544 241.839 135.342 242.198 133.904 242.198C132.746 242.198 131.719 241.941 130.824 241.428C129.93 240.9 129.226 240.167 128.712 239.228C128.214 238.275 127.964 237.175 127.964 235.928ZM147.25 242.198C146.106 242.198 145.072 241.941 144.148 241.428C143.224 240.9 142.498 240.167 141.97 239.228C141.442 238.275 141.178 237.175 141.178 235.928C141.178 234.696 141.449 233.603 141.992 232.65C142.534 231.697 143.275 230.963 144.214 230.45C145.152 229.937 146.201 229.68 147.36 229.68C148.518 229.68 149.567 229.937 150.506 230.45C151.444 230.963 152.185 231.697 152.728 232.65C153.27 233.603 153.542 234.696 153.542 235.928C153.542 237.16 153.263 238.253 152.706 239.206C152.148 240.159 151.386 240.9 150.418 241.428C149.464 241.941 148.408 242.198 147.25 242.198ZM147.25 240.02C147.895 240.02 148.496 239.866 149.054 239.558C149.626 239.25 150.088 238.788 150.44 238.172C150.792 237.556 150.968 236.808 150.968 235.928C150.968 235.048 150.799 234.307 150.462 233.706C150.124 233.09 149.677 232.628 149.12 232.32C148.562 232.012 147.961 231.858 147.316 231.858C146.67 231.858 146.069 232.012 145.512 232.32C144.969 232.628 144.536 233.09 144.214 233.706C143.891 234.307 143.73 235.048 143.73 235.928C143.73 237.233 144.06 238.245 144.72 238.964C145.394 239.668 146.238 240.02 147.25 240.02ZM170.695 229.68C171.648 229.68 172.499 229.878 173.247 230.274C174.01 230.67 174.604 231.257 175.029 232.034C175.469 232.811 175.689 233.75 175.689 234.85V242H173.203V235.224C173.203 234.139 172.932 233.31 172.389 232.738C171.846 232.151 171.106 231.858 170.167 231.858C169.228 231.858 168.48 232.151 167.923 232.738C167.38 233.31 167.109 234.139 167.109 235.224V242H164.623V235.224C164.623 234.139 164.352 233.31 163.809 232.738C163.266 232.151 162.526 231.858 161.587 231.858C160.648 231.858 159.9 232.151 159.343 232.738C158.8 233.31 158.529 234.139 158.529 235.224V242H156.021V229.878H158.529V231.264C158.94 230.765 159.46 230.377 160.091 230.098C160.722 229.819 161.396 229.68 162.115 229.68C163.083 229.68 163.948 229.885 164.711 230.296C165.474 230.707 166.06 231.301 166.471 232.078C166.838 231.345 167.41 230.765 168.187 230.34C168.964 229.9 169.8 229.68 170.695 229.68ZM189.99 235.642C189.99 236.097 189.961 236.507 189.902 236.874H180.64C180.714 237.842 181.073 238.619 181.718 239.206C182.364 239.793 183.156 240.086 184.094 240.086C185.444 240.086 186.397 239.521 186.954 238.392H189.66C189.294 239.507 188.626 240.423 187.658 241.142C186.705 241.846 185.517 242.198 184.094 242.198C182.936 242.198 181.894 241.941 180.97 241.428C180.061 240.9 179.342 240.167 178.814 239.228C178.301 238.275 178.044 237.175 178.044 235.928C178.044 234.681 178.294 233.589 178.792 232.65C179.306 231.697 180.017 230.963 180.926 230.45C181.85 229.937 182.906 229.68 184.094 229.68C185.238 229.68 186.258 229.929 187.152 230.428C188.047 230.927 188.744 231.631 189.242 232.54C189.741 233.435 189.99 234.469 189.99 235.642ZM187.372 234.85C187.358 233.926 187.028 233.185 186.382 232.628C185.737 232.071 184.938 231.792 183.984 231.792C183.119 231.792 182.378 232.071 181.762 232.628C181.146 233.171 180.78 233.911 180.662 234.85H187.372ZM197.337 235.884C197.337 234.667 197.587 233.589 198.085 232.65C198.599 231.711 199.288 230.985 200.153 230.472C201.033 229.944 202.001 229.68 203.057 229.68C204.011 229.68 204.839 229.871 205.543 230.252C206.262 230.619 206.834 231.081 207.259 231.638V229.878H209.789V242H207.259V240.196C206.834 240.768 206.255 241.245 205.521 241.626C204.788 242.007 203.952 242.198 203.013 242.198C201.972 242.198 201.019 241.934 200.153 241.406C199.288 240.863 198.599 240.115 198.085 239.162C197.587 238.194 197.337 237.101 197.337 235.884ZM207.259 235.928C207.259 235.092 207.083 234.366 206.731 233.75C206.394 233.134 205.947 232.665 205.389 232.342C204.832 232.019 204.231 231.858 203.585 231.858C202.94 231.858 202.339 232.019 201.781 232.342C201.224 232.65 200.769 233.112 200.417 233.728C200.08 234.329 199.911 235.048 199.911 235.884C199.911 236.72 200.08 237.453 200.417 238.084C200.769 238.715 201.224 239.199 201.781 239.536C202.353 239.859 202.955 240.02 203.585 240.02C204.231 240.02 204.832 239.859 205.389 239.536C205.947 239.213 206.394 238.744 206.731 238.128C207.083 237.497 207.259 236.764 207.259 235.928ZM219.2 229.68C220.153 229.68 221.004 229.878 221.752 230.274C222.514 230.67 223.108 231.257 223.534 232.034C223.959 232.811 224.172 233.75 224.172 234.85V242H221.686V235.224C221.686 234.139 221.414 233.31 220.872 232.738C220.329 232.151 219.588 231.858 218.65 231.858C217.711 231.858 216.963 232.151 216.406 232.738C215.863 233.31 215.592 234.139 215.592 235.224V242H213.084V229.878H215.592V231.264C216.002 230.765 216.523 230.377 217.154 230.098C217.799 229.819 218.481 229.68 219.2 229.68ZM244.196 235.642C244.196 236.097 244.166 236.507 244.108 236.874H234.846C234.919 237.842 235.278 238.619 235.924 239.206C236.569 239.793 237.361 240.086 238.3 240.086C239.649 240.086 240.602 239.521 241.16 238.392H243.866C243.499 239.507 242.832 240.423 241.864 241.142C240.91 241.846 239.722 242.198 238.3 242.198C237.141 242.198 236.1 241.941 235.176 241.428C234.266 240.9 233.548 240.167 233.02 239.228C232.506 238.275 232.25 237.175 232.25 235.928C232.25 234.681 232.499 233.589 232.998 232.65C233.511 231.697 234.222 230.963 235.132 230.45C236.056 229.937 237.112 229.68 238.3 229.68C239.444 229.68 240.463 229.929 241.358 230.428C242.252 230.927 242.949 231.631 243.448 232.54C243.946 233.435 244.196 234.469 244.196 235.642ZM241.578 234.85C241.563 233.926 241.233 233.185 240.588 232.628C239.942 232.071 239.143 231.792 238.19 231.792C237.324 231.792 236.584 232.071 235.968 232.628C235.352 233.171 234.985 233.911 234.868 234.85H241.578ZM261.338 229.68C262.291 229.68 263.142 229.878 263.89 230.274C264.652 230.67 265.246 231.257 265.672 232.034C266.112 232.811 266.332 233.75 266.332 234.85V242H263.846V235.224C263.846 234.139 263.574 233.31 263.032 232.738C262.489 232.151 261.748 231.858 260.81 231.858C259.871 231.858 259.123 232.151 258.566 232.738C258.023 233.31 257.752 234.139 257.752 235.224V242H255.266V235.224C255.266 234.139 254.994 233.31 254.452 232.738C253.909 232.151 253.168 231.858 252.23 231.858C251.291 231.858 250.543 232.151 249.986 232.738C249.443 233.31 249.172 234.139 249.172 235.224V242H246.664V229.878H249.172V231.264C249.582 230.765 250.103 230.377 250.734 230.098C251.364 229.819 252.039 229.68 252.758 229.68C253.726 229.68 254.591 229.885 255.354 230.296C256.116 230.707 256.703 231.301 257.114 232.078C257.48 231.345 258.052 230.765 258.83 230.34C259.607 229.9 260.443 229.68 261.338 229.68ZM274.781 242.198C273.637 242.198 272.603 241.941 271.679 241.428C270.755 240.9 270.029 240.167 269.501 239.228C268.973 238.275 268.709 237.175 268.709 235.928C268.709 234.696 268.98 233.603 269.523 232.65C270.066 231.697 270.806 230.963 271.745 230.45C272.684 229.937 273.732 229.68 274.891 229.68C276.05 229.68 277.098 229.937 278.037 230.45C278.976 230.963 279.716 231.697 280.259 232.65C280.802 233.603 281.073 234.696 281.073 235.928C281.073 237.16 280.794 238.253 280.237 239.206C279.68 240.159 278.917 240.9 277.949 241.428C276.996 241.941 275.94 242.198 274.781 242.198ZM274.781 240.02C275.426 240.02 276.028 239.866 276.585 239.558C277.157 239.25 277.619 238.788 277.971 238.172C278.323 237.556 278.499 236.808 278.499 235.928C278.499 235.048 278.33 234.307 277.993 233.706C277.656 233.09 277.208 232.628 276.651 232.32C276.094 232.012 275.492 231.858 274.847 231.858C274.202 231.858 273.6 232.012 273.043 232.32C272.5 232.628 272.068 233.09 271.745 233.706C271.422 234.307 271.261 235.048 271.261 235.928C271.261 237.233 271.591 238.245 272.251 238.964C272.926 239.668 273.769 240.02 274.781 240.02ZM286.478 231.924V238.634C286.478 239.089 286.581 239.419 286.786 239.624C287.006 239.815 287.373 239.91 287.886 239.91H289.426V242H287.446C286.317 242 285.452 241.736 284.85 241.208C284.249 240.68 283.948 239.822 283.948 238.634V231.924H282.518V229.878H283.948V226.864H286.478V229.878H289.426V231.924H286.478ZM293.014 228.272C292.559 228.272 292.178 228.118 291.87 227.81C291.562 227.502 291.408 227.121 291.408 226.666C291.408 226.211 291.562 225.83 291.87 225.522C292.178 225.214 292.559 225.06 293.014 225.06C293.454 225.06 293.828 225.214 294.136 225.522C294.444 225.83 294.598 226.211 294.598 226.666C294.598 227.121 294.444 227.502 294.136 227.81C293.828 228.118 293.454 228.272 293.014 228.272ZM294.246 229.878V242H291.738V229.878H294.246ZM302.797 242.198C301.653 242.198 300.619 241.941 299.695 241.428C298.771 240.9 298.045 240.167 297.517 239.228C296.989 238.275 296.725 237.175 296.725 235.928C296.725 234.696 296.996 233.603 297.539 232.65C298.081 231.697 298.822 230.963 299.761 230.45C300.699 229.937 301.748 229.68 302.907 229.68C304.065 229.68 305.114 229.937 306.053 230.45C306.991 230.963 307.732 231.697 308.275 232.65C308.817 233.603 309.089 234.696 309.089 235.928C309.089 237.16 308.81 238.253 308.253 239.206C307.695 240.159 306.933 240.9 305.965 241.428C305.011 241.941 303.955 242.198 302.797 242.198ZM302.797 240.02C303.442 240.02 304.043 239.866 304.601 239.558C305.173 239.25 305.635 238.788 305.987 238.172C306.339 237.556 306.515 236.808 306.515 235.928C306.515 235.048 306.346 234.307 306.009 233.706C305.671 233.09 305.224 232.628 304.667 232.32C304.109 232.012 303.508 231.858 302.863 231.858C302.217 231.858 301.616 232.012 301.059 232.32C300.516 232.628 300.083 233.09 299.761 233.706C299.438 234.307 299.277 235.048 299.277 235.928C299.277 237.233 299.607 238.245 300.267 238.964C300.941 239.668 301.785 240.02 302.797 240.02ZM317.684 229.68C318.637 229.68 319.488 229.878 320.236 230.274C320.999 230.67 321.593 231.257 322.018 232.034C322.443 232.811 322.656 233.75 322.656 234.85V242H320.17V235.224C320.17 234.139 319.899 233.31 319.356 232.738C318.813 232.151 318.073 231.858 317.134 231.858C316.195 231.858 315.447 232.151 314.89 232.738C314.347 233.31 314.076 234.139 314.076 235.224V242H311.568V229.878H314.076V231.264C314.487 230.765 315.007 230.377 315.638 230.098C316.283 229.819 316.965 229.68 317.684 229.68ZM325.019 235.884C325.019 234.667 325.268 233.589 325.767 232.65C326.28 231.711 326.97 230.985 327.835 230.472C328.715 229.944 329.683 229.68 330.739 229.68C331.692 229.68 332.521 229.871 333.225 230.252C333.944 230.619 334.516 231.081 334.941 231.638V229.878H337.471V242H334.941V240.196C334.516 240.768 333.936 241.245 333.203 241.626C332.47 242.007 331.634 242.198 330.695 242.198C329.654 242.198 328.7 241.934 327.835 241.406C326.97 240.863 326.28 240.115 325.767 239.162C325.268 238.194 325.019 237.101 325.019 235.884ZM334.941 235.928C334.941 235.092 334.765 234.366 334.413 233.75C334.076 233.134 333.628 232.665 333.071 232.342C332.514 232.019 331.912 231.858 331.267 231.858C330.622 231.858 330.02 232.019 329.463 232.342C328.906 232.65 328.451 233.112 328.099 233.728C327.762 234.329 327.593 235.048 327.593 235.884C327.593 236.72 327.762 237.453 328.099 238.084C328.451 238.715 328.906 239.199 329.463 239.536C330.035 239.859 330.636 240.02 331.267 240.02C331.912 240.02 332.514 239.859 333.071 239.536C333.628 239.213 334.076 238.744 334.413 238.128C334.765 237.497 334.941 236.764 334.941 235.928ZM343.273 225.72V242H340.765V225.72H343.273ZM361.499 238.876H355.097L353.997 242H351.379L356.857 226.688H359.761L365.239 242H362.599L361.499 238.876ZM360.795 236.83L358.309 229.724L355.801 236.83H360.795ZM370.129 226.71V242H367.621V226.71H370.129ZM71.076 260.924V267.634C71.076 268.089 71.1787 268.419 71.384 268.624C71.604 268.815 71.9707 268.91 72.484 268.91H74.024V271H72.044C70.9147 271 70.0493 270.736 69.448 270.208C68.8467 269.68 68.546 268.822 68.546 267.634V260.924H67.116V258.878H68.546V255.864H71.076V258.878H74.024V260.924H71.076ZM82.6055 258.68C83.5295 258.68 84.3509 258.878 85.0695 259.274C85.8029 259.67 86.3749 260.257 86.7855 261.034C87.2109 261.811 87.4235 262.75 87.4235 263.85V271H84.9375V264.224C84.9375 263.139 84.6662 262.31 84.1235 261.738C83.5809 261.151 82.8402 260.858 81.9015 260.858C80.9629 260.858 80.2149 261.151 79.6575 261.738C79.1149 262.31 78.8435 263.139 78.8435 264.224V271H76.3355V254.72H78.8435V260.286C79.2689 259.773 79.8042 259.377 80.4495 259.098C81.1095 258.819 81.8282 258.68 82.6055 258.68ZM89.7867 264.884C89.7867 263.667 90.036 262.589 90.5347 261.65C91.048 260.711 91.7373 259.985 92.6027 259.472C93.4827 258.944 94.4507 258.68 95.5067 258.68C96.46 258.68 97.2887 258.871 97.9927 259.252C98.7113 259.619 99.2833 260.081 99.7087 260.638V258.878H102.239V271H99.7087V269.196C99.2833 269.768 98.704 270.245 97.9707 270.626C97.2373 271.007 96.4013 271.198 95.4627 271.198C94.4213 271.198 93.468 270.934 92.6027 270.406C91.7373 269.863 91.048 269.115 90.5347 268.162C90.036 267.194 89.7867 266.101 89.7867 264.884ZM99.7087 264.928C99.7087 264.092 99.5327 263.366 99.1807 262.75C98.8433 262.134 98.396 261.665 97.8387 261.342C97.2813 261.019 96.68 260.858 96.0347 260.858C95.3893 260.858 94.788 261.019 94.2307 261.342C93.6733 261.65 93.2187 262.112 92.8667 262.728C92.5293 263.329 92.3607 264.048 92.3607 264.884C92.3607 265.72 92.5293 266.453 92.8667 267.084C93.2187 267.715 93.6733 268.199 94.2307 268.536C94.8027 268.859 95.404 269.02 96.0347 269.02C96.68 269.02 97.2813 268.859 97.8387 268.536C98.396 268.213 98.8433 267.744 99.1807 267.128C99.5327 266.497 99.7087 265.764 99.7087 264.928ZM108.459 260.924V267.634C108.459 268.089 108.561 268.419 108.767 268.624C108.987 268.815 109.353 268.91 109.867 268.91H111.407V271H109.427C108.297 271 107.432 270.736 106.831 270.208C106.229 269.68 105.929 268.822 105.929 267.634V260.924H104.499V258.878H105.929V255.864H108.459V258.878H111.407V260.924H108.459ZM121.941 254.72V271H119.433V254.72H121.941ZM126.51 257.272C126.055 257.272 125.674 257.118 125.366 256.81C125.058 256.502 124.904 256.121 124.904 255.666C124.904 255.211 125.058 254.83 125.366 254.522C125.674 254.214 126.055 254.06 126.51 254.06C126.95 254.06 127.324 254.214 127.632 254.522C127.94 254.83 128.094 255.211 128.094 255.666C128.094 256.121 127.94 256.502 127.632 256.81C127.324 257.118 126.95 257.272 126.51 257.272ZM127.742 258.878V271H125.234V258.878H127.742ZM135.721 268.756L139.153 258.878H141.815L137.195 271H134.203L129.605 258.878H132.289L135.721 268.756ZM154.821 264.642C154.821 265.097 154.791 265.507 154.733 265.874H145.471C145.544 266.842 145.903 267.619 146.549 268.206C147.194 268.793 147.986 269.086 148.925 269.086C150.274 269.086 151.227 268.521 151.785 267.392H154.491C154.124 268.507 153.457 269.423 152.489 270.142C151.535 270.846 150.347 271.198 148.925 271.198C147.766 271.198 146.725 270.941 145.801 270.428C144.891 269.9 144.173 269.167 143.645 268.228C143.131 267.275 142.875 266.175 142.875 264.928C142.875 263.681 143.124 262.589 143.623 261.65C144.136 260.697 144.847 259.963 145.757 259.45C146.681 258.937 147.737 258.68 148.925 258.68C150.069 258.68 151.088 258.929 151.983 259.428C152.877 259.927 153.574 260.631 154.073 261.54C154.571 262.435 154.821 263.469 154.821 264.642ZM152.203 263.85C152.188 262.926 151.858 262.185 151.213 261.628C150.567 261.071 149.768 260.792 148.815 260.792C147.949 260.792 147.209 261.071 146.593 261.628C145.977 262.171 145.61 262.911 145.493 263.85H152.203ZM161.689 271.198C160.735 271.198 159.877 271.029 159.115 270.692C158.367 270.34 157.773 269.871 157.333 269.284C156.893 268.683 156.658 268.015 156.629 267.282H159.225C159.269 267.795 159.511 268.228 159.951 268.58C160.405 268.917 160.97 269.086 161.645 269.086C162.349 269.086 162.891 268.954 163.273 268.69C163.669 268.411 163.867 268.059 163.867 267.634C163.867 267.179 163.647 266.842 163.207 266.622C162.781 266.402 162.099 266.16 161.161 265.896C160.251 265.647 159.511 265.405 158.939 265.17C158.367 264.935 157.868 264.576 157.443 264.092C157.032 263.608 156.827 262.97 156.827 262.178C156.827 261.533 157.017 260.946 157.399 260.418C157.78 259.875 158.323 259.45 159.027 259.142C159.745 258.834 160.567 258.68 161.491 258.68C162.869 258.68 163.977 259.032 164.813 259.736C165.663 260.425 166.118 261.371 166.177 262.574H163.669C163.625 262.031 163.405 261.599 163.009 261.276C162.613 260.953 162.077 260.792 161.403 260.792C160.743 260.792 160.237 260.917 159.885 261.166C159.533 261.415 159.357 261.745 159.357 262.156C159.357 262.479 159.474 262.75 159.709 262.97C159.943 263.19 160.229 263.366 160.567 263.498C160.904 263.615 161.403 263.769 162.063 263.96C162.943 264.195 163.661 264.437 164.219 264.686C164.791 264.921 165.282 265.273 165.693 265.742C166.103 266.211 166.316 266.835 166.331 267.612C166.331 268.301 166.14 268.917 165.759 269.46C165.377 270.003 164.835 270.428 164.131 270.736C163.441 271.044 162.627 271.198 161.689 271.198ZM176.031 257.272C175.577 257.272 175.195 257.118 174.887 256.81C174.579 256.502 174.425 256.121 174.425 255.666C174.425 255.211 174.579 254.83 174.887 254.522C175.195 254.214 175.577 254.06 176.031 254.06C176.471 254.06 176.845 254.214 177.153 254.522C177.461 254.83 177.615 255.211 177.615 255.666C177.615 256.121 177.461 256.502 177.153 256.81C176.845 257.118 176.471 257.272 176.031 257.272ZM177.263 258.878V271H174.755V258.878H177.263ZM186.672 258.68C187.626 258.68 188.476 258.878 189.224 259.274C189.987 259.67 190.581 260.257 191.006 261.034C191.432 261.811 191.644 262.75 191.644 263.85V271H189.158V264.224C189.158 263.139 188.887 262.31 188.344 261.738C187.802 261.151 187.061 260.858 186.122 260.858C185.184 260.858 184.436 261.151 183.878 261.738C183.336 262.31 183.064 263.139 183.064 264.224V271H180.556V258.878H183.064V260.264C183.475 259.765 183.996 259.377 184.626 259.098C185.272 258.819 185.954 258.68 186.672 258.68ZM211.668 264.642C211.668 265.097 211.639 265.507 211.58 265.874H202.318C202.392 266.842 202.751 267.619 203.396 268.206C204.042 268.793 204.834 269.086 205.772 269.086C207.122 269.086 208.075 268.521 208.632 267.392H211.338C210.972 268.507 210.304 269.423 209.336 270.142C208.383 270.846 207.195 271.198 205.772 271.198C204.614 271.198 203.572 270.941 202.648 270.428C201.739 269.9 201.02 269.167 200.492 268.228C199.979 267.275 199.722 266.175 199.722 264.928C199.722 263.681 199.972 262.589 200.47 261.65C200.984 260.697 201.695 259.963 202.604 259.45C203.528 258.937 204.584 258.68 205.772 258.68C206.916 258.68 207.936 258.929 208.83 259.428C209.725 259.927 210.422 260.631 210.92 261.54C211.419 262.435 211.668 263.469 211.668 264.642ZM209.05 263.85C209.036 262.926 208.706 262.185 208.06 261.628C207.415 261.071 206.616 260.792 205.662 260.792C204.797 260.792 204.056 261.071 203.44 261.628C202.824 262.171 202.458 262.911 202.34 263.85H209.05ZM218.822 268.756L222.254 258.878H224.916L220.296 271H217.304L212.706 258.878H215.39L218.822 268.756ZM237.922 264.642C237.922 265.097 237.893 265.507 237.834 265.874H228.572C228.645 266.842 229.005 267.619 229.65 268.206C230.295 268.793 231.087 269.086 232.026 269.086C233.375 269.086 234.329 268.521 234.886 267.392H237.592C237.225 268.507 236.558 269.423 235.59 270.142C234.637 270.846 233.449 271.198 232.026 271.198C230.867 271.198 229.826 270.941 228.902 270.428C227.993 269.9 227.274 269.167 226.746 268.228C226.233 267.275 225.976 266.175 225.976 264.928C225.976 263.681 226.225 262.589 226.724 261.65C227.237 260.697 227.949 259.963 228.858 259.45C229.782 258.937 230.838 258.68 232.026 258.68C233.17 258.68 234.189 258.929 235.084 259.428C235.979 259.927 236.675 260.631 237.174 261.54C237.673 262.435 237.922 263.469 237.922 264.642ZM235.304 263.85C235.289 262.926 234.959 262.185 234.314 261.628C233.669 261.071 232.869 260.792 231.916 260.792C231.051 260.792 230.31 261.071 229.694 261.628C229.078 262.171 228.711 262.911 228.594 263.85H235.304ZM242.898 260.638C243.265 260.022 243.749 259.545 244.35 259.208C244.966 258.856 245.692 258.68 246.528 258.68V261.276H245.89C244.908 261.276 244.16 261.525 243.646 262.024C243.148 262.523 242.898 263.388 242.898 264.62V271H240.39V258.878H242.898V260.638ZM259.746 258.878L252.31 276.698H249.714L252.178 270.802L247.404 258.878H250.198L253.608 268.118L257.15 258.878H259.746ZM266.896 271.198C265.752 271.198 264.718 270.941 263.794 270.428C262.87 269.9 262.144 269.167 261.616 268.228C261.088 267.275 260.824 266.175 260.824 264.928C260.824 263.696 261.096 262.603 261.638 261.65C262.181 260.697 262.922 259.963 263.86 259.45C264.799 258.937 265.848 258.68 267.006 258.68C268.165 258.68 269.214 258.937 270.152 259.45C271.091 259.963 271.832 260.697 272.374 261.65C272.917 262.603 273.188 263.696 273.188 264.928C273.188 266.16 272.91 267.253 272.352 268.206C271.795 269.159 271.032 269.9 270.064 270.428C269.111 270.941 268.055 271.198 266.896 271.198ZM266.896 269.02C267.542 269.02 268.143 268.866 268.7 268.558C269.272 268.25 269.734 267.788 270.086 267.172C270.438 266.556 270.614 265.808 270.614 264.928C270.614 264.048 270.446 263.307 270.108 262.706C269.771 262.09 269.324 261.628 268.766 261.32C268.209 261.012 267.608 260.858 266.962 260.858C266.317 260.858 265.716 261.012 265.158 261.32C264.616 261.628 264.183 262.09 263.86 262.706C263.538 263.307 263.376 264.048 263.376 264.928C263.376 266.233 263.706 267.245 264.366 267.964C265.041 268.668 265.884 269.02 266.896 269.02ZM281.784 258.68C282.737 258.68 283.588 258.878 284.336 259.274C285.098 259.67 285.692 260.257 286.118 261.034C286.543 261.811 286.756 262.75 286.756 263.85V271H284.27V264.224C284.27 263.139 283.998 262.31 283.456 261.738C282.913 261.151 282.172 260.858 281.234 260.858C280.295 260.858 279.547 261.151 278.99 261.738C278.447 262.31 278.176 263.139 278.176 264.224V271H275.668V258.878H278.176V260.264C278.586 259.765 279.107 259.377 279.738 259.098C280.383 258.819 281.065 258.68 281.784 258.68ZM301.065 264.642C301.065 265.097 301.035 265.507 300.977 265.874H291.715C291.788 266.842 292.147 267.619 292.793 268.206C293.438 268.793 294.23 269.086 295.169 269.086C296.518 269.086 297.471 268.521 298.029 267.392H300.735C300.368 268.507 299.701 269.423 298.733 270.142C297.779 270.846 296.591 271.198 295.169 271.198C294.01 271.198 292.969 270.941 292.045 270.428C291.135 269.9 290.417 269.167 289.889 268.228C289.375 267.275 289.119 266.175 289.119 264.928C289.119 263.681 289.368 262.589 289.867 261.65C290.38 260.697 291.091 259.963 292.001 259.45C292.925 258.937 293.981 258.68 295.169 258.68C296.313 258.68 297.332 258.929 298.227 259.428C299.121 259.927 299.818 260.631 300.317 261.54C300.815 262.435 301.065 263.469 301.065 264.642ZM298.447 263.85C298.432 262.926 298.102 262.185 297.457 261.628C296.811 261.071 296.012 260.792 295.059 260.792C294.193 260.792 293.453 261.071 292.837 261.628C292.221 262.171 291.854 262.911 291.737 263.85H298.447ZM304.897 253.466L304.633 257.976H302.917L302.631 253.466H304.897ZM311.714 271.198C310.761 271.198 309.903 271.029 309.14 270.692C308.392 270.34 307.798 269.871 307.358 269.284C306.918 268.683 306.683 268.015 306.654 267.282H309.25C309.294 267.795 309.536 268.228 309.976 268.58C310.431 268.917 310.995 269.086 311.67 269.086C312.374 269.086 312.917 268.954 313.298 268.69C313.694 268.411 313.892 268.059 313.892 267.634C313.892 267.179 313.672 266.842 313.232 266.622C312.807 266.402 312.125 266.16 311.186 265.896C310.277 265.647 309.536 265.405 308.964 265.17C308.392 264.935 307.893 264.576 307.468 264.092C307.057 263.608 306.852 262.97 306.852 262.178C306.852 261.533 307.043 260.946 307.424 260.418C307.805 259.875 308.348 259.45 309.052 259.142C309.771 258.834 310.592 258.68 311.516 258.68C312.895 258.68 314.002 259.032 314.838 259.736C315.689 260.425 316.143 261.371 316.202 262.574H313.694C313.65 262.031 313.43 261.599 313.034 261.276C312.638 260.953 312.103 260.792 311.428 260.792C310.768 260.792 310.262 260.917 309.91 261.166C309.558 261.415 309.382 261.745 309.382 262.156C309.382 262.479 309.499 262.75 309.734 262.97C309.969 263.19 310.255 263.366 310.592 263.498C310.929 263.615 311.428 263.769 312.088 263.96C312.968 264.195 313.687 264.437 314.244 264.686C314.816 264.921 315.307 265.273 315.718 265.742C316.129 266.211 316.341 266.835 316.356 267.612C316.356 268.301 316.165 268.917 315.784 269.46C315.403 270.003 314.86 270.428 314.156 270.736C313.467 271.044 312.653 271.198 311.714 271.198ZM323.945 264.884C323.945 263.667 324.194 262.589 324.693 261.65C325.206 260.711 325.896 259.985 326.761 259.472C327.641 258.944 328.616 258.68 329.687 258.68C330.479 258.68 331.256 258.856 332.019 259.208C332.796 259.545 333.412 260 333.867 260.572V254.72H336.397V271H333.867V269.174C333.456 269.761 332.884 270.245 332.151 270.626C331.432 271.007 330.604 271.198 329.665 271.198C328.609 271.198 327.641 270.934 326.761 270.406C325.896 269.863 325.206 269.115 324.693 268.162C324.194 267.194 323.945 266.101 323.945 264.884ZM333.867 264.928C333.867 264.092 333.691 263.366 333.339 262.75C333.002 262.134 332.554 261.665 331.997 261.342C331.44 261.019 330.838 260.858 330.193 260.858C329.548 260.858 328.946 261.019 328.389 261.342C327.832 261.65 327.377 262.112 327.025 262.728C326.688 263.329 326.519 264.048 326.519 264.884C326.519 265.72 326.688 266.453 327.025 267.084C327.377 267.715 327.832 268.199 328.389 268.536C328.961 268.859 329.562 269.02 330.193 269.02C330.838 269.02 331.44 268.859 331.997 268.536C332.554 268.213 333.002 267.744 333.339 267.128C333.691 266.497 333.867 265.764 333.867 264.928ZM338.855 264.884C338.855 263.667 339.104 262.589 339.603 261.65C340.116 260.711 340.806 259.985 341.671 259.472C342.551 258.944 343.519 258.68 344.575 258.68C345.528 258.68 346.357 258.871 347.061 259.252C347.78 259.619 348.352 260.081 348.777 260.638V258.878H351.307V271H348.777V269.196C348.352 269.768 347.772 270.245 347.039 270.626C346.306 271.007 345.47 271.198 344.531 271.198C343.49 271.198 342.536 270.934 341.671 270.406C340.806 269.863 340.116 269.115 339.603 268.162C339.104 267.194 338.855 266.101 338.855 264.884ZM348.777 264.928C348.777 264.092 348.601 263.366 348.249 262.75C347.912 262.134 347.464 261.665 346.907 261.342C346.35 261.019 345.748 260.858 345.103 260.858C344.458 260.858 343.856 261.019 343.299 261.342C342.742 261.65 342.287 262.112 341.935 262.728C341.598 263.329 341.429 264.048 341.429 264.884C341.429 265.72 341.598 266.453 341.935 267.084C342.287 267.715 342.742 268.199 343.299 268.536C343.871 268.859 344.472 269.02 345.103 269.02C345.748 269.02 346.35 268.859 346.907 268.536C347.464 268.213 347.912 267.744 348.249 267.128C348.601 266.497 348.777 265.764 348.777 264.928ZM355.877 257.272C355.423 257.272 355.041 257.118 354.733 256.81C354.425 256.502 354.271 256.121 354.271 255.666C354.271 255.211 354.425 254.83 354.733 254.522C355.041 254.214 355.423 254.06 355.877 254.06C356.317 254.06 356.691 254.214 356.999 254.522C357.307 254.83 357.461 255.211 357.461 255.666C357.461 256.121 357.307 256.502 356.999 256.81C356.691 257.118 356.317 257.272 355.877 257.272ZM357.109 258.878V271H354.601V258.878H357.109ZM362.91 254.72V271H360.402V254.72H362.91ZM377.115 258.878L369.679 276.698H367.083L369.547 270.802L364.773 258.878H367.567L370.977 268.118L374.519 258.878H377.115ZM387.23 254.72V271H384.722V254.72H387.23ZM391.799 257.272C391.344 257.272 390.963 257.118 390.655 256.81C390.347 256.502 390.193 256.121 390.193 255.666C390.193 255.211 390.347 254.83 390.655 254.522C390.963 254.214 391.344 254.06 391.799 254.06C392.239 254.06 392.613 254.214 392.921 254.522C393.229 254.83 393.383 255.211 393.383 255.666C393.383 256.121 393.229 256.502 392.921 256.81C392.613 257.118 392.239 257.272 391.799 257.272ZM393.031 258.878V271H390.523V258.878H393.031ZM401.406 260.924H399.162V271H396.632V260.924H395.202V258.878H396.632V258.02C396.632 256.627 396.998 255.615 397.732 254.984C398.48 254.339 399.646 254.016 401.23 254.016V256.106C400.467 256.106 399.932 256.253 399.624 256.546C399.316 256.825 399.162 257.316 399.162 258.02V258.878H401.406V260.924ZM414.739 264.642C414.739 265.097 414.709 265.507 414.651 265.874H405.389C405.462 266.842 405.821 267.619 406.467 268.206C407.112 268.793 407.904 269.086 408.843 269.086C410.192 269.086 411.145 268.521 411.703 267.392H414.409C414.042 268.507 413.375 269.423 412.407 270.142C411.453 270.846 410.265 271.198 408.843 271.198C407.684 271.198 406.643 270.941 405.719 270.428C404.809 269.9 404.091 269.167 403.563 268.228C403.049 267.275 402.793 266.175 402.793 264.928C402.793 263.681 403.042 262.589 403.541 261.65C404.054 260.697 404.765 259.963 405.675 259.45C406.599 258.937 407.655 258.68 408.843 258.68C409.987 258.68 411.006 258.929 411.901 259.428C412.795 259.927 413.492 260.631 413.991 261.54C414.489 262.435 414.739 263.469 414.739 264.642ZM412.121 263.85C412.106 262.926 411.776 262.185 411.131 261.628C410.485 261.071 409.686 260.792 408.733 260.792C407.867 260.792 407.127 261.071 406.511 261.628C405.895 262.171 405.528 262.911 405.411 263.85H412.121ZM418.219 271.154C417.764 271.154 417.383 271 417.075 270.692C416.767 270.384 416.613 270.003 416.613 269.548C416.613 269.093 416.767 268.712 417.075 268.404C417.383 268.096 417.764 267.942 418.219 267.942C418.659 267.942 419.033 268.096 419.341 268.404C419.649 268.712 419.803 269.093 419.803 269.548C419.803 270.003 419.649 270.384 419.341 270.692C419.033 271 418.659 271.154 418.219 271.154Z" fill="#3F404D"/>
</g>
<defs>
<filter id="filter0_d_5084_4756" x="0.5" y="0" width="529" height="342" filterUnits="userSpaceOnUse" color-interpolation-filters="sRGB">
<feFlood flood-opacity="0" result="BackgroundImageFix"/>
<feColorMatrix in="SourceAlpha" type="matrix" values="0 0 0 0 0 0 0 0 0 0 0 0 0 0 0 0 0 0 127 0" result="hardAlpha"/>
<feOffset/>
<feGaussianBlur stdDeviation="16"/>
<feComposite in2="hardAlpha" operator="out"/>
<feColorMatrix type="matrix" values="0 0 0 0 0.878271 0 0 0 0 0.504806 0 0 0 0 0.504806 0 0 0 0.32 0"/>
<feBlend mode="normal" in2="BackgroundImageFix" result="effect1_dropShadow_5084_4756"/>
<feBlend mode="normal" in="SourceGraphic" in2="effect1_dropShadow_5084_4756" result="shape"/>
</filter>
<pattern id="pattern0_5084_4756" patternContentUnits="objectBoundingBox" width="1" height="1">
<use xlink:href="#image0_5084_4756" transform="scale(0.000400006)"/>
</pattern>
<pattern id="pattern1_5084_4756" patternContentUnits="objectBoundingBox" width="1" height="1">
<use xlink:href="#image0_5084_4756" transform="scale(0.000400006)"/>
</pattern>
<linearGradient id="paint0_linear_5084_4756" x1="265" y1="36" x2="265" y2="306" gradientUnits="userSpaceOnUse">
<stop stop-color="white" stop-opacity="0"/>
<stop offset="1" stop-color="#FF6161" stop-opacity="0.06"/>
</linearGradient>
<linearGradient id="paint1_linear_5084_4756" x1="24.2609" y1="36.6002" x2="247.333" y2="74.9642" gradientUnits="userSpaceOnUse">
<stop stop-color="#FFBC70"/>
<stop offset="0.5" stop-color="#FF7B7B"/>
<stop offset="1" stop-color="#FF52F9"/>
</linearGradient>
</defs>
</svg>
