<svg width="35" height="34" viewBox="0 0 35 34" fill="none" xmlns="http://www.w3.org/2000/svg">
<rect x="0.5" width="34" height="34" rx="10" fill="#3F404D"/>
<path d="M23.7612 11.1467C25.7825 14.148 26.7931 17.5167 26.4256 21.4061C26.4256 21.4061 26.4256 21.4367 26.395 21.4367C25.0475 22.4473 23.5162 23.2129 21.8931 23.7029C21.8625 23.7336 21.8625 23.7029 21.8319 23.7029C21.495 23.2129 21.1887 22.7229 20.9131 22.2023C20.9131 22.1717 20.9131 22.1717 20.9131 22.1411L20.9437 22.1105C21.4337 21.9267 21.8931 21.7123 22.3525 21.4367C22.3525 21.4367 22.3831 21.4367 22.3831 21.4061C22.3831 21.3755 22.3831 21.3755 22.3525 21.3448C22.2606 21.2836 22.1687 21.2223 22.0769 21.1305C22.0462 21.1305 22.0462 21.1305 22.0156 21.1305C19.1062 22.478 15.9213 22.478 12.9813 21.1305C12.9506 21.1305 12.92 21.1305 12.92 21.1305C12.8281 21.2223 12.7363 21.2836 12.6444 21.3448C12.6138 21.3755 12.6138 21.3755 12.6138 21.4061C12.6138 21.4367 12.6138 21.4367 12.6444 21.4367C13.0731 21.7123 13.5631 21.9267 14.0531 22.1105C14.0531 22.1105 14.0531 22.1411 14.0838 22.1411C14.0838 22.1717 14.0838 22.1717 14.0838 22.2023C13.8081 22.7229 13.5019 23.2129 13.165 23.7029C13.1344 23.7029 13.1038 23.7336 13.1038 23.7029C11.4806 23.2129 9.94939 22.4473 8.60189 21.4367C8.57127 21.4367 8.57127 21.4061 8.57127 21.4061C8.26502 18.0373 8.90814 14.638 11.2356 11.1467C11.2356 11.1467 11.2356 11.1467 11.2663 11.1467C12.43 10.5955 13.655 10.228 14.9106 10.0136C14.9413 9.98299 14.9719 10.0136 14.9719 10.0136C15.1556 10.3199 15.3088 10.6567 15.4313 10.963C16.8094 10.7486 18.1875 10.7486 19.5656 10.963C19.6881 10.6567 19.8412 10.3199 20.025 10.0136C20.025 10.0136 20.0556 9.98299 20.0862 10.0136C21.3419 10.228 22.5669 10.5955 23.7306 11.1467C23.7612 11.1467 23.7612 11.1467 23.7612 11.1467ZM14.5125 19.3542C15.4006 19.3542 16.1356 18.5273 16.1356 17.5473C16.1356 16.5367 15.4313 15.7405 14.5125 15.7405C13.6244 15.7405 12.8894 16.5367 12.8894 17.5473C12.8894 18.5273 13.6244 19.3542 14.5125 19.3542ZM20.4844 19.3542C21.4031 19.3542 22.1075 18.5273 22.1075 17.5473C22.1381 16.5367 21.4031 15.7405 20.4844 15.7405C19.5962 15.7405 18.8919 16.5367 18.8919 17.5473C18.8919 18.5273 19.5962 19.3542 20.4844 19.3542Z" fill="white"/>
</svg>
