<svg width="35" height="34" viewBox="0 0 35 34" fill="none" xmlns="http://www.w3.org/2000/svg">
<rect x="0.5" width="34" height="34" rx="10" fill="#3F404D"/>
<path d="M17.8004 7.5C15.2204 7.5 14.8966 7.51128 13.8833 7.55739C12.872 7.60371 12.1817 7.76382 11.5776 7.99874C10.9528 8.24138 10.4228 8.56596 9.89478 9.09419C9.36636 9.62222 9.04178 10.1522 8.79835 10.7768C8.56283 11.3811 8.40252 12.0716 8.357 13.0825C8.31168 14.0958 8.2998 14.4198 8.2998 16.9998C8.2998 19.5798 8.31128 19.9026 8.3572 20.9159C8.40371 21.9273 8.56382 22.6176 8.79854 23.2216C9.04138 23.8464 9.36596 24.3764 9.89419 24.9045C10.422 25.4329 10.952 25.7583 11.5764 26.0009C12.1809 26.2358 12.8714 26.3959 13.8825 26.4422C14.8958 26.4884 15.2194 26.4996 17.7992 26.4996C20.3794 26.4996 20.7022 26.4884 21.7155 26.4422C22.7269 26.3959 23.418 26.2358 24.0224 26.0009C24.647 25.7583 25.1762 25.4329 25.7041 24.9045C26.2325 24.3764 26.5571 23.8464 26.8005 23.2218C27.034 22.6176 27.1943 21.9271 27.2418 20.9161C27.2874 19.9028 27.2992 19.5798 27.2992 16.9998C27.2992 14.4198 27.2874 14.096 27.2418 13.0827C27.1943 12.0714 27.034 11.3811 26.8005 10.777C26.5571 10.1522 26.2325 9.62222 25.7041 9.09419C25.1756 8.56576 24.6472 8.24118 24.0218 7.99874C23.4162 7.76382 22.7255 7.60371 21.7141 7.55739C20.7008 7.51128 20.3782 7.5 17.7974 7.5H17.8004ZM16.9482 9.21195C17.2011 9.21155 17.4834 9.21195 17.8004 9.21195C20.3369 9.21195 20.6375 9.22105 21.6391 9.26657C22.5654 9.30892 23.0681 9.46369 23.4029 9.59372C23.8462 9.7659 24.1623 9.97173 24.4946 10.3042C24.8271 10.6367 25.0329 10.9534 25.2055 11.3967C25.3355 11.7312 25.4905 12.2339 25.5327 13.1601C25.5782 14.1615 25.5881 14.4624 25.5881 16.9976C25.5881 19.5329 25.5782 19.8337 25.5327 20.8352C25.4903 21.7614 25.3355 22.2641 25.2055 22.5986C25.0333 23.0419 24.8271 23.3576 24.4946 23.6899C24.1621 24.0224 23.8464 24.2282 23.4029 24.4004C23.0685 24.531 22.5654 24.6854 21.6391 24.7277C20.6377 24.7732 20.3369 24.7831 17.8004 24.7831C15.2638 24.7831 14.9631 24.7732 13.9617 24.7277C13.0355 24.685 12.5328 24.5302 12.1977 24.4002C11.7544 24.228 11.4377 24.0222 11.1052 23.6897C10.7727 23.3572 10.5669 23.0413 10.3943 22.5978C10.2643 22.2633 10.1093 21.7606 10.0672 20.8344C10.0216 19.8329 10.0125 19.5321 10.0125 16.9953C10.0125 14.4584 10.0216 14.1592 10.0672 13.1577C10.1095 12.2315 10.2643 11.7288 10.3943 11.3939C10.5665 10.9506 10.7727 10.6339 11.1052 10.3015C11.4377 9.96896 11.7544 9.76313 12.1977 9.59055C12.5326 9.45993 13.0355 9.30556 13.9617 9.26301C14.8381 9.22343 15.1777 9.21155 16.9482 9.20957V9.21195ZM22.8713 10.7893C22.242 10.7893 21.7314 11.2993 21.7314 11.9289C21.7314 12.5583 22.242 13.0689 22.8713 13.0689C23.5007 13.0689 24.0113 12.5583 24.0113 11.9289C24.0113 11.2995 23.5007 10.7889 22.8713 10.7889V10.7893ZM17.8004 12.1213C15.1062 12.1213 12.9219 14.3056 12.9219 16.9998C12.9219 19.694 15.1062 21.8774 17.8004 21.8774C20.4946 21.8774 22.6782 19.694 22.6782 16.9998C22.6782 14.3056 20.4946 12.1213 17.8004 12.1213ZM17.8004 13.8332C19.5492 13.8332 20.967 15.2509 20.967 16.9998C20.967 18.7486 19.5492 20.1664 17.8004 20.1664C16.0515 20.1664 14.6338 18.7486 14.6338 16.9998C14.6338 15.2509 16.0515 13.8332 17.8004 13.8332Z" fill="white"/>
</svg>
