<svg width="35" height="34" viewBox="0 0 35 34" fill="none" xmlns="http://www.w3.org/2000/svg">
<rect x="0.5" width="34" height="34" rx="10" fill="#3F404D"/>
<rect x="6.3877" y="5.00342" width="21.7535" height="22.8984" rx="8.83735" fill="white"/>
<path d="M27.7857 4C28.6964 4 29.5 4.80357 29.5 5.76786V26.2857C29.5 27.25 28.6964 28 27.7857 28H7.16071C6.25 28 5.5 27.25 5.5 26.2857V5.76786C5.5 4.80357 6.25 4 7.16071 4H27.7857ZM12.7321 24.5714V13.1607H9.19643V24.5714H12.7321ZM10.9643 11.5536C12.0893 11.5536 13 10.6429 13 9.51786C13 8.39286 12.0893 7.42857 10.9643 7.42857C9.78571 7.42857 8.875 8.39286 8.875 9.51786C8.875 10.6429 9.78571 11.5536 10.9643 11.5536ZM26.0714 24.5714V18.3036C26.0714 15.25 25.375 12.8393 21.7857 12.8393C20.0714 12.8393 18.8929 13.8036 18.4107 14.7143H18.3571V13.1607H14.9821V24.5714H18.5179V18.9464C18.5179 17.4464 18.7857 16 20.6607 16C22.4821 16 22.4821 17.7143 22.4821 19V24.5714H26.0714Z" fill="#3F404D"/>
</svg>
