<svg width="21" height="20" viewBox="0 0 21 20" fill="none" xmlns="http://www.w3.org/2000/svg">
<rect x="0.5" width="20" height="20" rx="5.88235" fill="#3F404D"/>
<path d="M6.5 14C6.225 14 5.98967 13.9022 5.794 13.7065C5.59833 13.5108 5.50033 13.2753 5.5 13V7C5.5 6.725 5.598 6.48967 5.794 6.294C5.99 6.09833 6.22533 6.00033 6.5 6H14.5C14.775 6 15.0105 6.098 15.2065 6.294C15.4025 6.49 15.5003 6.72533 15.5 7V13C15.5 13.275 15.4022 13.5105 15.2065 13.7065C15.0108 13.9025 14.7753 14.0003 14.5 14H6.5ZM14.5 8L10.7625 10.3375C10.7208 10.3625 10.6772 10.3813 10.6315 10.394C10.5858 10.4067 10.542 10.4128 10.5 10.4125C10.458 10.4122 10.4143 10.406 10.369 10.394C10.3237 10.382 10.2798 10.3632 10.2375 10.3375L6.5 8V13H14.5V8ZM10.5 9.5L14.5 7H6.5L10.5 9.5ZM6.5 8.125V7.3875V7.4V7.394V8.125Z" fill="white"/>
</svg>
